<svg xmlns="http://www.w3.org/2000/svg" width="847" height="244" fill="none"><path stroke="url(#a)" stroke-width=".404" d="M839.026 691.907a93 93 0 0 1-.771 2.142c4.211-16.875 5.303-37.359 3.727-60.536-1.869-27.455-7.483-58.702-16.108-92.224-17.25-67.044-46.545-143.205-82.01-216.366-35.464-73.16-77.102-143.329-119.041-198.387-20.97-27.529-42.016-51.283-62.408-69.747-20.389-18.461-40.132-31.64-58.494-38.007-18.36-6.365-42.025-8.234-69.465-6.355-27.443 1.88-58.677 7.508-92.186 16.15-67.017 17.283-143.152 46.62-216.289 82.129-73.138 35.509-143.294 77.191-198.34 119.171-27.52 20.992-51.276 42.056-69.733 62.466-15.585 17.227-27.409 33.991-34.549 49.85q.352-1.09.723-2.157c6.345-18.302 19.489-38.012 37.93-58.398 18.441-20.384 42.167-41.436 69.682-62.414 55.021-41.96 125.148-83.631 198.266-119.131 73.122-35.5 149.23-64.827 216.217-82.101 33.493-8.637 64.701-14.261 92.112-16.138 27.413-1.878 51.016-.007 69.305 6.334s37.986 19.481 58.355 37.925c20.368 18.441 41.399 42.176 62.358 69.692 41.919 55.031 83.543 125.176 118.999 198.319s64.74 149.277 81.982 216.289c8.621 33.506 14.23 64.728 16.096 92.152 1.866 27.426-.013 51.041-6.358 69.342Zm2.552-58.366c1.683 24.733.321 46.366-4.616 63.798a114 114 0 0 1-1.574 3.627c3.429-16.063 4.241-35.127 2.788-56.476-1.868-27.456-7.483-58.703-16.108-92.225-17.25-67.043-46.544-143.204-82.009-216.366-35.465-73.16-77.102-143.329-119.041-198.387-20.97-27.529-42.017-51.283-62.408-69.746-20.389-18.462-40.132-31.641-58.494-38.007-18.361-6.366-42.025-8.235-69.465-6.356-27.443 1.88-58.677 7.509-92.186 16.15-67.018 17.283-143.152 46.62-216.29 82.13-73.138 35.508-143.294 77.191-198.34 119.17-27.519 20.992-51.275 42.057-69.733 62.466-14.36 15.867-25.524 31.344-32.771 46.083.32-1.295.659-2.569 1.008-3.823 6.918-16.746 19.233-34.582 35.868-52.966 18.441-20.383 42.167-41.435 69.681-62.413 55.022-41.96 125.148-83.63 198.266-119.131 73.122-35.5 149.231-64.826 216.218-82.1 33.493-8.638 64.701-14.262 92.112-16.139 27.413-1.877 51.016-.007 69.305 6.334s37.986 19.482 58.355 37.925c20.368 18.442 41.399 42.176 62.358 69.692 41.918 55.032 83.543 125.176 118.999 198.319s64.74 149.278 81.981 216.29c8.621 33.506 14.23 64.727 16.096 92.151Zm-6.596 69.259q.493-1.041.959-2.076a96 96 0 0 1-1.491 4.301q.275-1.103.532-2.225Zm2.791-58.283c1.506 22.127.574 41.774-3.175 58.15a125 125 0 0 1-2.011 4.054c2.571-14.918 3.082-32.175 1.784-51.255-1.868-27.455-7.483-58.702-16.108-92.224-17.25-67.045-46.545-143.205-82.01-216.366-35.464-73.162-77.102-143.33-119.04-198.388-20.97-27.529-42.017-51.283-62.408-69.746C534.416 60.28 514.673 47.1 496.31 40.735c-18.36-6.366-42.024-8.235-69.464-6.356-27.443 1.88-58.677 7.509-92.186 16.15-67.018 17.283-143.153 46.62-216.29 82.13C45.232 168.168-24.924 209.85-79.97 251.83c-27.519 20.991-51.275 42.056-69.733 62.465-12.835 14.182-23.109 28.053-30.331 41.361q.436-2.252.936-4.427c7.189-15.185 18.622-31.191 33.5-47.639 18.44-20.384 42.166-41.436 69.68-62.414 55.023-41.96 125.149-83.63 198.267-119.131 73.122-35.5 149.231-64.826 216.217-82.1 33.493-8.638 64.701-14.262 92.113-16.139s51.016-.006 69.304 6.334c18.291 6.341 37.987 19.482 58.356 37.925 20.367 18.442 41.398 42.176 62.357 69.692 41.919 55.032 83.544 125.176 119 198.319 35.455 73.143 64.74 149.278 81.981 216.29 8.621 33.506 14.23 64.728 16.096 92.151Zm-5.419 63.52a129 129 0 0 0 1.811-3.544 112 112 0 0 1-1.009 3.822 111 111 0 0 1-1.573 3.627q.411-1.925.771-3.905Zm1.614-52.543c1.333 19.598.754 37.251-2 52.409a145 145 0 0 1-2.336 4.23c1.819-13.593 2.073-28.938.934-45.691-1.869-27.455-7.483-58.702-16.108-92.224-17.25-67.045-46.545-143.205-82.01-216.366-35.464-73.161-77.102-143.329-119.041-198.387-20.97-27.529-42.016-51.284-62.408-69.747-20.389-18.461-40.132-31.641-58.494-38.007-18.36-6.366-42.025-8.235-69.465-6.356-27.443 1.88-58.677 7.509-92.186 16.15-67.017 17.283-143.152 46.621-216.289 82.13-73.138 35.509-143.294 77.191-198.34 119.171-27.519 20.991-51.276 42.056-69.733 62.465-11.269 12.451-20.566 24.663-27.548 36.466q.353-2.425.781-4.769c7.216-13.612 17.689-27.835 30.872-42.402 18.44-20.385 42.166-41.436 69.68-62.415 55.022-41.959 125.149-83.629 198.267-119.129 73.122-35.5 149.23-64.827 216.217-82.101 33.493-8.638 64.701-14.262 92.112-16.139 27.413-1.877 51.016-.006 69.305 6.334 18.291 6.342 37.986 19.482 58.355 37.925 20.368 18.442 41.399 42.176 62.358 69.692 41.919 55.032 83.544 125.176 118.999 198.319 35.456 73.143 64.74 149.278 81.982 216.29 8.621 33.506 14.23 64.727 16.096 92.152Zm-4.482 57.697a147 147 0 0 0 2.237-3.977 128 128 0 0 1-.93 4.43 129 129 0 0 1-2.011 4.054q.383-2.22.704-4.507Zm.676-46.721c1.167 17.139.87 32.79-1.065 46.586a163 163 0 0 1-2.605 4.308c1.197-12.124 1.25-25.512.268-39.946-1.868-27.456-7.483-58.702-16.108-92.224-17.249-67.045-46.544-143.205-82.009-216.366-35.464-73.161-77.102-143.329-119.041-198.387-20.97-27.529-42.017-51.284-62.408-69.747-20.389-18.461-40.132-31.641-58.494-38.007-18.361-6.365-42.025-8.235-69.465-6.355-27.443 1.88-58.677 7.508-92.186 16.15-67.018 17.283-143.152 46.62-216.29 82.129s-143.293 77.191-198.34 119.171c-27.519 20.991-51.275 42.056-69.733 62.466-9.705 10.728-17.954 21.276-24.515 31.541.185-1.691.387-3.359.621-4.996 7.02-12.034 16.476-24.51 27.999-37.251 18.441-20.384 42.167-41.435 69.682-62.414 55.021-41.959 125.147-83.63 198.265-119.13 73.122-35.5 149.231-64.827 216.218-82.102 33.493-8.636 64.701-14.26 92.112-16.138 27.413-1.877 51.016-.006 69.305 6.335 18.29 6.34 37.986 19.481 58.355 37.924 20.368 18.442 41.399 42.176 62.357 69.693 41.919 55.031 83.544 125.175 119 198.319 35.456 73.142 64.74 149.277 81.981 216.289 8.621 33.506 14.231 64.727 16.096 92.152Zm-3.761 51.798a168 168 0 0 0 2.545-4.157 145 145 0 0 1-.783 4.768 149 149 0 0 1-2.336 4.229q.318-2.384.574-4.84Zm-.044-40.822c1.003 14.741.924 28.381-.349 40.687a181 181 0 0 1-2.837 4.341c.704-10.533.61-21.936-.216-34.08-1.868-27.456-7.483-58.702-16.108-92.224-17.25-67.044-46.545-143.205-82.01-216.366-35.464-73.161-77.102-143.329-119.04-198.387-20.97-27.529-42.017-51.284-62.408-69.747C523 93.209 503.257 80.03 484.894 73.663c-18.36-6.365-42.024-8.235-69.464-6.356-27.443 1.88-58.677 7.51-92.186 16.15-67.018 17.284-143.153 46.621-216.29 82.13-73.138 35.509-143.294 77.191-198.34 119.171-27.519 20.991-51.275 42.057-69.733 62.466-8.166 9.025-15.297 17.926-21.266 26.634q.191-2.623.457-5.167c6.618-10.454 15.001-21.215 24.914-32.173 18.441-20.384 42.166-41.435 69.681-62.414 55.022-41.959 125.148-83.629 198.266-119.131 73.122-35.499 149.231-64.826 216.217-82.1 33.493-8.637 64.701-14.262 92.113-16.138 27.413-1.878 51.016-.007 69.304 6.334 18.291 6.34 37.987 19.481 58.356 37.924 20.367 18.442 41.398 42.176 62.357 69.693 41.919 55.031 83.544 125.175 119 198.318 35.455 73.144 64.74 149.279 81.981 216.29 8.621 33.506 14.23 64.728 16.096 92.152Zm-3.241 45.831a186 186 0 0 0 2.797-4.242 162 162 0 0 1-.621 4.996 163 163 0 0 1-2.605 4.309q.246-2.496.429-5.063Zm-.564-34.855c.843 12.398.922 24.016.168 34.717a202 202 0 0 1-3.044 4.352c.333-8.836.146-18.233-.526-28.12-1.868-27.456-7.483-58.703-16.108-92.225-17.25-67.044-46.545-143.204-82.01-216.366-35.464-73.161-77.102-143.329-119.041-198.387-20.969-27.529-42.016-51.284-62.408-69.746-20.389-18.462-40.132-31.641-58.494-38.007-18.361-6.366-42.024-8.236-69.465-6.356-27.443 1.88-58.677 7.509-92.186 16.15-67.017 17.283-143.152 46.621-216.289 82.13-73.138 35.509-143.294 77.19-198.34 119.17-27.519 20.992-51.275 42.056-69.733 62.466-6.653 7.348-12.618 14.614-17.824 21.761q.121-2.686.307-5.3c6.027-8.874 13.279-17.952 21.622-27.167 18.44-20.384 42.166-41.435 69.68-62.414 55.022-41.959 125.149-83.629 198.267-119.13 73.122-35.5 149.23-64.826 216.217-82.101 33.493-8.638 64.701-14.261 92.112-16.138 27.413-1.878 51.016-.007 69.305 6.334 18.291 6.341 37.986 19.481 58.355 37.925 20.368 18.441 41.399 42.176 62.358 69.691 41.919 55.033 83.543 125.176 118.999 198.319 35.456 73.144 64.74 149.279 81.982 216.291 8.621 33.506 14.23 64.727 16.096 92.151Zm-2.905 39.8a206 206 0 0 0 3.015-4.28 182 182 0 0 1-.459 5.166 179 179 0 0 1-2.837 4.342q.171-2.579.281-5.228Zm-.9-28.824c.687 10.104.866 19.691.501 28.685a223 223 0 0 1-3.231 4.349c.078-7.045-.151-14.418-.673-22.085-1.868-27.456-7.483-58.703-16.108-92.225-17.249-67.044-46.544-143.204-82.009-216.365-35.465-73.162-77.102-143.329-119.041-198.388-20.97-27.529-42.017-51.283-62.408-69.746-20.389-18.462-40.132-31.642-58.494-38.008-18.361-6.365-42.025-8.234-69.465-6.355-27.443 1.879-58.677 7.509-92.186 16.15-67.018 17.283-143.152 46.621-216.29 82.13S-43.95 264.73-98.997 306.711c-27.519 20.991-51.275 42.055-69.733 62.465-5.157 5.699-9.903 11.348-14.199 16.931.027-1.829.08-3.633.15-5.416 5.282-7.291 11.36-14.709 18.154-22.22 18.441-20.385 42.167-41.436 69.681-62.415 55.022-41.959 125.148-83.629 198.266-119.13 73.122-35.499 149.231-64.826 216.218-82.101 33.493-8.638 64.701-14.261 92.112-16.138 27.413-1.877 51.016-.006 69.305 6.334 18.29 6.341 37.986 19.482 58.355 37.925 20.368 18.442 41.399 42.176 62.358 69.692 41.918 55.032 83.543 125.176 118.999 198.318 35.456 73.144 64.74 149.279 81.981 216.291 8.621 33.506 14.231 64.727 16.097 92.151Zm-2.739 33.71q1.65-2.154 3.209-4.295-.118 2.688-.302 5.303a201 201 0 0 1-3.045 4.351q.1-2.647.138-5.359Zm-1.067-22.734c.535 7.856.762 15.399.665 22.595a248 248 0 0 1-3.402 4.336c-.068-5.169-.292-10.5-.665-15.982-1.868-27.456-7.483-58.703-16.108-92.225-17.25-67.044-46.545-143.205-82.01-216.365-35.464-73.161-77.102-143.329-119.04-198.387-20.97-27.53-42.017-51.284-62.408-69.747-20.389-18.462-40.132-31.642-58.494-38.008-18.361-6.365-42.025-8.234-69.465-6.355-27.443 1.879-58.677 7.508-92.186 16.151-67.018 17.283-143.152 46.619-216.29 82.129-73.138 35.509-143.294 77.19-198.34 119.171-27.519 20.991-51.275 42.055-69.733 62.465a296 296 0 0 0-10.418 12.142q-.021-2.788.012-5.511c4.375-5.713 9.228-11.496 14.511-17.336 18.441-20.385 42.166-41.436 69.681-62.414 55.022-41.959 125.148-83.63 198.266-119.131 73.122-35.499 149.231-64.826 216.217-82.101 33.493-8.638 64.701-14.26 92.113-16.138s51.016-.007 69.305 6.334 37.986 19.482 58.355 37.925c20.367 18.442 41.398 42.176 62.357 69.692 41.919 55.032 83.544 125.176 119 198.319s64.74 149.278 81.981 216.29c8.621 33.506 14.23 64.727 16.096 92.151Zm-2.729 27.565a245 245 0 0 0 3.384-4.294 226 226 0 0 1-.153 5.415 220 220 0 0 1-3.232 4.347q.03-2.702.001-5.468Zm-1.076-16.589c.384 5.649.61 11.137.67 16.449a273 273 0 0 1-3.56 4.319q-.172-4.825-.513-9.819c-1.867-27.456-7.482-58.703-16.107-92.225-17.25-67.044-46.545-143.204-82.01-216.365-35.464-73.161-77.102-143.329-119.041-198.387-20.969-27.53-42.016-51.284-62.407-69.747-20.39-18.462-40.133-31.641-58.495-38.007-18.36-6.366-42.025-8.235-69.465-6.356-27.443 1.879-58.676 7.508-92.185 16.15-67.018 17.284-143.153 46.62-216.29 82.13-73.138 35.509-143.294 77.191-198.34 119.171-27.519 20.991-51.275 42.056-69.733 62.465a278 278 0 0 0-6.481 7.397 290 290 0 0 1-.129-5.598 295 295 0 0 1 10.715-12.504c18.44-20.384 42.166-41.436 69.681-62.414 55.021-41.959 125.147-83.63 198.266-119.131 73.122-35.5 149.23-64.826 216.217-82.101 33.493-8.637 64.701-14.261 92.112-16.138 27.414-1.877 51.016-.006 69.305 6.334 18.291 6.341 37.986 19.482 58.355 37.925 20.368 18.442 41.399 42.176 62.358 69.692 41.919 55.031 83.543 125.176 118.999 198.319s64.74 149.278 81.982 216.29c8.621 33.506 14.23 64.727 16.096 92.151Zm-2.868 21.37a266 266 0 0 0 3.544-4.286q.025 2.788-.011 5.511a248 248 0 0 1-3.403 4.336 279 279 0 0 0-.13-5.561Zm-.937-10.394q.355 5.22.527 10.252a295 295 0 0 1-3.705 4.3 332 332 0 0 0-.225-3.603c-1.868-27.456-7.483-58.702-16.108-92.224-17.249-67.044-46.544-143.205-82.009-216.366s-77.102-143.33-119.041-198.387c-20.97-27.529-42.017-51.284-62.408-69.747-20.389-18.461-40.132-31.641-58.494-38.007-18.361-6.366-42.025-8.235-69.465-6.356-27.443 1.88-58.677 7.509-92.186 16.15-67.018 17.284-143.152 46.621-216.29 82.131-73.138 35.508-143.294 77.19-198.34 119.17-27.519 20.991-51.275 42.056-69.733 62.465-.815.897-1.614 1.796-2.412 2.69a378 378 0 0 1-.249-5.669 312 312 0 0 1 6.766-7.726c18.441-20.384 42.167-41.436 69.681-62.414 55.022-41.959 125.148-83.629 198.266-119.131 73.123-35.499 149.231-64.825 216.218-82.1 33.493-8.638 64.701-14.262 92.112-16.139 27.413-1.877 51.016-.006 69.305 6.334 18.29 6.341 37.986 19.482 58.355 37.926 20.368 18.441 41.399 42.176 62.358 69.691 41.918 55.032 83.543 125.176 118.999 198.319s64.74 149.278 81.981 216.291c8.621 33.506 14.231 64.727 16.097 92.15Zm-3.146 15.126a293 293 0 0 0 3.693-4.272q.091 2.829.123 5.595a269 269 0 0 1-3.56 4.319 294 294 0 0 0-.256-5.642Zm-.66-4.149q.137 2.017.248 4.006a323 323 0 0 1-3.842 4.278c-2.041-26.807-7.569-57.118-15.916-89.56-17.25-67.044-46.545-143.205-82.01-216.366-35.464-73.161-77.102-143.329-119.04-198.387-20.97-27.529-42.017-51.284-62.408-69.747-20.389-18.461-40.132-31.641-58.494-38.007-18.361-6.365-42.025-8.235-69.465-6.355-27.443 1.879-58.677 7.508-92.186 16.149-67.018 17.284-143.152 46.621-216.29 82.131s-143.294 77.19-198.34 119.17c-26.635 20.316-49.737 40.702-67.937 60.492l-.119-1.727q-.135-2.018-.252-4.01 1.326-1.494 2.68-2.995c18.441-20.384 42.166-41.436 69.681-62.414 55.022-41.96 125.148-83.629 198.266-119.13 73.122-35.5 149.231-64.826 216.217-82.101 33.493-8.638 64.701-14.261 92.113-16.139 27.413-1.877 51.016-.006 69.305 6.335s37.986 19.481 58.355 37.925c20.368 18.441 41.398 42.176 62.357 69.691 41.919 55.032 83.544 125.176 119 198.319s64.74 149.278 81.981 216.29c8.621 33.506 14.23 64.728 16.096 92.152Zm-3.553 8.836q.718-.782 1.425-1.564a304 304 0 0 0 2.407-2.691q.153 2.865.249 5.67a301 301 0 0 1-3.705 4.3 330 330 0 0 0-.376-5.715Zm-16.348-90.012c8.382 32.58 13.917 63 15.933 89.868a356 356 0 0 1-3.97 4.255c-2.379-25.218-7.679-53.326-15.377-83.247-17.25-67.044-46.545-143.205-82.01-216.366-35.464-73.16-77.102-143.329-119.041-198.387-20.969-27.529-42.016-51.283-62.407-69.747-20.39-18.461-40.133-31.641-58.495-38.007-18.36-6.365-42.025-8.234-69.465-6.355-27.443 1.879-58.677 7.508-92.185 16.15-67.018 17.283-143.153 46.62-216.29 82.129-73.138 35.51-143.294 77.191-198.34 119.171-24.565 18.736-46.132 37.532-63.606 55.868q-.267-2.925-.487-5.799c18.215-19.857 41.396-40.322 68.146-60.723 55.021-41.959 125.147-83.629 198.266-119.13 73.122-35.5 149.23-64.826 216.217-82.101 33.493-8.638 64.701-14.261 92.112-16.138 27.414-1.878 51.016-.007 69.305 6.334 18.291 6.341 37.986 19.481 58.356 37.924 20.367 18.442 41.398 42.177 62.357 69.693 41.919 55.031 83.543 125.176 118.999 198.318s64.74 149.278 81.982 216.29Zm12.013 94.657a346 346 0 0 0 3.96-4.236q.064.867.123 1.731.137 2.017.247 4.006a309 309 0 0 1-3.841 4.278 363 363 0 0 0-.489-5.779Zm-15.818-83.681c7.73 30.046 13.039 58.255 15.399 83.536a399 399 0 0 1-4.091 4.232c-2.623-23.553-7.665-49.461-14.723-76.892-17.249-67.044-46.544-143.205-82.009-216.366-35.465-73.16-77.102-143.329-119.041-198.387-20.97-27.529-42.017-51.283-62.408-69.747-20.389-18.461-40.132-31.641-58.494-38.007-18.361-6.365-42.025-8.234-69.465-6.355-27.443 1.879-58.677 7.508-92.186 16.15-67.018 17.283-143.152 46.62-216.29 82.129s-143.294 77.191-198.339 119.171c-22.52 17.178-42.518 34.406-59.16 51.281q-.32-2.953-.595-5.856c17.503-18.396 39.138-37.264 63.807-56.078 55.022-41.96 125.148-83.63 198.266-119.131 73.123-35.5 149.231-64.827 216.218-82.101 33.493-8.637 64.701-14.261 92.112-16.138 27.413-1.878 51.016-.007 69.305 6.334s37.986 19.481 58.355 37.924c20.368 18.442 41.399 42.177 62.358 69.693 41.918 55.031 83.543 125.176 118.999 198.319s64.74 149.277 81.982 216.289Zm11.366 88.285a362 362 0 0 0 4.082-4.216q.269 2.928.484 5.8a340 340 0 0 1-3.97 4.254 391 391 0 0 0-.596-5.838Zm-15.172-77.308c7.087 27.544 12.139 53.546 14.749 77.162q-2.068 2.1-4.204 4.208c-2.78-21.818-7.535-45.525-13.959-70.495-17.25-67.043-46.545-143.204-82.01-216.366-35.464-73.16-77.102-143.329-119.04-198.387-20.97-27.529-42.017-51.283-62.408-69.746-20.389-18.462-40.132-31.641-58.494-38.007-18.361-6.366-42.025-8.235-69.465-6.356-27.443 1.879-58.677 7.508-92.186 16.15-67.018 17.283-143.152 46.62-216.29 82.13-73.138 35.508-143.294 77.191-198.34 119.17-20.498 15.638-38.913 31.313-54.597 46.731a341 341 0 0 1-.698-5.907c16.664-16.936 36.727-34.231 59.348-51.477 55.022-41.96 125.148-83.63 198.266-119.131 73.122-35.5 149.231-64.826 216.217-82.101 33.493-8.637 64.701-14.261 92.113-16.138s51.016-.006 69.305 6.334c18.29 6.341 37.986 19.482 58.355 37.925 20.368 18.441 41.398 42.176 62.357 69.692 41.919 55.032 83.544 125.176 119 198.319s64.74 149.278 81.981 216.29Zm10.609 81.874q2.132-2.1 4.197-4.194.323 2.953.593 5.855a364 364 0 0 1-4.09 4.231 419 419 0 0 0-.7-5.892Zm-14.414-70.898c6.451 25.074 11.216 48.869 13.988 70.75a412 412 0 0 1-4.313 4.185c-2.853-20.018-7.291-41.525-13.089-64.059-17.25-67.044-46.545-143.205-82.01-216.367-35.464-73.16-77.102-143.329-119.041-198.387-20.969-27.528-42.016-51.283-62.407-69.746-20.39-18.461-40.133-31.641-58.495-38.007-18.36-6.366-42.025-8.235-69.465-6.355-27.443 1.879-58.677 7.508-92.185 16.149-67.018 17.283-143.153 46.621-216.29 82.13C-4.237 310.858-74.393 352.54-129.44 394.52c-18.499 14.113-35.298 28.258-49.936 42.212q-.42-3-.792-5.953c15.72-15.473 34.192-31.212 54.781-46.913 55.021-41.96 125.148-83.63 198.266-119.131 73.122-35.499 149.23-64.826 216.217-82.1 33.493-8.638 64.701-14.261 92.112-16.139 27.413-1.877 51.016-.006 69.305 6.334 18.291 6.341 37.986 19.482 58.355 37.925 20.368 18.442 41.399 42.177 62.358 69.692 41.919 55.032 83.543 125.176 118.999 198.319s64.74 149.278 81.982 216.29Zm9.745 75.427a432 432 0 0 0 4.306-4.172q.374 2.977.698 5.907-2.068 2.1-4.205 4.208-.375-2.948-.799-5.943Zm-13.55-64.451c5.822 22.632 10.272 44.222 13.121 64.303a487 487 0 0 1-4.415 4.161c-2.849-18.157-6.942-37.463-12.121-57.588-17.249-67.045-46.544-143.205-82.009-216.366-35.464-73.161-77.102-143.329-119.041-198.387-20.97-27.529-42.017-51.284-62.408-69.747-20.389-18.461-40.132-31.641-58.494-38.007-18.361-6.365-42.025-8.234-69.465-6.355-27.443 1.879-58.677 7.508-92.186 16.149-67.018 17.283-143.152 46.621-216.29 82.13s-143.294 77.191-198.339 119.171c-16.522 12.603-31.692 25.232-45.167 37.731a592 592 0 0 1-.895-6.002c14.673-14.008 31.528-28.213 50.114-42.383 55.022-41.96 125.148-83.63 198.266-119.13 73.122-35.5 149.231-64.827 216.218-82.101 33.493-8.638 64.701-14.261 92.112-16.138 27.413-1.878 51.016-.007 69.305 6.334s37.986 19.481 58.355 37.924c20.368 18.442 41.399 42.177 62.358 69.692 41.918 55.032 83.543 125.176 118.999 198.319s64.74 149.278 81.982 216.29Zm8.781 68.946a447 447 0 0 0 4.41-4.152q.422 3.002.796 5.957a445 445 0 0 1-4.312 4.185q-.425-2.975-.894-5.99Zm-12.587-57.97c5.201 20.216 9.306 39.6 12.155 57.82a504 504 0 0 1-4.514 4.138c-2.769-16.24-6.491-33.343-11.055-51.082-17.25-67.045-46.545-143.205-82.01-216.366-35.464-73.161-77.102-143.329-119.04-198.387-20.97-27.529-42.017-51.284-62.408-69.747-20.389-18.461-40.132-31.641-58.495-38.007-18.36-6.365-42.024-8.235-69.465-6.355s-58.676 7.508-92.185 16.15c-67.018 17.283-143.152 46.62-216.29 82.129s-143.294 77.191-198.34 119.171c-14.566 11.108-28.071 22.24-40.305 33.28q-.51-3.04-.983-6.044c13.517-12.547 28.741-25.231 45.341-37.89 55.022-41.959 125.148-83.63 198.266-119.13 73.122-35.5 149.231-64.827 216.217-82.101 33.493-8.638 64.701-14.261 92.113-16.138s51.016-.007 69.304 6.334c18.291 6.341 37.987 19.481 58.356 37.924 20.368 18.442 41.398 42.177 62.357 69.693 41.919 55.031 83.544 125.175 119 198.319 35.456 73.142 64.74 149.277 81.981 216.289Zm7.721 62.43a489 489 0 0 0 4.508-4.129q.47 3.023.893 6.002a474 474 0 0 1-4.416 4.161 500 500 0 0 0-.985-6.034Zm-11.526-51.454c4.586 17.824 8.319 35.001 11.091 51.303a534 534 0 0 1-4.608 4.116c-2.619-14.271-5.941-29.168-9.897-44.544-17.25-67.043-46.545-143.204-82.01-216.365-35.464-73.161-77.102-143.329-119.041-198.387-20.97-27.529-42.016-51.284-62.408-69.747-20.389-18.461-40.132-31.64-58.494-38.006-18.36-6.366-42.024-8.236-69.465-6.357-27.443 1.88-58.677 7.509-92.185 16.151-67.018 17.283-143.153 46.62-216.29 82.129-73.138 35.509-143.294 77.192-198.34 119.171-12.625 9.628-24.452 19.274-35.344 28.862a576 576 0 0 1-1.072-6.084c12.268-11.09 25.833-22.271 40.469-33.432 55.021-41.959 125.148-83.63 198.266-119.13 73.122-35.5 149.23-64.826 216.217-82.101 33.493-8.637 64.701-14.262 92.112-16.138 27.413-1.877 51.016-.007 69.305 6.334 18.291 6.341 37.986 19.481 58.355 37.924 20.368 18.442 41.399 42.176 62.358 69.693 41.919 55.031 83.544 125.175 118.999 198.319 35.456 73.143 64.74 149.278 81.982 216.289Zm6.568 55.883a552 552 0 0 0 4.603-4.107q.513 3.042.983 6.044a490 490 0 0 1-4.514 4.138 507 507 0 0 0-1.072-6.075Zm-10.374-44.906c3.977 15.453 7.312 30.42 9.935 44.754-10.932 9.634-22.817 19.326-35.506 29.002-55.022 41.959-125.149 83.63-198.269 119.128-73.123 35.502-149.233 64.829-216.22 82.105-33.494 8.64-64.703 14.26-92.115 16.14-27.414 1.88-51.016.01-69.305-6.33s-37.985-19.48-58.353-37.925c-20.367-18.443-41.396-42.179-62.355-69.695-41.921-55.025-83.544-125.169-119-198.315-35.452-73.144-64.736-149.28-81.978-216.293-3.98-15.456-7.316-30.425-9.933-44.757 10.926-9.637 22.813-19.329 35.506-29.005 55.021-41.959 125.147-83.629 198.266-119.13 73.121-35.5 149.23-64.826 216.217-82.101 33.493-8.637 64.701-14.261 92.112-16.138 27.413-1.877 51.016-.006 69.305 6.334 18.29 6.341 37.986 19.482 58.355 37.925 20.368 18.441 41.399 42.176 62.357 69.692 41.919 55.032 83.544 125.175 119 198.318s64.74 149.279 81.981 216.291Zm-933.455-281.875c2.62 14.273 5.939 29.169 9.895 44.546C-149.326 568.677-120.026 644.84-84.562 718-49.1 791.164-7.463 861.33 34.475 916.387c20.97 27.529 42.015 51.287 62.406 69.747 20.389 18.456 40.132 31.636 58.492 38.006 18.362 6.37 42.026 8.23 69.466 6.36 27.442-1.88 58.677-7.51 92.187-16.16 67.018-17.278 143.156-46.621 216.294-82.127 73.14-35.511 143.292-77.195 198.34-119.175 12.624-9.627 24.455-19.27 35.346-28.859q.558 3.061 1.071 6.085c-12.268 11.089-25.833 22.269-40.467 33.429-55.022 41.96-125.148 83.627-198.27 119.13s-149.233 64.827-216.22 82.107c-33.493 8.64-64.703 14.26-92.115 16.14-27.414 1.88-51.016.01-69.305-6.33s-37.985-19.48-58.353-37.927C72.98 978.37 51.95 954.634 30.992 927.118c-41.918-55.033-83.542-125.177-119-198.315-35.452-73.144-64.736-149.281-81.977-216.294-4.587-17.826-8.321-35.004-11.092-51.308a673 673 0 0 1 4.608-4.115Zm-1.161-6.541q.518 3.02 1.074 6.077a602 602 0 0 0-4.604 4.106 582 582 0 0 1-.983-6.044 605 605 0 0 1 4.513-4.139Zm-4.868 4.471q.474 2.999.986 6.034a625 625 0 0 0-4.51 4.13q-.466-3.022-.895-6.003a605 605 0 0 1 4.419-4.161Zm-4.777 4.505q.43 2.975.899 5.991a603 603 0 0 0-4.415 4.149q-.42-3-.792-5.954a433 433 0 0 1 4.308-4.186Zm-3.447 10.632a584 584 0 0 1 4.419-4.16c2.846 18.157 6.944 37.466 12.118 57.591 17.248 67.045 46.549 143.207 82.011 216.371 35.464 73.157 77.102 143.323 119.037 198.388 20.97 27.528 42.018 51.279 62.41 69.737 20.386 18.47 40.128 31.65 58.489 38.02 18.361 6.36 42.025 8.23 69.468 6.34 27.442-1.87 58.675-7.5 92.187-16.15 67.018-17.28 143.153-46.616 216.294-82.129 73.138-35.505 143.29-77.191 198.338-119.17 16.525-12.602 31.69-25.231 45.167-37.73q.47 3.023.892 6.002c-14.668 14.008-31.526 28.211-50.109 42.382-55.022 41.96-125.149 83.631-198.271 119.133-73.123 35.502-149.233 64.832-216.22 82.102-33.493 8.64-64.7 14.26-92.112 16.14-27.414 1.88-51.016 0-69.305-6.34s-37.985-19.48-58.353-37.92c-20.367-18.44-41.4-42.17-62.358-69.687C-18.538 894.04-60.16 823.896-95.617 750.751c-35.452-73.144-64.737-149.277-81.979-216.29-5.827-22.635-10.272-44.224-13.126-64.308Zm-1.224-6.09q.375 2.949.797 5.942a421 421 0 0 0-4.303 4.173 330 330 0 0 1-.698-5.907 340 340 0 0 1 4.204-4.208Zm-3.442 10.62a433 433 0 0 1 4.307-4.186c2.859 20.021 7.298 41.529 13.091 64.064 17.248 67.044 46.548 143.207 82.013 216.364C-60.516 824.09-18.878 894.256 23.06 949.313c20.97 27.528 42.015 51.287 62.406 69.747 20.387 18.47 40.132 31.64 58.492 38.01 18.362 6.36 42.023 8.24 69.466 6.35 27.442-1.88 58.677-7.51 92.187-16.15 67.018-17.28 143.153-46.62 216.294-82.131 73.138-35.505 143.291-77.192 198.339-119.172 18.503-14.111 35.301-28.256 49.934-42.212q.422 3 .796 5.956c-15.721 15.471-34.192 31.21-54.78 46.91-55.022 41.96-125.15 83.633-198.272 119.135-73.12 35.494-149.233 64.834-216.217 82.094-33.493 8.64-64.703 14.27-92.115 16.15-27.414 1.87-51.016 0-69.305-6.34s-37.985-19.48-58.353-37.92c-20.367-18.44-41.396-42.18-62.358-69.689-41.918-55.033-83.541-125.177-118.997-198.323-35.452-73.144-64.737-149.278-81.979-216.291-6.451-25.076-11.217-48.872-13.986-70.754Zm-1.13-6.041c.222 1.95.449 3.911.702 5.893a426 426 0 0 0-4.199 4.194 421 421 0 0 1-.595-5.856 410 410 0 0 1 4.092-4.231Zm-3.437 10.605a340 340 0 0 1 4.204-4.208c2.775 21.818 7.536 45.529 13.956 70.498 17.248 67.044 46.548 143.209 82.012 216.366 35.462 73.164 77.1 143.33 119.037 198.388 20.97 27.528 42.015 51.289 62.406 69.749 20.389 18.46 40.132 31.64 58.492 38 18.362 6.37 42.026 8.24 69.466 6.36 27.442-1.88 58.678-7.51 92.187-16.15 67.018-17.28 143.153-46.62 216.294-82.133s143.291-77.194 198.34-119.174c20.502-15.635 38.91-31.312 54.599-46.728q.374 2.977.697 5.908c-16.668 16.932-36.73 34.228-59.347 51.475-55.021 41.959-125.15 83.633-198.269 119.128-73.123 35.504-149.233 64.834-216.22 82.104-33.493 8.64-64.703 14.27-92.115 16.14-27.414 1.88-51.015.01-69.305-6.33-18.289-6.34-37.985-19.48-58.353-37.92-20.367-18.45-41.396-42.183-62.355-69.699-41.918-55.033-83.541-125.177-119-198.315-35.452-73.144-64.736-149.28-81.978-216.293-7.091-27.547-12.143-53.55-14.748-77.166Zm-1.021-5.984q.279 2.896.594 5.836a527 527 0 0 0-4.079 4.217 403 403 0 0 1-.487-5.8 412 412 0 0 1 3.972-4.253Zm-3.439 10.586a410 410 0 0 1 4.092-4.231c2.626 23.555 7.668 49.464 14.722 76.895 17.249 67.044 46.548 143.211 82.012 216.368 35.462 73.164 77.1 143.33 119.038 198.387 20.969 27.529 42.014 51.292 62.406 69.752 20.389 18.45 40.131 31.64 58.492 38 18.361 6.37 42.025 8.23 69.465 6.36 27.445-1.89 58.678-7.51 92.187-16.15 67.018-17.29 143.156-46.63 216.294-82.136 73.141-35.513 143.292-77.196 198.34-119.175 22.523-17.176 42.52-34.403 59.159-51.279q.323 2.954.593 5.856c-17.501 18.395-39.132 37.265-63.802 56.078-55.023 41.964-125.148 83.627-198.27 119.13-73.123 35.506-149.233 64.826-216.22 82.106-33.493 8.64-64.703 14.26-92.114 16.14-27.415 1.88-51.016.01-69.306-6.33s-37.985-19.48-58.353-37.93c-20.366-18.44-41.396-42.17-62.355-69.691-41.918-55.033-83.541-125.177-119-198.315-35.452-73.144-64.736-149.281-81.977-216.294-7.73-30.048-13.043-58.259-15.403-83.541Zm-.906-5.923c.143 1.907.312 3.836.494 5.78a312 312 0 0 0-3.965 4.234l-.12-1.727q-.135-2.017-.251-4.01a465 465 0 0 1 2.68-2.995zm-3.432 10.567a412 412 0 0 1 3.972-4.255c2.374 25.219 7.679 53.33 15.375 83.251 17.248 67.045 46.549 143.205 82.011 216.37 35.464 73.156 77.1 143.33 119.038 198.387 20.969 27.524 42.017 51.284 62.406 69.744s40.131 31.64 58.492 38.01c18.361 6.36 42.025 8.23 69.465 6.35 27.445-1.88 58.678-7.51 92.187-16.15 67.021-17.29 143.156-46.62 216.294-82.128 73.141-35.513 143.292-77.194 198.341-119.176 24.567-18.736 46.129-37.532 63.607-55.866q.269 2.925.484 5.799c-18.214 19.856-41.391 40.321-68.141 60.721-55.021 41.958-125.149 83.629-198.271 119.13-73.123 35.5-149.233 64.83-216.22 82.11-33.493 8.64-64.702 14.26-92.112 16.13-27.414 1.88-51.016.01-69.305-6.33s-37.985-19.48-58.353-37.93c-20.37-18.43-41.399-42.17-62.358-69.683-41.918-55.033-83.541-125.178-118.997-198.323-35.455-73.136-64.738-149.273-81.98-216.288-8.381-32.581-13.92-63.003-15.935-89.873Zm-.562-2.253c.048.701.095 1.403.15 2.11q-.718.782-1.423 1.564c-.816.897-1.615 1.795-2.412 2.689-.1-1.908-.18-3.797-.249-5.669a371 371 0 0 1 3.705-4.299c.073 1.196.144 2.396.229 3.605Zm-3.654 6.939q1.326-1.492 2.68-2.995.582-.64 1.163-1.282c2.045 26.809 7.571 57.121 15.915 89.563 17.247 67.047 46.549 143.207 82.011 216.371 35.464 73.157 77.101 143.323 119.037 198.388 20.969 27.526 42.017 51.276 62.409 69.736 20.386 18.47 40.131 31.64 58.491 38.01 18.362 6.36 42.023 8.24 69.466 6.35 27.442-1.87 58.675-7.5 92.187-16.15 67.018-17.28 143.154-46.61 216.294-82.13 73.139-35.503 143.292-77.191 198.339-119.169 26.637-20.313 49.742-40.699 67.937-60.49q.064.869.123 1.73.137 2.018.247 4.008a336 336 0 0 1-2.675 2.994c-18.441 20.384-42.172 41.434-69.683 62.413-55.021 41.959-125.149 83.631-198.271 119.134-73.123 35.5-149.232 64.83-216.22 82.11-33.493 8.63-64.7 14.25-92.112 16.13-27.414 1.88-51.015.01-69.305-6.33-18.289-6.35-37.985-19.48-58.353-37.93-20.367-18.44-41.399-42.17-62.358-69.69-41.918-55.029-83.541-125.173-118.997-198.318-35.452-73.144-64.736-149.281-81.979-216.29-8.625-33.508-14.228-64.728-16.094-92.153q-.135-2.018-.252-4.01Zm-.663-5.783q.097 2.79.251 5.64a293 293 0 0 0-3.688 4.274 290 290 0 0 1-.129-5.598 291 291 0 0 1 3.566-4.316Zm-3.423 10.514a379 379 0 0 1 3.705-4.299c.074 1.195.145 2.396.23 3.606 1.864 27.455 7.483 58.703 16.103 92.225 17.247 67.048 46.549 143.207 82.013 216.364 35.462 73.165 77.1 143.331 119.037 198.384 20.97 27.53 42.015 51.29 62.407 69.75 20.389 18.46 40.131 31.64 58.492 38.01 18.361 6.36 42.025 8.23 69.465 6.35 27.442-1.87 58.678-7.51 92.187-16.15 67.018-17.28 143.154-46.62 216.294-82.13 73.139-35.505 143.292-77.194 198.339-119.173 27.524-20.989 51.276-42.055 69.738-62.463q1.218-1.347 2.406-2.691.153 2.865.249 5.671a305 305 0 0 1-6.76 7.725c-18.441 20.384-42.172 41.433-69.683 62.413-55.022 41.961-125.149 83.633-198.272 119.138-73.12 35.49-149.23 64.82-216.217 82.1-33.493 8.63-64.703 14.26-92.114 16.14-27.415 1.88-51.016 0-69.306-6.34s-37.985-19.48-58.353-37.92c-20.366-18.44-41.396-42.18-62.355-69.7-41.92-55.021-83.544-125.165-119-198.31-35.452-73.145-64.735-149.281-81.978-216.292-8.625-33.508-14.229-64.728-16.095-92.152-.238-3.481-.412-6.9-.532-10.256Zm-.537-5.701q.033 2.748.133 5.561a231 231 0 0 0-3.547 4.285q-.021-2.787.012-5.511a272 272 0 0 1 3.402-4.335Zm-3.411 10.48a280 280 0 0 1 3.566-4.317c.108 3.214.281 6.489.511 9.821 1.864 27.455 7.484 58.704 16.104 92.225 17.249 67.042 46.548 143.209 82.013 216.366C-83.349 889.948-41.711 960.115.228 1015.17c20.969 27.53 42.014 51.29 62.406 69.75 20.389 18.46 40.131 31.64 58.492 38 18.361 6.37 42.025 8.24 69.466 6.36 27.442-1.88 58.677-7.51 92.186-16.15 67.018-17.28 143.154-46.62 216.294-82.13 73.141-35.515 143.292-77.196 198.34-119.177 27.524-20.989 51.275-42.055 69.737-62.463a303 303 0 0 0 6.481-7.395q.091 2.83.123 5.596a292 292 0 0 1-10.708 12.504c-18.441 20.384-42.172 41.433-69.683 62.414-55.023 41.962-125.15 83.631-198.27 119.131-73.123 35.5-149.232 64.83-216.22 82.1-33.493 8.64-64.702 14.27-92.114 16.14-27.414 1.88-51.016.01-69.306-6.33s-37.985-19.48-58.353-37.92c-20.366-18.45-41.396-42.18-62.355-69.7-41.918-55.031-83.541-125.175-119-198.313-35.452-73.144-64.735-149.28-81.977-216.293-8.625-33.508-14.229-64.728-16.095-92.152a295 295 0 0 1-.675-16.453Zm-.4-5.607a226 226 0 0 0-.005 5.466 221 221 0 0 0-3.379 4.297q.042-2.744.15-5.416a217 217 0 0 1 3.234-4.347Zm-3.396 10.438q1.66-2.16 3.401-4.335c.072 5.17.293 10.501.667 15.984 1.864 27.455 7.483 58.704 16.104 92.225 17.248 67.044 46.547 143.211 82.012 216.368 35.46 73.164 77.099 143.33 119.037 198.388 20.969 27.53 42.017 51.28 62.406 69.75 20.389 18.46 40.131 31.64 58.492 38 18.361 6.37 42.025 8.24 69.466 6.36 27.444-1.89 58.677-7.51 92.187-16.15 67.017-17.29 143.156-46.63 216.293-82.13 73.142-35.52 143.292-77.198 198.341-119.18 27.524-20.99 51.275-42.056 69.737-62.464a293 293 0 0 0 10.415-12.141q.026 2.788-.012 5.512c-4.377 5.711-9.225 11.495-14.508 17.334-18.441 20.385-42.172 41.434-69.682 62.412-55.021 41.958-125.149 83.627-198.271 119.127-73.123 35.51-149.232 64.83-216.22 82.11-33.493 8.64-64.702 14.26-92.114 16.14-27.414 1.88-51.016.01-69.306-6.33-18.288-6.34-37.985-19.48-58.353-37.93-20.366-18.44-41.396-42.17-62.355-69.69-41.918-55.033-83.541-125.177-118.997-198.323-35.455-73.136-64.738-149.273-81.981-216.283-8.624-33.511-14.227-64.732-16.093-92.156-.535-7.857-.766-15.403-.666-22.598Zm-.266-5.499a258 258 0 0 0-.139 5.359 256 256 0 0 0-3.208 4.295q.121-2.686.307-5.301 1.472-2.168 3.04-4.353Zm-3.378 10.384a214 214 0 0 1 3.235-4.346c-.082 7.043.149 14.418.672 22.086 1.864 27.455 7.483 58.704 16.104 92.224 17.247 67.046 46.549 143.206 82.011 216.371 35.464 73.156 77.099 143.33 119.037 198.39 20.969 27.53 42.017 51.28 62.406 69.74s40.131 31.64 58.492 38.01 42.025 8.23 69.466 6.36c27.444-1.89 58.677-7.51 92.187-16.16 67.02-17.29 143.156-46.62 216.293-82.13 73.142-35.51 143.292-77.191 198.341-119.173 27.524-20.991 51.276-42.057 69.738-62.464 5.156-5.7 9.899-11.348 14.198-16.931q-.045 2.743-.153 5.416c-5.281 7.29-11.356 14.709-18.15 22.219-18.441 20.385-42.172 41.434-69.683 62.414-55.021 41.958-125.148 83.629-198.271 119.129s-149.232 64.83-216.22 82.11c-33.493 8.64-64.702 14.26-92.111 16.13-27.415 1.88-51.016.01-69.306-6.33s-37.985-19.48-58.353-37.93c-20.37-18.43-41.399-42.17-62.357-69.68-41.919-55.035-83.542-125.179-118.998-198.325-35.454-73.136-64.738-149.273-81.978-216.291-8.626-33.505-14.23-64.725-16.096-92.15-.687-10.105-.869-19.694-.504-28.689Zm-.115-5.366c-.117 1.72-.208 3.463-.282 5.228a197 197 0 0 0-3.014 4.281q.191-2.623.457-5.167 1.366-2.164 2.839-4.342Zm-3.352 10.312c.98-1.447 1.996-2.897 3.04-4.354-.336 8.837-.148 18.235.528 28.124 1.864 27.455 7.484 58.704 16.104 92.225 17.247 67.047 46.549 143.207 82.011 216.371C-94.763 922.874-53.126 993.04-11.19 1048.1c20.969 27.53 42.017 51.28 62.409 69.74 20.386 18.47 40.131 31.64 58.492 38.01s42.022 8.24 69.466 6.36c27.442-1.88 58.677-7.51 92.186-16.16 67.018-17.28 143.154-46.61 216.294-82.13 73.139-35.5 143.292-77.19 198.338-119.165 27.525-20.992 51.276-42.059 69.738-62.466 6.649-7.35 12.613-14.615 17.82-21.761a202 202 0 0 1-.302 5.302c-6.032 8.871-13.286 17.948-21.623 27.164-18.44 20.384-42.171 41.432-69.683 62.415-55.021 41.957-125.148 83.631-198.271 119.131s-149.232 64.83-216.219 82.11c-33.491 8.63-64.7 14.25-92.112 16.13-27.414 1.88-51.016.01-69.306-6.33s-37.985-19.48-58.353-37.93c-20.366-18.44-41.399-42.17-62.357-69.68-41.919-55.04-83.542-125.182-118.998-198.327-35.452-73.144-64.735-149.281-81.978-216.291-8.624-33.511-14.229-64.728-16.095-92.152-.849-12.4-.925-24.019-.166-34.719Zm.032-5.2a183 183 0 0 0-.429 5.062 178 178 0 0 0-2.796 4.242c.184-1.691.386-3.359.62-4.996.83-1.432 1.704-2.866 2.605-4.308Zm-3.324 10.206q1.365-2.163 2.839-4.342c-.702 10.535-.611 21.938.216 34.083 1.864 27.454 7.484 58.7 16.103 92.226 17.25 67.039 46.549 143.206 82.014 216.363 35.46 73.165 77.099 143.333 119.037 198.393 20.969 27.52 42.015 51.28 62.406 69.74 20.389 18.46 40.131 31.64 58.492 38.01 18.361 6.36 42.025 8.23 69.466 6.35 27.442-1.87 58.677-7.51 92.187-16.15 67.017-17.28 143.153-46.62 216.293-82.13 73.139-35.5 143.292-77.193 198.341-119.175 27.523-20.987 51.274-42.053 69.736-62.46 8.165-9.026 15.298-17.925 21.265-26.633a183 183 0 0 1-.459 5.167c-6.617 10.452-14.999 21.214-24.911 32.171-18.441 20.384-42.172 41.434-69.684 62.417-55.021 41.953-125.148 83.633-198.27 119.133-73.121 35.49-149.23 64.82-216.218 82.1-33.493 8.63-64.702 14.26-92.114 16.14-27.414 1.88-51.016 0-69.306-6.34s-37.985-19.48-58.353-37.92c-20.366-18.44-41.396-42.18-62.354-69.69-41.921-55.03-83.545-125.174-119-198.319-35.453-73.144-64.736-149.281-81.979-216.292-8.624-33.51-14.228-64.729-16.094-92.153-1.004-14.742-.926-28.383.347-40.689Zm.185-4.975a142 142 0 0 0-.575 4.84 143 143 0 0 0-2.544 4.157q.354-2.424.781-4.768a135 135 0 0 1 2.338-4.229Zm-3.271 10.053c.83-1.432 1.703-2.866 2.605-4.308-1.201 12.122-1.251 25.512-.269 39.947 1.864 27.454 7.484 58.702 16.102 92.228 17.25 67.039 46.549 143.206 82.014 216.363C-102.375 944.83-60.737 1015-18.799 1070.05c20.969 27.53 42.015 51.29 62.406 69.75 20.389 18.46 40.131 31.64 58.492 38.01 18.361 6.36 42.025 8.23 69.466 6.35 27.442-1.88 58.677-7.51 92.187-16.15 67.017-17.28 143.156-46.63 216.293-82.13 73.142-35.51 143.292-77.19 198.341-119.177 27.523-20.987 51.275-42.055 69.737-62.462 9.705-10.728 17.951-21.277 24.515-31.54q-.275 2.538-.62 4.996c-7.02 12.033-16.475 24.509-28 37.249-18.441 20.384-42.173 41.436-69.682 62.411-55.024 41.963-125.151 83.633-198.271 119.133-73.123 35.5-149.232 64.83-216.22 82.1-33.493 8.64-64.702 14.27-92.114 16.15-27.414 1.87-51.016 0-69.305-6.34s-37.986-19.48-58.354-37.92c-20.366-18.45-41.396-42.18-62.354-69.7-41.919-55.03-83.542-125.174-119-198.312-35.452-73.144-64.736-149.28-81.979-216.291-8.624-33.51-14.228-64.73-16.093-92.155-1.165-17.139-.869-32.791 1.066-46.587Zm.31-4.644a137 137 0 0 0-.699 4.509 135 135 0 0 0-2.242 3.974q.436-2.251.936-4.427a132 132 0 0 1 2.005-4.056Zm-3.182 9.796a135 135 0 0 1 2.338-4.229c-1.822 13.592-2.079 28.937-.936 45.692 1.864 27.455 7.484 58.704 16.105 92.222 17.247 67.047 46.549 143.206 82.011 216.371 35.461 73.164 77.099 143.327 119.037 198.387 20.97 27.53 42.017 51.28 62.406 69.75 20.39 18.46 40.132 31.64 58.492 38 18.361 6.37 42.025 8.24 69.466 6.36 27.445-1.89 58.677-7.51 92.187-16.15 67.018-17.29 143.156-46.63 216.294-82.13 73.141-35.52 143.291-77.2 198.34-119.179 27.523-20.987 51.275-42.057 69.738-62.464 11.264-12.452 20.563-24.662 27.548-36.463a144 144 0 0 1-.783 4.767c-7.219 13.61-17.692 27.833-30.871 42.401-18.44 20.385-42.173 41.437-69.682 62.412-55.021 41.956-125.148 83.626-198.271 119.136-73.122 35.5-149.232 64.83-216.219 82.1-33.494 8.64-64.703 14.27-92.115 16.14s-51.016.01-69.305-6.33-37.985-19.48-58.354-37.92c-20.366-18.45-41.395-42.18-62.354-69.7-41.918-55.03-83.542-125.176-118.998-198.321-35.454-73.137-64.738-149.274-81.978-216.292-8.627-33.503-14.229-64.726-16.096-92.149-1.337-19.6-.758-37.254 2-52.411Zm.382-4.04a148 148 0 0 0-.772 3.905 147 147 0 0 0-1.81 3.544q.483-1.942 1.009-3.822a139 139 0 0 1 1.573-3.627Zm-3.01 9.276a130 130 0 0 1 2.005-4.056c-2.565 14.921-3.083 32.176-1.78 51.259 1.865 27.452 7.483 58.706 16.104 92.224 17.248 67.046 46.549 143.206 82.011 216.371 35.464 73.156 77.099 143.329 119.037 198.389 20.97 27.53 42.018 51.28 62.406 69.75 20.39 18.45 40.132 31.64 58.492 38 18.362 6.37 42.026 8.23 69.466 6.36 27.445-1.89 58.677-7.51 92.187-16.15 67.02-17.29 143.156-46.63 216.294-82.14 73.141-35.51 143.294-77.2 198.34-119.172 27.526-20.994 51.276-42.058 69.738-62.465 12.831-14.182 23.111-28.052 30.326-41.36a128 128 0 0 1-.93 4.428c-7.193 15.183-18.622 31.19-33.501 47.637-18.441 20.386-42.171 41.432-69.683 62.414-55.021 41.958-125.148 83.628-198.27 119.128-73.123 35.51-149.233 64.83-216.22 82.11-33.494 8.64-64.703 14.26-92.112 16.13-27.414 1.88-51.016.01-69.306-6.33-18.288-6.34-37.985-19.48-58.353-37.92s-41.398-42.18-62.357-69.69c-41.918-55.03-83.542-125.178-118.997-198.324-35.453-73.144-64.739-149.273-81.979-216.291-8.626-33.503-14.229-64.726-16.095-92.15-1.505-22.128-.576-41.776 3.177-58.152Zm.142-2.359c-.178.736-.358 1.477-.531 2.224-.327.695-.644 1.388-.96 2.076a107 107 0 0 1 1.491-4.3Zm-2.511 7.686a141 141 0 0 1 1.574-3.626c-3.431 16.062-4.242 35.127-2.785 56.478 1.864 27.453 7.482 58.707 16.103 92.226 17.248 67.046 46.549 143.206 82.011 216.37 35.464 73.157 77.102 143.322 119.04 198.382 20.966 27.53 42.015 51.28 62.406 69.75 20.386 18.46 40.131 31.64 58.492 38 18.361 6.37 42.023 8.24 69.466 6.36s58.677-7.51 92.187-16.15c67.017-17.29 143.153-46.62 216.293-82.14 73.139-35.5 143.292-77.19 198.338-119.164 27.526-20.995 51.276-42.058 69.739-62.467 14.355-15.868 25.518-31.345 32.768-46.082q-.477 1.943-1.009 3.822c-6.913 16.747-19.233 34.582-35.863 52.963-18.443 20.39-42.173 41.435-69.685 62.418-55.021 41.96-125.148 83.63-198.27 119.13s-149.233 64.83-216.217 82.1c-33.494 8.64-64.703 14.26-92.115 16.14-27.414 1.88-51.016.01-69.306-6.33-18.288-6.34-37.985-19.48-58.353-37.93-20.366-18.44-41.398-42.17-62.357-69.68-41.918-55.04-83.541-125.181-118.997-198.326-35.452-73.144-64.736-149.281-81.979-216.291-8.624-33.511-14.229-64.726-16.096-92.148-1.685-24.739-.317-46.371 4.615-63.805Zm-2.062 5.432q.37-1.067.768-2.142c-4.209 16.876-5.299 37.361-3.722 60.538 1.863 27.455 7.484 58.702 16.102 92.227 17.25 67.039 46.549 143.207 82.014 216.364 35.461 73.164 77.099 143.331 119.037 198.391 20.97 27.52 42.015 51.28 62.406 69.74s40.132 31.64 58.492 38.01c18.362 6.36 42.025 8.23 69.466 6.35 27.442-1.87 58.677-7.51 92.187-16.15 67.018-17.28 143.153-46.61 216.294-82.13 73.138-35.5 143.291-77.19 198.34-119.17 27.523-20.991 51.274-42.055 69.736-62.463 15.585-17.228 27.407-33.993 34.544-49.852a96 96 0 0 1-.72 2.159c-6.345 18.301-19.486 38.01-37.928 58.396-18.44 20.382-42.173 41.44-69.685 62.42-55.02 41.96-125.148 83.63-198.27 119.13-73.12 35.49-149.23 64.82-216.217 82.1-33.494 8.64-64.703 14.26-92.115 16.14-27.414 1.88-51.016.01-69.305-6.33-18.29-6.35-37.985-19.49-58.353-37.93-20.367-18.44-41.396-42.18-62.355-69.69-41.921-55.03-83.544-125.173-119-198.318-35.452-73.144-64.736-149.281-81.979-216.292-8.624-33.51-14.229-64.725-16.093-92.155-1.866-27.425.011-51.041 6.356-69.343ZM770.53 889.478a94 94 0 0 1-.77 2.141q.274-1.102.532-2.224a119 119 0 0 0 .958-2.076 96 96 0 0 1-.72 2.159Zm1.741-5.544a111 111 0 0 1-1.573 3.626q.41-1.923.771-3.905a135 135 0 0 0 1.811-3.544 112 112 0 0 1-1.009 3.823Zm1.442-5.648a128 128 0 0 1-2.011 4.054q.382-2.22.705-4.508a145 145 0 0 0 2.236-3.976 128 128 0 0 1-.93 4.43Zm1.175-5.74a144 144 0 0 1-2.336 4.228q.32-2.384.574-4.839 1.32-2.087 2.545-4.157a145 145 0 0 1-.783 4.768Zm.935-5.824a163 163 0 0 1-2.605 4.308q.246-2.496.428-5.063a183 183 0 0 0 2.798-4.242 162 162 0 0 1-.621 4.997Zm.716-5.899a181 181 0 0 1-2.837 4.341q.171-2.579.281-5.228a206 206 0 0 0 3.015-4.28q-.195 2.62-.459 5.167Zm.517-5.969a200 200 0 0 1-3.045 4.352q.1-2.647.138-5.36 1.65-2.155 3.209-4.294-.117 2.685-.302 5.302Zm.333-6.032a223 223 0 0 1-3.231 4.347q.03-2.702 0-5.467a244 244 0 0 0 3.384-4.295q-.043 2.741-.153 5.415Zm.164-6.091a257 257 0 0 1-3.402 4.335 271 271 0 0 0-.132-5.56 271 271 0 0 0 3.546-4.287q.024 2.788-.012 5.512Zm.005-6.146a273 273 0 0 1-3.559 4.318 293 293 0 0 0-.257-5.641 299 299 0 0 0 3.694-4.273q.09 2.83.122 5.596Zm-.142-6.197a290 290 0 0 1-3.706 4.298 309 309 0 0 0-.375-5.713q.718-.784 1.425-1.565 1.22-1.348 2.407-2.691.153 2.865.249 5.671Zm-2.956-3.251q-.58.64-1.166 1.283a362 362 0 0 0-.489-5.779 354 354 0 0 0 3.961-4.236q.063.869.122 1.731.137 2.017.247 4.007a308 308 0 0 1-2.675 2.994Zm2.264-9.284a348 348 0 0 1-3.969 4.254 378 378 0 0 0-.597-5.838 379 379 0 0 0 4.082-4.216q.269 2.928.484 5.8Zm-.533-6.333a390 390 0 0 1-4.09 4.231 405 405 0 0 0-.701-5.892 396 396 0 0 0 4.198-4.195q.321 2.954.593 5.856Zm-.65-6.373q-2.068 2.1-4.205 4.208-.376-2.95-.799-5.943a432 432 0 0 0 4.306-4.173q.374 2.978.698 5.908Zm-.761-6.412a445 445 0 0 1-4.313 4.185q-.423-2.974-.894-5.99a473 473 0 0 0 4.41-4.151q.423 3 .797 5.956Zm-.867-6.448a449 449 0 0 1-4.415 4.161 490 490 0 0 0-.985-6.033 504 504 0 0 0 4.508-4.129q.47 3.021.892 6.001Zm-46.058 31.728c14.565-11.108 28.074-22.237 40.302-33.28q.514 3.044.984 6.045c-13.515 12.548-28.738 25.231-45.337 37.889-55.021 41.96-125.148 83.629-198.27 119.132s-149.233 64.829-216.22 82.109c-33.493 8.63-64.703 14.26-92.112 16.13-27.414 1.88-51.018.01-69.308-6.33-18.289-6.34-37.982-19.48-58.35-37.93-20.37-18.433-41.4-42.168-62.358-69.685-41.918-55.033-83.541-125.177-118.997-198.322-35.455-73.136-64.738-149.275-81.98-216.288-5.202-20.218-9.308-39.603-12.158-57.825a606 606 0 0 1 4.514-4.139c2.774 16.244 6.491 33.346 11.056 51.087 17.248 67.045 46.549 143.205 82.011 216.37 35.464 73.156 77.1 143.33 119.037 198.387 20.97 27.529 42.018 51.279 62.406 69.747 20.389 18.458 40.132 31.638 58.492 38.008 18.362 6.36 42.026 8.23 69.466 6.35 27.445-1.88 58.677-7.51 92.187-16.15 67.018-17.28 143.156-46.623 216.294-82.129 73.141-35.513 143.293-77.197 198.341-119.176Zm46.417-32.071q-.423-2.975-.894-5.99a473 473 0 0 0 4.41-4.151q.423 3 .797 5.956a445 445 0 0 1-4.313 4.185Zm4.675-4.542q-.376-2.95-.799-5.942a455 455 0 0 0 4.306-4.173q.373 2.977.697 5.907-2.068 2.1-4.204 4.208Zm4.57-4.58a405 405 0 0 0-.701-5.892q2.133-2.1 4.197-4.194.323 2.953.594 5.855a372 372 0 0 1-4.09 4.231Zm4.459-4.619a378 378 0 0 0-.597-5.839 379 379 0 0 0 4.083-4.215q.268 2.927.484 5.799a355 355 0 0 1-3.97 4.255Zm4.344-4.664a341 341 0 0 0-.489-5.779 339 339 0 0 0 3.961-4.236q.064.868.122 1.731.138 2.016.248 4.007a321 321 0 0 1-3.842 4.277Zm3.998-8.312q-.072-1.052-.151-2.111.717-.783 1.425-1.565a318 318 0 0 0 2.406-2.69q.154 2.865.25 5.669a290 290 0 0 1-3.706 4.3 311 311 0 0 0-.224-3.603Zm4.318-1.156a302 302 0 0 0-.256-5.643 294 294 0 0 0 3.693-4.272q.091 2.829.122 5.595a268 268 0 0 1-3.559 4.32Zm3.957-4.815a271 271 0 0 0-.131-5.56 272 272 0 0 0 3.545-4.286q.026 2.789-.012 5.511a240 240 0 0 1-3.402 4.335Zm3.813-4.873q.03-2.701 0-5.467a250 250 0 0 0 3.385-4.295 221 221 0 0 1-.154 5.415 220 220 0 0 1-3.231 4.347Zm3.659-4.939q.1-2.647.138-5.36a232 232 0 0 0 3.209-4.294q-.119 2.687-.302 5.302a201 201 0 0 1-3.045 4.352Zm3.495-5.018q.173-2.58.281-5.228a207 207 0 0 0 3.016-4.281 185 185 0 0 1-.459 5.167 182 182 0 0 1-2.838 4.342Zm3.322-5.11q.246-2.496.428-5.063a186 186 0 0 0 2.798-4.242 162 162 0 0 1-.621 4.996 161 161 0 0 1-2.605 4.309Zm3.139-5.232q.32-2.383.574-4.84a165 165 0 0 0 2.545-4.156 147 147 0 0 1-.782 4.767 145 145 0 0 1-2.337 4.229Zm2.956-5.41q.382-2.22.704-4.508 1.163-1.996 2.237-3.976a128 128 0 0 1-.93 4.43 130 130 0 0 1-2.011 4.054Zm2.801-5.756q.41-1.925.771-3.905a134 134 0 0 0 1.811-3.545q-.477 1.944-1.009 3.823a113 113 0 0 1-1.573 3.627Zm2.867-6.918q.274-1.102.532-2.223.492-1.042.959-2.077a96 96 0 0 1-1.491 4.3Zm-3.273 8.753q.493-1.041.958-2.077a96 96 0 0 1-1.491 4.301q.276-1.102.533-2.224Zm-.817 1.692q-.477 1.944-1.009 3.823a113 113 0 0 1-1.574 3.626q.41-1.923.772-3.904a137 137 0 0 0 1.811-3.545Zm-2.442 4.721a128 128 0 0 1-.931 4.429 125 125 0 0 1-2.011 4.055q.382-2.22.705-4.508a148 148 0 0 0 2.237-3.976Zm-3.175 9.799a131 131 0 0 0 1.812-3.544 114 114 0 0 1-1.009 3.822 113 113 0 0 1-1.574 3.627q.411-1.923.771-3.905Zm.397-4.901a144 144 0 0 1-.783 4.767 143 143 0 0 1-2.336 4.23q.32-2.385.574-4.841a165 165 0 0 0 2.545-4.156Zm-3.264 10.054q1.163-1.995 2.236-3.975a128 128 0 0 1-.93 4.428 127 127 0 0 1-2.011 4.055q.383-2.22.705-4.508Zm.231-5.131a166 166 0 0 1-.62 4.997 164 164 0 0 1-2.606 4.309q.247-2.497.429-5.064a183 183 0 0 0 2.797-4.242Zm-3.317 10.209q1.319-2.086 2.545-4.157a144 144 0 0 1-.783 4.768 145 145 0 0 1-2.337 4.23q.319-2.384.575-4.841Zm.066-5.302q-.195 2.622-.458 5.166a182 182 0 0 1-2.838 4.343q.172-2.58.281-5.229a203 203 0 0 0 3.015-4.28Zm-3.351 10.311a188 188 0 0 0 2.797-4.241 162 162 0 0 1-.621 4.996 163 163 0 0 1-2.605 4.308q.246-2.496.429-5.063Zm-.093-5.439a202 202 0 0 1-.303 5.302 201 201 0 0 1-3.044 4.352q.099-2.646.138-5.36a229 229 0 0 0 3.209-4.294Zm-3.376 10.384a201 201 0 0 0 3.015-4.28q-.195 2.621-.459 5.167a178 178 0 0 1-2.838 4.342q.173-2.58.282-5.229Zm-.246-5.553q-.045 2.743-.153 5.415a223 223 0 0 1-3.231 4.348q.03-2.702 0-5.468a245 245 0 0 0 3.384-4.295Zm-3.393 10.44q1.65-2.154 3.209-4.295a201 201 0 0 1-.302 5.302 201 201 0 0 1-3.045 4.352q.1-2.647.138-5.359Zm-.39-5.651q.024 2.789-.012 5.511a243 243 0 0 1-3.402 4.336 271 271 0 0 0-.131-5.561 272 272 0 0 0 3.545-4.286Zm-3.406 10.482a249 249 0 0 0 3.384-4.294q-.045 2.74-.153 5.414a220 220 0 0 1-3.232 4.348q.03-2.702.001-5.468Zm-.528-5.736q.09 2.829.122 5.595a269 269 0 0 1-3.559 4.319 293 293 0 0 0-.257-5.641 299 299 0 0 0 3.694-4.273Zm-3.416 10.516a266 266 0 0 0 3.544-4.286 246 246 0 0 1-.011 5.511 249 249 0 0 1-3.402 4.336 279 279 0 0 0-.131-5.561Zm-.659-5.811q.154 2.863.249 5.67a289 289 0 0 1-3.705 4.298 335 335 0 0 0-.375-5.713q.717-.783 1.425-1.565 1.218-1.347 2.406-2.69Zm-3.424 10.544a298 298 0 0 0 3.693-4.272q.091 2.828.123 5.595a268 268 0 0 1-3.56 4.318 293 293 0 0 0-.256-5.641Zm-.66-4.15q.138 2.018.248 4.007a336 336 0 0 1-3.842 4.277 351 351 0 0 0-.489-5.779 354 354 0 0 0 3.961-4.235q.063.867.122 1.73Zm-3.553 8.837q.718-.783 1.425-1.565 1.22-1.347 2.407-2.69.153 2.864.249 5.67a296 296 0 0 1-3.705 4.299 331 331 0 0 0-.376-5.714Zm-.9-5.943q.269 2.927.485 5.799a364 364 0 0 1-3.97 4.255q-.273-2.895-.597-5.838a388 388 0 0 0 4.082-4.216Zm-3.435 10.588a346 346 0 0 0 3.96-4.236q.064.867.123 1.73.137 2.018.247 4.007a296 296 0 0 1-3.841 4.277 363 363 0 0 0-.489-5.778Zm-1.013-6.001q.323 2.953.593 5.855a372 372 0 0 1-4.09 4.232q-.325-2.923-.7-5.893 2.133-2.1 4.197-4.194Zm-3.44 10.605a379 379 0 0 0 4.083-4.216q.269 2.926.484 5.799a347 347 0 0 1-3.97 4.255q-.272-2.895-.597-5.838Zm-1.119-6.054q.373 2.978.697 5.907-2.067 2.101-4.204 4.208a432 432 0 0 0-.8-5.942 444 444 0 0 0 4.307-4.173Zm-3.444 10.62a415 415 0 0 0 4.198-4.195q.322 2.954.593 5.856a389 389 0 0 1-4.09 4.231 405 405 0 0 0-.701-5.892Zm1.355 12.248q-.273-2.895-.597-5.838a370 370 0 0 0 4.083-4.216q.268 2.926.484 5.799a348 348 0 0 1-3.97 4.255Zm4.344-4.664a341 341 0 0 0-.489-5.778 346 346 0 0 0 3.961-4.236q.064.867.122 1.731.137 2.016.248 4.006a336 336 0 0 1-3.842 4.277Zm3.998-8.311q-.072-1.052-.151-2.112.718-.783 1.425-1.565 1.219-1.346 2.406-2.69.154 2.864.25 5.67a290 290 0 0 1-3.706 4.299 309 309 0 0 0-.224-3.602Zm4.318-1.158q-.1-2.79-.256-5.641a299 299 0 0 0 3.693-4.272q.091 2.828.122 5.595a268 268 0 0 1-3.559 4.318Zm3.957-4.813a271 271 0 0 0-.131-5.56 277 277 0 0 0 3.545-4.286q.025 2.789-.012 5.511a247 247 0 0 1-3.402 4.335Zm3.813-4.873q.03-2.703 0-5.468a254 254 0 0 0 3.385-4.294q-.045 2.742-.154 5.414a220 220 0 0 1-3.231 4.348Zm3.659-4.94q.099-2.647.138-5.359a229 229 0 0 0 3.209-4.295q-.119 2.687-.302 5.303a206 206 0 0 1-3.045 4.351Zm3.495-5.017q.173-2.58.281-5.228a207 207 0 0 0 3.016-4.281q-.197 2.621-.459 5.167a182 182 0 0 1-2.838 4.342Zm3.322-5.111q.246-2.495.428-5.063a185 185 0 0 0 2.798-4.241 162 162 0 0 1-.621 4.996 163 163 0 0 1-2.605 4.308Zm3.139-5.231q.32-2.385.574-4.84 1.32-2.086 2.545-4.158a144 144 0 0 1-.782 4.768 145 145 0 0 1-2.337 4.23Zm2.956-5.411q.382-2.219.704-4.507a148 148 0 0 0 2.237-3.976 128 128 0 0 1-.93 4.429 128 128 0 0 1-2.011 4.054Zm2.801-5.756q.41-1.923.771-3.905a132 132 0 0 0 1.811-3.544q-.477 1.943-1.009 3.822a112 112 0 0 1-1.573 3.627Zm2.867-6.917q.274-1.101.532-2.225.492-1.04.959-2.075-.351 1.091-.72 2.158a97 97 0 0 1-.771 2.142Zm3.805-10.976q.275-1.102.532-2.225.493-1.04.959-2.076a94 94 0 0 1-1.491 4.301Zm-7.078 19.728a119 119 0 0 0 .958-2.076 94 94 0 0 1-1.491 4.3q.275-1.101.533-2.224Zm-.817 1.692a113 113 0 0 1-1.009 3.822 110 110 0 0 1-1.574 3.627q.41-1.923.772-3.905a132 132 0 0 0 1.811-3.544Zm-2.442 4.722a130 130 0 0 1-.931 4.429 127 127 0 0 1-2.01 4.054q.381-2.219.704-4.507 1.163-1.995 2.237-3.976Zm-3.175 9.799a132 132 0 0 0 1.812-3.545 113 113 0 0 1-1.009 3.823 114 114 0 0 1-1.574 3.627q.411-1.925.771-3.905Zm.397-4.902a145 145 0 0 1-.783 4.768 144 144 0 0 1-2.336 4.229q.319-2.384.574-4.84 1.32-2.087 2.545-4.157Zm-3.264 10.055a149 149 0 0 0 2.236-3.976 128 128 0 0 1-.93 4.429 127 127 0 0 1-2.011 4.054q.382-2.218.705-4.507Zm.231-5.131a166 166 0 0 1-.62 4.996 161 161 0 0 1-2.606 4.308q.247-2.495.429-5.062a185 185 0 0 0 2.797-4.242Zm-3.317 10.209a168 168 0 0 0 2.545-4.157 144 144 0 0 1-.783 4.768 144 144 0 0 1-2.337 4.229q.32-2.384.575-4.84Zm.066-5.303q-.195 2.621-.458 5.167a182 182 0 0 1-2.838 4.342q.172-2.58.281-5.228a203 203 0 0 0 3.015-4.281Zm-3.352 10.312a183 183 0 0 0 2.798-4.242 162 162 0 0 1-.621 4.996 163 163 0 0 1-2.605 4.309q.246-2.496.428-5.063Zm-.093-5.44q-.117 2.688-.302 5.303a204 204 0 0 1-3.044 4.351q.1-2.647.137-5.359 1.65-2.154 3.209-4.295Zm-3.375 10.385a201 201 0 0 0 3.015-4.281q-.195 2.622-.459 5.167a179 179 0 0 1-2.838 4.342q.172-2.58.282-5.228Zm-.246-5.553a221 221 0 0 1-.153 5.415 220 220 0 0 1-3.231 4.347q.03-2.702 0-5.468a245 245 0 0 0 3.384-4.294Zm-3.393 10.439q1.65-2.154 3.209-4.294a202 202 0 0 1-.302 5.302 204 204 0 0 1-3.045 4.352q.1-2.647.138-5.36Zm-.39-5.65q.024 2.789-.012 5.511a243 243 0 0 1-3.402 4.335 271 271 0 0 0-.131-5.56 277 277 0 0 0 3.545-4.286Zm-3.406 10.482a254 254 0 0 0 3.384-4.295 226 226 0 0 1-.153 5.415 227 227 0 0 1-3.232 4.348q.03-2.702.001-5.468Zm-.528-5.737q.09 2.83.122 5.596a269 269 0 0 1-3.559 4.319 294 294 0 0 0-.257-5.642 294 294 0 0 0 3.694-4.273Zm-3.416 10.517a276 276 0 0 0 3.544-4.286q.025 2.787-.011 5.511a257 257 0 0 1-3.402 4.336 278 278 0 0 0-.131-5.561Zm-.659-5.812q.153 2.865.249 5.67a289 289 0 0 1-3.705 4.299 335 335 0 0 0-.375-5.713q.717-.784 1.425-1.566a305 305 0 0 0 2.406-2.69Zm-3.424 10.544a294 294 0 0 0 3.694-4.272q.09 2.829.122 5.595a269 269 0 0 1-3.56 4.319 294 294 0 0 0-.256-5.642Zm-.66-4.149q.137 2.017.248 4.006a323 323 0 0 1-3.842 4.278 351 351 0 0 0-.489-5.779 354 354 0 0 0 3.961-4.236q.063.868.122 1.731Zm-3.553 8.837a327 327 0 0 0 3.832-4.256q.153 2.865.249 5.67a296 296 0 0 1-3.705 4.299 335 335 0 0 0-.376-5.713Zm.664 11.93a302 302 0 0 0-.256-5.641 293 293 0 0 0 3.693-4.273q.091 2.829.122 5.596a268 268 0 0 1-3.559 4.318Zm3.957-4.813a271 271 0 0 0-.131-5.561 276 276 0 0 0 3.545-4.286q.025 2.788-.012 5.511a243 243 0 0 1-3.402 4.336Zm3.813-4.873q.03-2.703 0-5.468a249 249 0 0 0 3.385-4.295 221 221 0 0 1-.154 5.415 226 226 0 0 1-3.231 4.348Zm3.659-4.94q.099-2.646.138-5.36a229 229 0 0 0 3.209-4.294 202 202 0 0 1-.303 5.302 200 200 0 0 1-3.044 4.352Zm3.495-5.017q.173-2.58.281-5.229a205 205 0 0 0 3.016-4.28 183 183 0 0 1-.459 5.167 184 184 0 0 1-2.838 4.342Zm3.322-5.111q.246-2.496.428-5.063a180 180 0 0 0 2.797-4.242 160 160 0 0 1-.62 4.997 164 164 0 0 1-2.605 4.308Zm3.139-5.231q.32-2.385.574-4.841a162 162 0 0 0 2.545-4.157 144 144 0 0 1-.782 4.768 146 146 0 0 1-2.337 4.23Zm2.956-5.412q.383-2.219.704-4.507 1.163-1.996 2.237-3.976a127 127 0 0 1-.93 4.429 127 127 0 0 1-2.011 4.054Zm2.801-5.755q.41-1.924.771-3.905a131 131 0 0 0 1.811-3.545 111 111 0 0 1-1.009 3.823 113 113 0 0 1-1.573 3.627Zm2.867-6.917q.274-1.102.532-2.225.492-1.04.959-2.076-.351 1.091-.72 2.159-.37 1.067-.771 2.142Zm3.805-10.977q.275-1.1.532-2.224.493-1.04.959-2.077a94 94 0 0 1-1.491 4.301Zm-7.078 19.728q.492-1.04.958-2.076a93 93 0 0 1-1.491 4.301q.275-1.102.533-2.225Zm-.817 1.693a114 114 0 0 1-1.009 3.822 113 113 0 0 1-1.574 3.627q.41-1.924.772-3.905a134 134 0 0 0 1.811-3.544Zm-2.442 4.722a129 129 0 0 1-.931 4.428 128 128 0 0 1-2.01 4.055q.381-2.22.704-4.508 1.163-1.996 2.237-3.975Zm-3.175 9.798a131 131 0 0 0 1.812-3.544 114 114 0 0 1-1.009 3.822 112 112 0 0 1-1.574 3.627q.411-1.924.771-3.905Zm.397-4.902a144 144 0 0 1-.783 4.768 144 144 0 0 1-2.336 4.23q.318-2.385.574-4.841 1.32-2.086 2.545-4.157Zm-3.264 10.056a149 149 0 0 0 2.236-3.976 128 128 0 0 1-.93 4.429 128 128 0 0 1-2.011 4.054q.383-2.22.705-4.507Zm.231-5.131a166 166 0 0 1-.62 4.996 163 163 0 0 1-2.606 4.308q.247-2.496.429-5.063a185 185 0 0 0 2.797-4.241Zm-3.317 10.209a168 168 0 0 0 2.545-4.157 145 145 0 0 1-.783 4.768 146 146 0 0 1-2.337 4.229q.32-2.386.575-4.84Zm.066-5.303q-.195 2.62-.458 5.167a184 184 0 0 1-2.838 4.342q.172-2.58.281-5.229a201 201 0 0 0 3.015-4.28Zm-3.352 10.311a185 185 0 0 0 2.798-4.241 162 162 0 0 1-.621 4.996 163 163 0 0 1-2.605 4.308q.246-2.495.428-5.063Zm-.093-5.439a197 197 0 0 1-.302 5.302 204 204 0 0 1-3.044 4.352q.1-2.647.137-5.359 1.65-2.154 3.209-4.295Zm-3.375 10.385a207 207 0 0 0 3.015-4.281q-.195 2.621-.459 5.167a181 181 0 0 1-2.838 4.342q.172-2.58.282-5.228Zm-.246-5.553q-.045 2.74-.153 5.414a223 223 0 0 1-3.231 4.348q.03-2.702 0-5.468a253 253 0 0 0 3.384-4.294Zm-3.393 10.439q1.65-2.154 3.209-4.295a202 202 0 0 1-.302 5.303 206 206 0 0 1-3.045 4.351q.1-2.647.138-5.359Zm-.39-5.651q.025 2.789-.012 5.511a243 243 0 0 1-3.402 4.336 271 271 0 0 0-.131-5.561 277 277 0 0 0 3.545-4.286Zm-3.406 10.482a250 250 0 0 0 3.384-4.294q-.045 2.741-.153 5.415a223 223 0 0 1-3.232 4.347q.03-2.702.001-5.468Zm-.147 11.504q.099-2.647.138-5.359a229 229 0 0 0 3.209-4.295q-.118 2.687-.303 5.303a200 200 0 0 1-3.044 4.351Zm3.495-5.018q.173-2.579.281-5.227a204 204 0 0 0 3.016-4.281q-.196 2.621-.459 5.167a181 181 0 0 1-2.838 4.341Zm3.322-5.11q.246-2.495.428-5.062a182 182 0 0 0 2.797-4.242q-.275 2.536-.62 4.996a163 163 0 0 1-2.605 4.308Zm3.139-5.231q.32-2.384.574-4.84a162 162 0 0 0 2.545-4.157 142 142 0 0 1-.783 4.768 144 144 0 0 1-2.336 4.229Zm2.956-5.411q.383-2.22.704-4.507 1.163-1.995 2.237-3.976a128 128 0 0 1-.93 4.429 128 128 0 0 1-2.011 4.054Zm2.801-5.756q.41-1.923.771-3.905a131 131 0 0 0 1.811-3.544q-.477 1.944-1.009 3.823a113 113 0 0 1-1.573 3.626Zm2.867-6.917q.274-1.102.532-2.224.493-1.04.959-2.077-.351 1.092-.72 2.16-.37 1.067-.771 2.141Zm3.805-10.976q.276-1.102.532-2.224.493-1.04.959-2.077a93 93 0 0 1-1.491 4.301Zm-7.078 19.728q.493-1.04.958-2.077a93 93 0 0 1-1.491 4.301q.275-1.102.533-2.224Zm-.817 1.692q-.477 1.944-1.009 3.823a114 114 0 0 1-1.574 3.627q.41-1.925.772-3.905a135 135 0 0 0 1.811-3.545Zm-2.443 4.722a126 126 0 0 1-.93 4.429 128 128 0 0 1-2.01 4.054q.382-2.22.704-4.507a148 148 0 0 0 2.236-3.976Zm-3.174 9.799a131 131 0 0 0 1.812-3.545q-.478 1.944-1.01 3.823a112 112 0 0 1-1.573 3.627q.411-1.925.771-3.905Zm.397-4.902a145 145 0 0 1-.783 4.768 144 144 0 0 1-2.336 4.229q.319-2.384.574-4.84 1.32-2.087 2.545-4.157Zm-3.265 10.055a147 147 0 0 0 2.237-3.975 128 128 0 0 1-.93 4.428 127 127 0 0 1-2.011 4.054q.383-2.219.704-4.507Zm.232-5.131q-.275 2.537-.621 4.996a160 160 0 0 1-2.605 4.309q.247-2.497.429-5.063 1.446-2.13 2.797-4.242Zm-3.317 10.209a168 168 0 0 0 2.545-4.157 145 145 0 0 1-.783 4.768 146 146 0 0 1-2.337 4.23q.32-2.386.575-4.841Zm.066-5.303q-.195 2.622-.458 5.167a184 184 0 0 1-2.838 4.342q.172-2.58.281-5.228a203 203 0 0 0 3.015-4.281Zm-3.352 10.312q1.446-2.13 2.798-4.242a162 162 0 0 1-.621 4.997 164 164 0 0 1-2.605 4.308q.246-2.497.428-5.063Zm-1.094 10.808q.32-2.385.574-4.841a162 162 0 0 0 2.545-4.157 145 145 0 0 1-.783 4.768 145 145 0 0 1-2.336 4.23Zm2.956-5.411q.383-2.22.704-4.507a151 151 0 0 0 2.237-3.976 128 128 0 0 1-.93 4.429 131 131 0 0 1-2.011 4.054Zm2.801-5.756q.41-1.925.771-3.905a129 129 0 0 0 1.811-3.544 112 112 0 0 1-1.009 3.822 111 111 0 0 1-1.573 3.627Zm2.867-6.917q.275-1.103.532-2.225.493-1.041.959-2.076-.351 1.092-.72 2.159a99 99 0 0 1-.771 2.142Zm3.805-10.976q.275-1.103.532-2.225.493-1.041.959-2.076a94 94 0 0 1-1.491 4.301Zm-7.078 19.728q.492-1.042.958-2.077a96 96 0 0 1-1.491 4.301q.275-1.103.533-2.224Zm-.817 1.692a111 111 0 0 1-1.009 3.822 113 113 0 0 1-1.574 3.627q.41-1.925.772-3.905a135 135 0 0 0 1.811-3.544Zm-2.442 4.721a126 126 0 0 1-.931 4.43 126 126 0 0 1-2.011 4.054q.383-2.22.705-4.507a151 151 0 0 0 2.237-3.977Zm-3.175 9.8a134 134 0 0 0 1.812-3.545q-.477 1.943-1.01 3.823a111 111 0 0 1-1.573 3.626q.411-1.924.771-3.904Zm-1.709 7.963q.275-1.102.532-2.224.492-1.04.959-2.077a94 94 0 0 1-1.491 4.301Zm3.805-10.977q.275-1.101.532-2.223.493-1.041.959-2.077a96 96 0 0 1-1.491 4.3ZM-240.372 526.712q-.488 1.043-.959 2.076a107 107 0 0 1 1.491-4.3q-.27 1.104-.532 2.224Zm.817-1.692q.483-1.941 1.009-3.822a134 134 0 0 1 1.574-3.627 141 141 0 0 0-.772 3.905 142 142 0 0 0-1.811 3.544Zm2.441-4.722q.437-2.251.936-4.427a135 135 0 0 1 2.005-4.056 139 139 0 0 0-.699 4.509 136 136 0 0 0-2.242 3.974Zm3.175-9.799a145 145 0 0 0-1.81 3.545c.32-1.295.659-2.568 1.008-3.822a141 141 0 0 1 1.574-3.627 145 145 0 0 0-.772 3.904Zm-.392 4.904q.354-2.424.781-4.769a135 135 0 0 1 2.339-4.228 140 140 0 0 0-.575 4.84 139 139 0 0 0-2.545 4.157Zm3.264-10.055a136 136 0 0 0-2.241 3.974c.289-1.502.604-2.976.936-4.427a129 129 0 0 1 2.005-4.056 139 139 0 0 0-.7 4.509Zm-.231 5.131c.184-1.691.386-3.359.621-4.996.83-1.432 1.703-2.867 2.605-4.309a184 184 0 0 0-.43 5.063 183 183 0 0 0-2.796 4.242Zm3.317-10.209a137 137 0 0 0-2.544 4.157q.353-2.425.781-4.769a134 134 0 0 1 2.338-4.229 140 140 0 0 0-.575 4.841Zm-.068 5.302q.191-2.623.457-5.167 1.366-2.164 2.84-4.342a197 197 0 0 0-.282 5.228 197 197 0 0 0-3.015 4.281Zm3.353-10.311a180 180 0 0 0-2.797 4.242c.185-1.691.387-3.359.621-4.997.83-1.431 1.703-2.866 2.605-4.308a180 180 0 0 0-.429 5.063Zm.089 5.438c.082-1.791.182-3.559.308-5.301.98-1.446 1.996-2.896 3.039-4.353a258 258 0 0 0-.139 5.359 261 261 0 0 0-3.208 4.295Zm3.378-10.384a201 201 0 0 0-3.015 4.281q.191-2.622.458-5.168a164 164 0 0 1 2.839-4.341 197 197 0 0 0-.282 5.228Zm.247 5.554q.042-2.743.15-5.416a217 217 0 0 1 3.235-4.347 221 221 0 0 0-.006 5.466 221 221 0 0 0-3.379 4.297Zm3.389-10.441a256 256 0 0 0-3.208 4.295q.121-2.687.307-5.301c.98-1.446 1.996-2.896 3.04-4.353a251 251 0 0 0-.139 5.359Zm.392 5.651q-.021-2.788.012-5.511a284 284 0 0 1 3.402-4.336q.033 2.749.133 5.561a236 236 0 0 0-3.547 4.286Zm3.404-10.483a224 224 0 0 0-3.38 4.296c.027-1.828.08-3.633.15-5.416a220 220 0 0 1 3.235-4.346q-.036 2.7-.005 5.466Zm.533 5.738a290 290 0 0 1-.129-5.598 291 291 0 0 1 3.566-4.316q.098 2.79.251 5.64a293 293 0 0 0-3.688 4.274Zm3.415-10.517a231 231 0 0 0-3.546 4.286q-.023-2.788.012-5.511 1.66-2.16 3.401-4.336.033 2.749.133 5.561Zm.654 5.81a378 378 0 0 1-.249-5.67 379 379 0 0 1 3.705-4.298c.073 1.196.144 2.395.23 3.605q.07 1.05.149 2.109-.718.783-1.423 1.565c-.816.897-1.615 1.796-2.412 2.689Zm3.425-10.544a287 287 0 0 0-3.688 4.274 282 282 0 0 1-.129-5.597 285 285 0 0 1 3.566-4.316q.096 2.79.251 5.639Zm.663 4.154a540 540 0 0 1-.251-4.011q1.326-1.492 2.68-2.994l1.163-1.282c.142 1.907.312 3.835.493 5.78a306 306 0 0 0-3.965 4.235q-.06-.865-.12-1.728Zm3.552-8.84c-.48.521-.951 1.044-1.423 1.564-.815.898-1.614 1.797-2.412 2.691a393 393 0 0 1-.249-5.671 388 388 0 0 1 3.706-4.299c.072 1.196.144 2.396.229 3.606q.07 1.05.149 2.109Zm.899 5.943a403 403 0 0 1-.486-5.8 411 411 0 0 1 3.971-4.253q.279 2.895.594 5.836a564 564 0 0 0-4.079 4.217Zm3.439-10.587a325 325 0 0 0-3.965 4.235l-.119-1.727q-.135-2.017-.252-4.011a530 530 0 0 1 3.843-4.277c.143 1.908.312 3.837.493 5.78Zm1.008 6q-.322-2.953-.595-5.857a410 410 0 0 1 4.092-4.23c.222 1.95.448 3.911.702 5.892a415 415 0 0 0-4.199 4.195Zm3.437-10.606a564 564 0 0 0-4.079 4.217 403 403 0 0 1-.486-5.8 402 402 0 0 1 3.972-4.254q.279 2.897.593 5.837Zm1.125 6.056a331 331 0 0 1-.697-5.908 333 333 0 0 1 4.204-4.208q.373 2.949.796 5.941a411 411 0 0 0-4.303 4.175Zm3.442-10.621a415 415 0 0 0-4.199 4.194 417 417 0 0 1-.595-5.856 420 420 0 0 1 4.092-4.23c.222 1.949.448 3.911.702 5.892Zm1.22 6.103c-.282-2-.543-3.984-.792-5.955a433 433 0 0 1 4.307-4.185q.43 2.975.899 5.99a604 604 0 0 0-4.414 4.15Zm3.446-10.633a431 431 0 0 0-4.303 4.175 331 331 0 0 1-.697-5.908 327 327 0 0 1 4.204-4.208c.251 1.965.513 3.945.796 5.941Zm1.323 6.151a588 588 0 0 1-.895-6.003 585 585 0 0 1 4.418-4.16q.474 2.998.987 6.035a584 584 0 0 0-4.51 4.128Zm3.45-10.643a582 582 0 0 0-4.414 4.149 420 420 0 0 1-.792-5.955 444 444 0 0 1 4.307-4.186q.431 2.976.899 5.992Zm-1.764-12.426q.375 2.948.796 5.943a443 443 0 0 0-4.303 4.173 338 338 0 0 1-.697-5.908 347 347 0 0 1 4.204-4.208Zm-4.572 4.579c.222 1.95.449 3.912.703 5.893a426 426 0 0 0-4.2 4.194q-.32-2.953-.595-5.856a421 421 0 0 1 4.092-4.231Zm-4.458 4.621q.279 2.896.594 5.836a545 545 0 0 0-4.079 4.218 403 403 0 0 1-.487-5.8 402 402 0 0 1 3.972-4.254Zm-4.344 4.663c.142 1.908.311 3.837.493 5.78a318 318 0 0 0-3.966 4.235l-.119-1.727q-.135-2.018-.251-4.011a494 494 0 0 1 2.68-2.994zm-3.995 8.315c.048.701.095 1.403.15 2.109q-.718.782-1.423 1.564c-.816.897-1.615 1.796-2.412 2.691-.1-1.909-.18-3.799-.249-5.671a378 378 0 0 1 3.705-4.299c.073 1.196.144 2.396.229 3.606Zm-4.317 1.156q.097 2.79.251 5.639a293 293 0 0 0-3.688 4.275 290 290 0 0 1-.129-5.598 281 281 0 0 1 3.566-4.316Zm-3.96 4.812c.023 1.833.064 3.686.133 5.561a234 234 0 0 0-3.547 4.285q-.022-2.786.012-5.51a267 267 0 0 1 3.402-4.336Zm-3.811 4.874c-.025 1.8-.024 3.622-.005 5.466a224 224 0 0 0-3.379 4.296c.026-1.828.079-3.633.15-5.416a217 217 0 0 1 3.234-4.346Zm-3.662 4.939a258 258 0 0 0-.139 5.358 252 252 0 0 0-3.208 4.296q.121-2.687.307-5.301c.98-1.446 1.996-2.896 3.04-4.353Zm-3.493 5.018a201 201 0 0 0-.282 5.228 197 197 0 0 0-3.014 4.281q.19-2.623.457-5.168a166 166 0 0 1 2.839-4.341Zm-3.32 5.111a184 184 0 0 0-.429 5.062 185 185 0 0 0-2.796 4.242c.184-1.691.386-3.358.62-4.996a153 153 0 0 1 2.605-4.308Zm-3.139 5.231a140 140 0 0 0-.575 4.84 143 143 0 0 0-2.544 4.158q.354-2.425.781-4.769a135 135 0 0 1 2.338-4.229Zm-2.961 5.41a137 137 0 0 0-.699 4.508 137 137 0 0 0-2.242 3.974 132 132 0 0 1 .936-4.426 129 129 0 0 1 2.005-4.056Zm-2.799 5.756a144 144 0 0 0-.773 3.904 145 145 0 0 0-1.81 3.545q.484-1.942 1.009-3.823a135 135 0 0 1 1.574-3.626Zm-2.869 6.916c-.178.737-.358 1.477-.532 2.225q-.487 1.042-.959 2.076a105 105 0 0 1 1.491-4.301Zm-3.805 10.977q-.269 1.103-.532 2.224-.487 1.042-.959 2.076.353-1.09.722-2.158.37-1.067.769-2.142Zm7.079-19.728a233 233 0 0 0-.959 2.075 107 107 0 0 1 1.491-4.3q-.27 1.104-.532 2.225Zm.817-1.692c.321-1.295.66-2.569 1.009-3.823a134 134 0 0 1 1.574-3.626 140 140 0 0 0-.772 3.904 142 142 0 0 0-1.811 3.545Zm2.441-4.723q.436-2.251.936-4.427a135 135 0 0 1 2.005-4.056 140 140 0 0 0-.699 4.509 141 141 0 0 0-2.242 3.974Zm3.175-9.798a145 145 0 0 0-1.81 3.545c.32-1.295.659-2.569 1.008-3.823a142 142 0 0 1 1.574-3.627 148 148 0 0 0-.772 3.905Zm-.392 4.904q.354-2.425.781-4.769a136 136 0 0 1 2.339-4.229 140 140 0 0 0-.575 4.84 141 141 0 0 0-2.545 4.158Zm3.264-10.056a139 139 0 0 0-2.241 3.974c.289-1.501.604-2.976.936-4.427a131 131 0 0 1 2.005-4.056 140 140 0 0 0-.7 4.509Zm-.231 5.131c.184-1.691.386-3.358.621-4.996a149 149 0 0 1 2.605-4.308 184 184 0 0 0-.43 5.062 185 185 0 0 0-2.796 4.242Zm3.317-10.209a138 138 0 0 0-2.544 4.157 134 134 0 0 1 .781-4.768 133 133 0 0 1 2.338-4.229 140 140 0 0 0-.575 4.84Zm-.068 5.302q.191-2.622.457-5.167 1.367-2.164 2.84-4.342-.174 2.58-.282 5.229a197 197 0 0 0-3.015 4.28Zm3.353-10.311a180 180 0 0 0-2.797 4.242c.185-1.691.387-3.359.621-4.996.83-1.432 1.703-2.866 2.605-4.308a180 180 0 0 0-.429 5.062Zm.09 5.438q.121-2.686.307-5.3c.98-1.446 1.996-2.897 3.039-4.354a258 258 0 0 0-.139 5.359 256 256 0 0 0-3.207 4.295Zm3.377-10.384a201 201 0 0 0-3.015 4.281q.191-2.622.458-5.167a162 162 0 0 1 2.839-4.342q-.174 2.58-.282 5.228Zm.247 5.554c.027-1.829.08-3.634.15-5.416a220 220 0 0 1 3.235-4.347c-.026 1.8-.025 3.623-.006 5.467a224 224 0 0 0-3.379 4.296Zm3.389-10.441a256 256 0 0 0-3.208 4.295q.121-2.686.307-5.301c.98-1.445 1.996-2.896 3.04-4.353a252 252 0 0 0-.139 5.359Zm.392 5.652a281 281 0 0 1 .012-5.512 284 284 0 0 1 3.402-4.335q.033 2.749.133 5.561a235 235 0 0 0-3.547 4.286Zm3.404-10.484a221 221 0 0 0-3.38 4.297c.027-1.829.08-3.634.151-5.416a216 216 0 0 1 3.234-4.347 221 221 0 0 0-.005 5.466Zm.533 5.739a290 290 0 0 1-.129-5.598 291 291 0 0 1 3.566-4.317q.098 2.792.251 5.64a299 299 0 0 0-3.688 4.275Zm3.415-10.517a236 236 0 0 0-3.547 4.286q-.021-2.788.013-5.512a282 282 0 0 1 3.401-4.336q.033 2.749.133 5.562Zm.654 5.81q-.147-2.863-.249-5.67a379 379 0 0 1 3.705-4.299c.073 1.196.144 2.396.229 3.606.048.701.095 1.403.15 2.109q-.718.782-1.423 1.564c-.816.897-1.615 1.796-2.412 2.69Zm3.425-10.544a293 293 0 0 0-3.689 4.274 290 290 0 0 1-.128-5.598 290 290 0 0 1 3.566-4.316q.097 2.79.251 5.64Zm.664 4.153q-.135-2.017-.252-4.01 1.326-1.493 2.68-2.994l1.163-1.283c.142 1.908.312 3.837.493 5.78a312 312 0 0 0-3.965 4.235zm3.551-8.839q-.717.782-1.423 1.564c-.815.897-1.614 1.796-2.412 2.69a393 393 0 0 1-.249-5.67 379 379 0 0 1 3.706-4.299c.072 1.196.143 2.396.229 3.606q.07 1.05.149 2.109Zm.899 5.942c-.179-1.95-.338-3.882-.486-5.799a402 402 0 0 1 3.971-4.254q.279 2.896.594 5.836a584 584 0 0 0-4.079 4.217Zm3.439-10.586a325 325 0 0 0-3.965 4.235l-.119-1.728q-.135-2.016-.252-4.011a497 497 0 0 1 3.843-4.276c.143 1.907.312 3.836.493 5.78Zm1.008 5.999a392 392 0 0 1-.595-5.856 400 400 0 0 1 4.092-4.231c.222 1.95.448 3.912.702 5.894a405 405 0 0 0-4.199 4.193Zm3.437-10.605a546 546 0 0 0-4.079 4.216c-.179-1.95-.338-3.882-.486-5.8a412 412 0 0 1 3.972-4.253q.279 2.895.593 5.837Zm-1.132-12.15c.142 1.907.311 3.836.492 5.78a319 319 0 0 0-3.965 4.235l-.119-1.728a536 536 0 0 1-.251-4.011q1.325-1.493 2.679-2.993zm-3.995 8.315c.048.7.095 1.403.15 2.108q-.718.783-1.423 1.564c-.816.898-1.615 1.797-2.412 2.691-.1-1.909-.18-3.799-.249-5.671a369 369 0 0 1 3.705-4.298c.073 1.196.144 2.396.229 3.606Zm-4.317 1.155q.097 2.791.251 5.639a298 298 0 0 0-3.688 4.275 290 290 0 0 1-.129-5.598 296 296 0 0 1 3.566-4.316Zm-3.96 4.812c.023 1.833.064 3.686.133 5.561a234 234 0 0 0-3.547 4.286 273 273 0 0 1 .012-5.511q1.659-2.16 3.402-4.336Zm-3.811 4.874a226 226 0 0 0-.005 5.466 227 227 0 0 0-3.379 4.296c.026-1.828.079-3.633.15-5.415a217 217 0 0 1 3.234-4.347Zm-3.662 4.939a258 258 0 0 0-.139 5.359 256 256 0 0 0-3.208 4.295q.121-2.687.307-5.301c.98-1.446 1.996-2.896 3.04-4.353Zm-3.493 5.018a197 197 0 0 0-.281 5.228 194 194 0 0 0-3.015 4.281q.19-2.623.457-5.167 1.366-2.164 2.839-4.342Zm-3.319 5.111a180 180 0 0 0-.43 5.063 183 183 0 0 0-2.796 4.242c.184-1.691.386-3.359.62-4.997.83-1.431 1.704-2.866 2.606-4.308Zm-3.14 5.232a140 140 0 0 0-.575 4.84 143 143 0 0 0-2.544 4.157q.354-2.425.781-4.769a136 136 0 0 1 2.338-4.228Zm-2.961 5.409a137 137 0 0 0-.699 4.509 135 135 0 0 0-2.242 3.974q.436-2.251.936-4.427a130 130 0 0 1 2.005-4.056Zm-2.799 5.756a144 144 0 0 0-.773 3.905 145 145 0 0 0-1.81 3.544q.483-1.94 1.009-3.822a134 134 0 0 1 1.574-3.627Zm-2.869 6.918q-.269 1.103-.532 2.223-.487 1.043-.959 2.076a107 107 0 0 1 1.491-4.299Zm-3.805 10.976q-.27 1.103-.532 2.224-.487 1.042-.959 2.075.353-1.09.722-2.158.37-1.067.769-2.141Zm7.079-19.729q-.488 1.042-.959 2.076.353-1.09.722-2.158.37-1.067.768-2.142c-.178.736-.358 1.477-.531 2.224Zm.817-1.692q.483-1.942 1.009-3.822a134 134 0 0 1 1.574-3.627 141 141 0 0 0-.772 3.904 143 143 0 0 0-1.811 3.545Zm2.441-4.722c.29-1.502.605-2.976.936-4.427a135 135 0 0 1 2.005-4.056 137 137 0 0 0-.699 4.508 141 141 0 0 0-2.242 3.975Zm3.175-9.799a147 147 0 0 0-1.81 3.545c.32-1.295.659-2.568 1.009-3.823a135 135 0 0 1 1.573-3.626 148 148 0 0 0-.772 3.904Zm-.392 4.904q.354-2.424.781-4.769a136 136 0 0 1 2.339-4.229 140 140 0 0 0-.575 4.841 139 139 0 0 0-2.545 4.157Zm3.264-10.056a140 140 0 0 0-2.241 3.974c.289-1.5.604-2.976.936-4.426a131 131 0 0 1 2.005-4.057c-.257 1.48-.487 2.984-.7 4.509Zm-.231 5.131c.184-1.69.386-3.358.621-4.996a149 149 0 0 1 2.605-4.308 184 184 0 0 0-.43 5.063 185 185 0 0 0-2.796 4.241Zm3.317-10.209a140 140 0 0 0-2.544 4.158q.353-2.424.781-4.769a134 134 0 0 1 2.338-4.229 140 140 0 0 0-.575 4.84Zm-.068 5.303q.19-2.623.458-5.168 1.365-2.162 2.839-4.341a197 197 0 0 0-.282 5.228 200 200 0 0 0-3.015 4.281Zm3.353-10.312a182 182 0 0 0-2.797 4.242c.185-1.691.386-3.358.621-4.996.83-1.431 1.703-2.866 2.605-4.308a180 180 0 0 0-.429 5.062Zm.09 5.439c.082-1.791.181-3.558.307-5.301.98-1.446 1.996-2.896 3.04-4.353a251 251 0 0 0-.14 5.359 256 256 0 0 0-3.207 4.295Zm3.377-10.384a197 197 0 0 0-3.015 4.281q.191-2.623.458-5.168a164 164 0 0 1 2.839-4.341 197 197 0 0 0-.282 5.228Zm.247 5.554c.027-1.829.08-3.634.15-5.417a220 220 0 0 1 3.235-4.346c-.026 1.8-.025 3.622-.006 5.466a224 224 0 0 0-3.379 4.297Zm3.389-10.442a252 252 0 0 0-3.208 4.296q.121-2.686.307-5.301 1.472-2.168 3.04-4.353a251 251 0 0 0-.139 5.358Zm.392 5.652q-.021-2.787.013-5.511 1.66-2.16 3.401-4.336.033 2.749.133 5.562a231 231 0 0 0-3.547 4.285Zm3.404-10.483a218 218 0 0 0-3.38 4.297c.027-1.829.08-3.634.151-5.417a213 213 0 0 1 3.234-4.346 221 221 0 0 0-.005 5.466Zm.533 5.738a290 290 0 0 1-.129-5.598 291 291 0 0 1 3.566-4.316q.098 2.791.251 5.639a299 299 0 0 0-3.688 4.275Zm3.415-10.517a239 239 0 0 0-3.547 4.286q-.021-2.787.013-5.511 1.66-2.16 3.401-4.336.033 2.749.133 5.561Zm.654 5.811q-.147-2.863-.249-5.671a398 398 0 0 1 3.705-4.299c.073 1.196.144 2.397.229 3.607q.07 1.05.15 2.109-.718.781-1.423 1.563c-.816.898-1.615 1.796-2.412 2.691Zm3.424-10.544a293 293 0 0 0-3.688 4.274 282 282 0 0 1-.128-5.598 280 280 0 0 1 3.566-4.316q.096 2.79.25 5.64Zm-.405-11.804c.023 1.833.064 3.686.132 5.561a231 231 0 0 0-3.546 4.286 273 273 0 0 1 .012-5.511 267 267 0 0 1 3.402-4.336Zm-3.811 4.873q-.036 2.702-.005 5.466a221 221 0 0 0-3.379 4.298q.042-2.744.15-5.417a220 220 0 0 1 3.234-4.347Zm-3.662 4.939a252 252 0 0 0-.139 5.36 256 256 0 0 0-3.208 4.294q.121-2.685.307-5.3c.98-1.446 1.996-2.897 3.04-4.354Zm-3.493 5.019a197 197 0 0 0-.281 5.228 196 196 0 0 0-3.015 4.28q.191-2.622.457-5.167a166 166 0 0 1 2.839-4.341Zm-3.319 5.111a180 180 0 0 0-.43 5.062 180 180 0 0 0-2.796 4.243c.184-1.692.386-3.359.62-4.997.83-1.431 1.704-2.866 2.606-4.308Zm-3.14 5.231a140 140 0 0 0-.574 4.84 141 141 0 0 0-2.545 4.158q.353-2.424.781-4.769a136 136 0 0 1 2.338-4.229Zm-2.961 5.409a138 138 0 0 0-.699 4.509 137 137 0 0 0-2.242 3.974c.289-1.5.604-2.976.936-4.427a132 132 0 0 1 2.005-4.056Zm-2.799 5.756a145 145 0 0 0-.773 3.905 145 145 0 0 0-1.81 3.545 136 136 0 0 1 1.009-3.823 137 137 0 0 1 1.574-3.627Zm-2.869 6.918c-.178.736-.358 1.477-.531 2.224-.327.695-.644 1.387-.96 2.076a105 105 0 0 1 1.491-4.3Zm-3.805 10.976q-.269 1.104-.532 2.224-.487 1.042-.959 2.076a105 105 0 0 1 1.491-4.3Zm7.079-19.728q-.488 1.042-.959 2.076.353-1.092.722-2.159.37-1.067.768-2.141c-.178.736-.358 1.476-.531 2.224Zm.817-1.692q.483-1.942 1.009-3.823a137 137 0 0 1 1.574-3.627 141 141 0 0 0-.772 3.905 142 142 0 0 0-1.811 3.545Zm2.441-4.723c.29-1.501.605-2.976.936-4.427a135 135 0 0 1 2.005-4.056q-.382 2.22-.699 4.509a139 139 0 0 0-2.242 3.974Zm3.175-9.798a145 145 0 0 0-1.81 3.544q.482-1.941 1.009-3.822a135 135 0 0 1 1.573-3.627 149 149 0 0 0-.772 3.905Zm-.392 4.903q.354-2.425.781-4.768a132 132 0 0 1 2.339-4.228 138 138 0 0 0-.575 4.839 142 142 0 0 0-2.545 4.157Zm3.264-10.055a139 139 0 0 0-2.241 3.974c.289-1.501.604-2.976.936-4.427a130 130 0 0 1 2.005-4.056 137 137 0 0 0-.7 4.509Zm-.231 5.132c.184-1.692.386-3.359.621-4.997a149 149 0 0 1 2.605-4.309 184 184 0 0 0-.43 5.063 183 183 0 0 0-2.796 4.243Zm3.317-10.21a138 138 0 0 0-2.544 4.157q.353-2.424.781-4.769a134 134 0 0 1 2.338-4.228 140 140 0 0 0-.575 4.84Zm-.068 5.302q.19-2.623.458-5.167 1.365-2.163 2.839-4.341a197 197 0 0 0-.282 5.227 199 199 0 0 0-3.015 4.281Zm3.352-10.311a185 185 0 0 0-2.796 4.242c.185-1.691.387-3.358.621-4.997.83-1.431 1.703-2.865 2.605-4.308a184 184 0 0 0-.43 5.063Zm.091 5.438q.12-2.686.306-5.3a208 208 0 0 1 3.04-4.353q-.096 2.647-.138 5.358a249 249 0 0 0-3.208 4.295Zm3.377-10.383a196 196 0 0 0-3.014 4.28q.19-2.622.457-5.167a164 164 0 0 1 2.839-4.341 201 201 0 0 0-.282 5.228Zm.247 5.553q.042-2.743.15-5.415a220 220 0 0 1 3.235-4.348c-.026 1.8-.025 3.623-.006 5.467a221 221 0 0 0-3.379 4.296Zm3.389-10.44a252 252 0 0 0-3.208 4.295q.121-2.687.307-5.301c.98-1.447 1.996-2.897 3.04-4.353a251 251 0 0 0-.139 5.359Zm.451-11.317a201 201 0 0 0-.282 5.228 200 200 0 0 0-3.014 4.28q.191-2.623.457-5.167a165 165 0 0 1 2.839-4.341Zm-3.319 5.11a180 180 0 0 0-.43 5.063 182 182 0 0 0-2.796 4.242c.184-1.691.386-3.358.62-4.996.83-1.432 1.703-2.866 2.606-4.309Zm-3.14 5.232a142 142 0 0 0-.575 4.84 143 143 0 0 0-2.544 4.157 134 134 0 0 1 .781-4.768 135 135 0 0 1 2.338-4.229Zm-2.961 5.409a137 137 0 0 0-.699 4.508 138 138 0 0 0-2.242 3.975c.289-1.501.604-2.976.936-4.427a130 130 0 0 1 2.005-4.056Zm-2.8 5.757a149 149 0 0 0-.772 3.903 147 147 0 0 0-1.81 3.545q.483-1.942 1.009-3.822a136 136 0 0 1 1.573-3.626Zm-2.868 6.916c-.178.736-.358 1.477-.531 2.224-.327.695-.644 1.388-.96 2.077a105 105 0 0 1 1.491-4.301Zm-3.805 10.976c-.178.737-.358 1.477-.532 2.224-.326.695-.643 1.388-.959 2.077a105 105 0 0 1 1.491-4.301Zm7.079-19.728c-.327.695-.644 1.388-.959 2.076a103 103 0 0 1 1.49-4.3c-.178.736-.358 1.477-.531 2.224Zm.817-1.692c.321-1.295.66-2.568 1.009-3.822a136 136 0 0 1 1.574-3.627 140 140 0 0 0-.772 3.905 143 143 0 0 0-1.811 3.544Zm2.441-4.722q.436-2.251.937-4.427a132 132 0 0 1 2.004-4.056 137 137 0 0 0-.699 4.509 138 138 0 0 0-2.242 3.974Zm3.175-9.798a145 145 0 0 0-1.81 3.544c.32-1.295.659-2.568 1.008-3.822a134 134 0 0 1 1.574-3.627 144 144 0 0 0-.772 3.905Zm-.392 4.903q.354-2.425.781-4.768a135 135 0 0 1 2.339-4.229 140 140 0 0 0-.575 4.84 141 141 0 0 0-2.545 4.157Zm3.264-10.055a136 136 0 0 0-2.241 3.974c.289-1.501.604-2.976.936-4.427a130 130 0 0 1 2.005-4.056 137 137 0 0 0-.7 4.509Zm-.231 5.131c.184-1.691.386-3.359.62-4.996.83-1.432 1.704-2.866 2.606-4.309a184 184 0 0 0-.43 5.063 181 181 0 0 0-2.796 4.242Zm3.317-10.209a138 138 0 0 0-2.544 4.156q.353-2.425.781-4.767a133 133 0 0 1 2.338-4.229 140 140 0 0 0-.575 4.84Zm1.419-10.407a139 139 0 0 0-.7 4.509 136 136 0 0 0-2.241 3.974q.437-2.252.936-4.427a129 129 0 0 1 2.005-4.056Zm-2.8 5.756a148 148 0 0 0-.772 3.905 143 143 0 0 0-1.81 3.544q.482-1.942 1.009-3.822a137 137 0 0 1 1.573-3.627Zm-2.868 6.917c-.178.736-.358 1.476-.532 2.224q-.487 1.042-.959 2.076a107 107 0 0 1 1.491-4.3Zm-3.805 10.976q-.269 1.104-.532 2.224-.487 1.043-.959 2.076.353-1.09.722-2.158.37-1.067.769-2.142Zm7.079-19.728q-.488 1.042-.959 2.076.351-1.091.722-2.158a107 107 0 0 1 .769-2.143 202 202 0 0 0-.532 2.225Zm.817-1.692c.321-1.295.66-2.569 1.009-3.823a135 135 0 0 1 1.574-3.626 141 141 0 0 0-.772 3.904 142 142 0 0 0-1.811 3.545Zm3.52-11.509q-.27 1.104-.532 2.225c-.326.694-.643 1.387-.959 2.075q.353-1.09.722-2.157a107 107 0 0 1 .769-2.143Z" opacity=".33"/><defs><linearGradient id="a" x1="-212.261" x2="803.066" y1="444.246" y2="796.249" gradientUnits="userSpaceOnUse"><stop offset=".505" stop-color="#8670FF"/><stop offset=".795" stop-color="#320080" stop-opacity=".33"/></linearGradient></defs></svg>