<svg xmlns="http://www.w3.org/2000/svg" width="600" height="642" fill="none"><g clip-path="url(#a)"><path stroke="url(#b)" stroke-width=".404" d="M-158.826-216.105q1.13 0 2.276.027c-17.323 1.549-37.034 7.227-58.416 16.309-25.329 10.758-53.012 26.298-81.86 45.428-57.694 38.259-120.058 90.886-177.566 148.359-57.507 57.472-110.165 119.797-148.448 177.457-19.141 28.831-34.691 56.497-45.456 81.811-10.764 25.312-16.75 48.283-16.75 67.717s5.986 42.404 16.75 67.715c10.765 25.313 26.314 52.98 45.455 81.809 38.282 57.659 90.94 119.984 148.447 177.454 57.507 57.472 119.87 110.104 177.565 148.362 28.848 19.125 56.532 34.67 81.861 45.424 21.382 9.082 41.094 14.762 58.417 16.313q-1.145.025-2.275.025c-19.371 0-42.299-5.963-67.6-16.709s-52.963-26.268-81.796-45.393c-57.668-38.241-120.01-90.849-177.503-148.304-57.493-57.46-110.133-119.763-148.396-177.396-19.132-28.815-34.668-56.46-45.421-81.744-10.753-25.285-16.717-48.199-16.717-67.556 0-19.358 5.964-42.272 16.718-67.558 10.752-25.285 26.288-52.93 45.421-81.746 38.264-57.632 90.904-119.937 148.397-177.396 57.494-57.459 119.836-110.066 177.503-148.307 28.834-19.121 56.496-34.648 81.795-45.394 25.302-10.747 48.229-16.707 67.599-16.707Zm-55.982 16.707c22.817-9.691 43.703-15.49 61.791-16.535q1.948.112 3.942.298c-16.3 2.023-34.579 7.5-54.274 15.866-25.328 10.758-53.012 26.298-81.86 45.428-57.694 38.259-120.057 90.886-177.565 148.359-57.508 57.472-110.166 119.797-148.449 177.457-19.141 28.831-34.691 56.497-45.456 81.811-10.764 25.312-16.75 48.283-16.75 67.717s5.986 42.404 16.75 67.715c10.765 25.313 26.314 52.98 45.455 81.809 38.282 57.659 90.94 119.984 148.447 177.454 57.507 57.472 119.871 110.104 177.565 148.362 28.848 19.125 56.532 34.67 81.861 45.424 19.696 8.371 37.976 13.849 54.276 15.869q-1.994.18-3.942.299c-18.089-1.05-38.975-6.844-61.793-16.539-25.3-10.746-52.962-26.268-81.795-45.393-57.668-38.241-120.01-90.849-177.503-148.304-57.493-57.46-110.132-119.763-148.396-177.396-19.132-28.815-34.668-56.46-45.421-81.744-10.753-25.285-16.717-48.199-16.717-67.556 0-19.358 5.964-42.272 16.718-67.558 10.752-25.285 26.288-52.93 45.421-81.746 38.264-57.632 90.904-119.937 148.398-177.396s119.835-110.066 177.502-148.307c28.834-19.121 56.496-34.648 81.795-45.394Zm67.599-16.454q-1.145-.124-2.276-.226a97 97 0 0 1 4.552 0q-1.131.102-2.276.226Zm-55.982 16.454c20.413-8.67 39.281-14.225 55.982-16.048q2.22.243 4.489.572c-14.938 2.458-31.409 7.628-49.012 15.105-25.328 10.758-53.012 26.298-81.859 45.428-57.696 38.259-120.058 90.886-177.566 148.359-57.508 57.472-110.166 119.797-148.449 177.457-19.141 28.831-34.691 56.497-45.456 81.811-10.764 25.312-16.75 48.283-16.75 67.717s5.986 42.404 16.75 67.715c10.765 25.313 26.314 52.98 45.455 81.809 38.282 57.659 90.94 119.984 148.447 177.454 57.508 57.472 119.871 110.104 177.565 148.362 28.848 19.125 56.532 34.67 81.862 45.424 17.603 7.482 34.075 12.645 49.013 15.11q-2.27.325-4.489.565c-16.702-1.818-35.57-7.377-55.984-16.046-25.299-10.746-52.961-26.268-81.795-45.393-57.668-38.241-120.01-90.849-177.503-148.304-57.493-57.46-110.132-119.763-148.396-177.396-19.132-28.815-34.668-56.46-45.421-81.744-10.753-25.285-16.717-48.199-16.717-67.556 0-19.358 5.964-42.272 16.718-67.558 10.752-25.285 26.289-52.93 45.421-81.746 38.264-57.632 90.904-119.937 148.398-177.396s119.835-110.066 177.502-148.307c28.834-19.121 56.496-34.648 81.795-45.394Zm61.791-15.686a133 133 0 0 0-3.942-.551q1.992-.186 3.942-.298 1.95.112 3.942.298-1.953.243-3.942.551Zm-50.173 15.686c18.08-7.679 34.949-12.915 50.173-15.278q2.354.366 4.761.822c-13.438 2.734-28.021 7.52-43.476 14.085-25.328 10.758-53.012 26.298-81.859 45.428C-319.67-116.082-382.032-63.455-439.54-5.982c-57.508 57.472-110.166 119.797-148.449 177.457-19.141 28.831-34.691 56.497-45.456 81.811-10.764 25.312-16.749 48.283-16.749 67.717s5.985 42.404 16.749 67.715c10.765 25.313 26.314 52.98 45.456 81.809 38.282 57.659 90.939 119.984 148.446 177.454 57.508 57.472 119.871 110.104 177.565 148.362 28.848 19.125 56.532 34.67 81.862 45.424 15.455 6.569 30.038 11.352 43.477 14.083q-2.406.46-4.761.825c-15.225-2.36-32.094-7.595-50.176-15.279-25.3-10.746-52.961-26.268-81.796-45.393-57.667-38.241-120.009-90.849-177.502-148.304-57.493-57.46-110.132-119.763-148.396-177.396-19.132-28.815-34.668-56.46-45.421-81.744-10.753-25.285-16.717-48.199-16.717-67.556 0-19.358 5.964-42.272 16.718-67.558 10.752-25.285 26.289-52.93 45.421-81.746 38.264-57.632 90.904-119.937 148.398-177.396s119.835-110.066 177.503-148.307c28.833-19.121 56.494-34.648 81.795-45.394Zm55.981-14.665a148 148 0 0 0-4.49-.811q2.27-.329 4.49-.572 2.22.243 4.489.572-2.222.366-4.489.811Zm-44.364 14.665c15.811-6.716 30.696-11.562 44.364-14.253q2.436.48 4.924 1.05c-11.847 2.84-24.514 7.176-37.83 12.832-25.329 10.758-53.012 26.298-81.859 45.428-57.696 38.259-120.058 90.886-177.566 148.359-57.508 57.472-110.166 119.797-148.449 177.457-19.141 28.831-34.691 56.497-45.456 81.811-10.764 25.312-16.749 48.283-16.749 67.717s5.985 42.404 16.749 67.715c10.765 25.313 26.315 52.98 45.456 81.809 38.282 57.659 90.939 119.984 148.447 177.454 57.507 57.472 119.869 110.104 177.565 148.362 28.847 19.125 56.532 34.67 81.861 45.424 13.315 5.656 25.984 9.995 37.831 12.831-1.658.38-3.3.735-4.924 1.05-13.669-2.69-28.554-7.538-44.367-14.252-25.3-10.746-52.961-26.268-81.796-45.393-57.667-38.241-120.009-90.849-177.502-148.304-57.493-57.46-110.132-119.763-148.396-177.396-19.132-28.815-34.668-56.46-45.42-81.744-10.754-25.285-16.717-48.199-16.717-67.556 0-19.358 5.963-42.272 16.717-67.558 10.752-25.285 26.288-52.93 45.421-81.746 38.265-57.632 90.904-119.937 148.398-177.396s119.836-110.066 177.503-148.307c28.833-19.121 56.494-34.648 81.795-45.394Zm50.172-13.413a167 167 0 0 0-4.761-1.043q2.407-.456 4.762-.822 2.354.366 4.76.822-2.356.48-4.761 1.043Zm-38.555 13.413c13.599-5.776 26.512-10.169 38.556-12.998q2.49.585 5.031 1.259c-10.182 2.786-20.926 6.609-32.128 11.368-25.33 10.758-53.013 26.298-81.86 45.428-57.696 38.259-120.058 90.886-177.566 148.359-57.508 57.472-110.165 119.797-148.448 177.457-19.141 28.831-34.692 56.497-45.457 81.811-10.764 25.312-16.749 48.283-16.749 67.717s5.985 42.404 16.749 67.715c10.765 25.313 26.315 52.98 45.456 81.809 38.282 57.659 90.94 119.984 148.447 177.454 57.507 57.472 119.869 110.104 177.565 148.362 28.847 19.125 56.532 34.67 81.861 45.424 11.203 4.759 21.948 8.581 32.131 11.369q-2.541.678-5.032 1.26c-12.045-2.828-24.959-7.223-38.559-13-25.3-10.746-52.961-26.268-81.795-45.393-57.668-38.241-120.01-90.849-177.503-148.304-57.493-57.46-110.132-119.763-148.396-177.396-19.132-28.815-34.668-56.46-45.42-81.744-10.754-25.285-16.717-48.199-16.717-67.556 0-19.358 5.963-42.272 16.717-67.558 10.753-25.285 26.288-52.93 45.421-81.746 38.265-57.632 90.904-119.937 148.397-177.396 57.494-57.459 119.837-110.066 177.504-148.307 28.833-19.121 56.495-34.648 81.795-45.394Zm44.364-11.949a185 185 0 0 0-4.924-1.254q2.488-.57 4.924-1.05 2.436.48 4.924 1.05-2.439.585-4.924 1.254Zm-32.747 11.949c11.437-4.858 22.389-8.738 32.747-11.531q2.532.683 5.108 1.451c-8.457 2.579-17.275 5.834-26.396 9.709-25.33 10.758-53.013 26.298-81.861 45.428-57.694 38.259-120.057 90.886-177.565 148.359-57.508 57.472-110.165 119.797-148.448 177.457-19.142 28.831-34.692 56.497-45.456 81.811-10.765 25.312-16.75 48.283-16.75 67.717s5.985 42.404 16.749 67.715c10.765 25.313 26.315 52.98 45.456 81.809 38.282 57.659 90.94 119.984 148.447 177.454 57.507 57.472 119.869 110.104 177.565 148.362 28.847 19.125 56.531 34.67 81.861 45.424 9.122 3.879 17.941 7.135 26.399 9.712-1.718.509-3.422.994-5.109 1.447-10.358-2.788-21.311-6.666-32.749-11.53-25.301-10.746-52.962-26.268-81.796-45.393-57.667-38.241-120.01-90.849-177.503-148.304-57.493-57.46-110.132-119.763-148.396-177.396-19.132-28.815-34.668-56.46-45.42-81.744-10.754-25.285-16.717-48.199-16.717-67.556 0-19.358 5.963-42.272 16.717-67.558 10.753-25.285 26.289-52.93 45.421-81.746 38.265-57.632 90.904-119.937 148.397-177.396 57.495-57.459 119.837-110.066 177.504-148.307 28.834-19.121 56.495-34.648 81.795-45.394Zm38.555-10.292a210 210 0 0 0-5.031-1.447q2.54-.674 5.031-1.259 2.492.585 5.032 1.259a211 211 0 0 0-5.032 1.447Zm-26.939 10.292c9.322-3.959 18.321-7.269 26.939-9.87q2.561.773 5.167 1.629c-6.682 2.233-13.573 4.865-20.646 7.87-25.329 10.758-53.013 26.298-81.861 45.428-57.694 38.259-120.057 90.886-177.565 148.359C-450.58 51.49-503.237 113.815-541.52 171.475c-19.142 28.831-34.692 56.497-45.456 81.811-10.765 25.312-16.75 48.283-16.75 67.717s5.985 42.404 16.749 67.715c10.765 25.313 26.315 52.98 45.456 81.809 38.282 57.659 90.94 119.984 148.447 177.454 57.507 57.472 119.87 110.104 177.565 148.362 28.847 19.125 56.531 34.67 81.861 45.424 7.074 3.006 13.965 5.64 20.648 7.87a216 216 0 0 1-5.166 1.632c-8.619-2.601-17.619-5.914-26.941-9.873-25.301-10.746-52.963-26.268-81.796-45.393-57.667-38.241-120.009-90.849-177.503-148.304-57.493-57.46-110.132-119.763-148.396-177.396-19.132-28.815-34.668-56.46-45.421-81.744-10.752-25.285-16.716-48.199-16.716-67.556 0-19.358 5.964-42.272 16.717-67.558 10.753-25.285 26.289-52.93 45.421-81.746 38.265-57.632 90.904-119.937 148.398-177.396S-284.567-115.763-226.9-154.004c28.834-19.121 56.495-34.648 81.794-45.394Zm32.748-8.455q-2.576-.852-5.109-1.625 2.578-.768 5.109-1.451 2.532.683 5.109 1.451a228 228 0 0 0-5.109 1.625Zm-21.131 8.455c7.248-3.078 14.301-5.764 21.131-8.029q2.584.858 5.211 1.794a293 293 0 0 0-14.882 5.864c-25.329 10.758-53.013 26.298-81.86 45.428-57.695 38.259-120.058 90.886-177.565 148.359-57.508 57.472-110.166 119.797-148.449 177.457-19.142 28.831-34.691 56.497-45.456 81.811-10.765 25.312-16.75 48.283-16.75 67.717s5.985 42.404 16.749 67.715c10.765 25.313 26.314 52.98 45.456 81.809 38.282 57.659 90.939 119.984 148.447 177.454 57.507 57.472 119.87 110.104 177.565 148.362 28.847 19.125 56.531 34.67 81.861 45.424a295 295 0 0 0 14.884 5.866 274 274 0 0 1-5.21 1.794c-6.831-2.262-13.885-4.953-21.133-8.031-25.3-10.746-52.962-26.268-81.796-45.393-57.667-38.241-120.009-90.849-177.503-148.304-57.492-57.46-110.131-119.763-148.396-177.396-19.132-28.815-34.668-56.46-45.42-81.744-10.754-25.285-16.717-48.199-16.717-67.556 0-19.358 5.964-42.272 16.717-67.558 10.753-25.285 26.289-52.93 45.421-81.746 38.265-57.632 90.904-119.937 148.398-177.396s119.836-110.066 177.503-148.307c28.834-19.121 56.495-34.648 81.794-45.394Zm26.939-6.45a245 245 0 0 0-5.166-1.791q2.606-.855 5.166-1.629 2.562.774 5.167 1.629a247 247 0 0 0-5.167 1.791Zm-15.321 6.45a292 292 0 0 1 15.321-6.021q2.604.936 5.247 1.949a304 304 0 0 0-9.109 3.701c-25.329 10.758-53.013 26.298-81.86 45.428-57.695 38.259-120.058 90.886-177.565 148.359-57.508 57.472-110.166 119.797-148.449 177.457-19.142 28.831-34.691 56.497-45.457 81.811-10.764 25.312-16.749 48.283-16.749 67.717s5.985 42.404 16.749 67.715c10.765 25.313 26.315 52.98 45.456 81.809 38.282 57.659 90.939 119.984 148.447 177.454 57.507 57.472 119.87 110.104 177.565 148.362 28.848 19.125 56.531 34.67 81.861 45.424a278 278 0 0 0 9.111 3.701 284 284 0 0 1-5.246 1.955 296 296 0 0 1-15.324-6.027c-25.3-10.746-52.962-26.268-81.796-45.393-57.667-38.241-120.009-90.849-177.503-148.304-57.493-57.46-110.131-119.763-148.396-177.396-19.132-28.815-34.668-56.46-45.42-81.744-10.754-25.285-16.717-48.199-16.717-67.556 0-19.358 5.964-42.272 16.718-67.558 10.752-25.285 26.288-52.93 45.42-81.746 38.264-57.632 90.904-119.937 148.398-177.396s119.835-110.066 177.503-148.307c28.834-19.121 56.495-34.648 81.795-45.394Zm21.13-4.289a271 271 0 0 0-5.211-1.946 253 253 0 0 1 5.211-1.794q2.585.858 5.211 1.794a273 273 0 0 0-5.211 1.946Zm-9.513 4.289a306 306 0 0 1 9.513-3.856q2.62 1.01 5.276 2.092-1.657.682-3.33 1.393c-25.329 10.758-53.013 26.298-81.86 45.428C-238.35-116.082-300.713-63.455-358.22-5.982c-57.508 57.472-110.167 119.797-148.449 177.457-19.142 28.831-34.691 56.497-45.457 81.811-10.764 25.312-16.749 48.283-16.749 67.717s5.985 42.404 16.749 67.715c10.765 25.313 26.315 52.98 45.456 81.809 38.283 57.659 90.939 119.984 148.447 177.454 57.508 57.472 119.87 110.104 177.565 148.362 28.848 19.125 56.531 34.67 81.86 45.424 1.116.477 2.227.938 3.333 1.398q-2.657 1.077-5.275 2.093a313 313 0 0 1-9.516-3.862c-25.3-10.746-52.962-26.268-81.796-45.393-57.667-38.241-120.009-90.849-177.502-148.304-57.494-57.46-110.132-119.763-148.397-177.396-19.132-28.815-34.668-56.46-45.42-81.744-10.754-25.285-16.717-48.199-16.717-67.556 0-19.358 5.963-42.272 16.718-67.558 10.752-25.285 26.288-52.93 45.42-81.746 38.265-57.632 90.905-119.937 148.398-177.396s119.836-110.066 177.503-148.307c28.834-19.121 56.495-34.648 81.795-45.394Zm15.322-1.982a290 290 0 0 0-5.247-2.09q2.643-1.013 5.246-1.949a271 271 0 0 1 5.248 1.949 288 288 0 0 0-5.248 2.09Zm-3.705 1.982a324 324 0 0 1 3.704-1.546 319 319 0 0 1 5.3 2.229c-24.659 10.709-51.487 25.861-79.405 44.374-57.695 38.259-120.058 90.886-177.565 148.359-57.508 57.472-110.166 119.797-148.449 177.457-19.141 28.831-34.691 56.497-45.457 81.811-10.763 25.312-16.749 48.283-16.749 67.717s5.986 42.404 16.749 67.715c10.765 25.313 26.315 52.98 45.456 81.809 38.283 57.659 90.94 119.984 148.448 177.454 57.507 57.472 119.869 110.104 177.564 148.362 27.919 18.511 54.748 33.66 79.409 44.374q-.799.339-1.593.679a518 518 0 0 1-3.707 1.551 505 505 0 0 1-3.707-1.551c-25.3-10.746-52.962-26.268-81.796-45.393-57.668-38.241-120.009-90.849-177.502-148.304-57.494-57.46-110.132-119.763-148.396-177.396-19.133-28.815-34.668-56.46-45.421-81.744-10.753-25.285-16.717-48.199-16.717-67.556 0-19.358 5.964-42.272 16.718-67.558 10.752-25.285 26.288-52.93 45.42-81.746 38.265-57.632 90.905-119.937 148.398-177.396 57.494-57.459 119.836-110.066 177.503-148.307 28.833-19.121 56.495-34.648 81.795-45.394Zm9.513.463a315.125 315.125 0 0 0-5.275-2.227 296 296 0 0 1 5.275-2.092 296 296 0 0 1 5.276 2.092 308 308 0 0 0-5.276 2.227Zm-79.691 44.931c28.037-18.592 54.965-33.786 79.691-44.491q2.643 1.145 5.32 2.357c-23.047 10.507-47.868 24.722-73.617 41.797-57.695 38.259-120.058 90.886-177.566 148.359-57.507 57.472-110.165 119.797-148.448 177.457-19.141 28.831-34.691 56.497-45.456 81.811-10.764 25.312-16.75 48.283-16.75 67.717s5.986 42.404 16.75 67.715c10.764 25.313 26.314 52.98 45.455 81.809 38.282 57.659 90.94 119.984 148.447 177.454 57.508 57.472 119.87 110.104 177.565 148.362 25.749 17.072 50.572 31.293 73.62 41.797a408 408 0 0 1-5.32 2.359c-24.727-10.706-51.656-25.904-79.694-44.496-57.667-38.241-120.009-90.849-177.502-148.304-57.494-57.46-110.132-119.763-148.396-177.396-19.132-28.815-34.668-56.46-45.421-81.744-10.753-25.285-16.717-48.199-16.717-67.556 0-19.358 5.964-42.272 16.717-67.558 10.753-25.285 26.289-52.93 45.422-81.746 38.264-57.632 90.904-119.937 148.397-177.396 57.494-57.459 119.836-110.066 177.503-148.307Zm85.5-42.356a338 338 0 0 0-5.3-2.355 329 329 0 0 1 5.3-2.229 319 319 0 0 1 5.3 2.229 338 338 0 0 0-5.3 2.355Zm-73.883 42.356c25.856-17.146 50.77-31.402 73.883-41.913q2.653 1.207 5.338 2.479c-21.395 10.193-44.222 23.443-67.827 39.097-57.694 38.259-120.058 90.886-177.566 148.359-57.507 57.472-110.165 119.797-148.448 177.457-19.141 28.831-34.691 56.497-45.456 81.811-10.764 25.312-16.75 48.283-16.75 67.717s5.986 42.404 16.75 67.715c10.764 25.313 26.314 52.98 45.455 81.809 38.282 57.659 90.94 119.984 148.447 177.454 57.508 57.472 119.87 110.104 177.565 148.362 23.607 15.65 46.435 28.901 67.83 39.098-1.79.848-3.569 1.672-5.338 2.48-23.114-10.511-48.028-24.772-73.885-41.918-57.668-38.241-120.01-90.849-177.503-148.304-57.494-57.46-110.133-119.763-148.396-177.396-19.132-28.815-34.668-56.46-45.421-81.744-10.753-25.285-16.717-48.199-16.717-67.556 0-19.358 5.964-42.272 16.717-67.558 10.753-25.285 26.29-52.93 45.422-81.746 38.264-57.632 90.904-119.937 148.397-177.396 57.494-57.459 119.836-110.066 177.503-148.307Zm79.691-39.658a373 373 0 0 0-5.32-2.476 353 353 0 0 1 5.32-2.357q2.644 1.145 5.32 2.357a381 381 0 0 0-5.32 2.476Zm-68.074 39.658c23.704-15.719 46.616-29.009 68.074-39.211a415 415 0 0 1 5.353 2.594c-19.703 9.774-40.545 22.031-62.033 36.28-57.694 38.259-120.057 90.886-177.565 148.359-57.508 57.472-110.166 119.797-148.449 177.457-19.141 28.831-34.691 56.497-45.456 81.811-10.764 25.312-16.75 48.283-16.75 67.717s5.986 42.404 16.75 67.715c10.765 25.313 26.314 52.98 45.455 81.809 38.282 57.659 90.94 119.984 148.447 177.454 57.507 57.472 119.87 110.104 177.565 148.362 21.489 14.244 42.332 26.51 62.037 36.278a343 343 0 0 1-5.353 2.594c-21.46-10.197-44.373-23.488-68.077-39.212-57.668-38.241-120.01-90.849-177.503-148.304-57.493-57.46-110.132-119.763-148.396-177.396-19.132-28.815-34.668-56.46-45.421-81.744-10.753-25.285-16.717-48.199-16.717-67.556 0-19.358 5.964-42.272 16.717-67.558 10.753-25.285 26.29-52.93 45.422-81.746 38.264-57.632 90.904-119.937 148.397-177.396 57.494-57.459 119.836-110.066 177.503-148.307Zm73.883-36.842a401 401 0 0 0-5.338-2.592 383 383 0 0 1 5.338-2.479q2.653 1.207 5.337 2.479a401 401 0 0 0-5.337 2.592Zm-62.266 36.842c21.578-14.309 42.5-26.605 62.266-36.392a434 434 0 0 1 5.366 2.704c-17.979 9.254-36.845 20.491-56.238 33.351-57.694 38.259-120.057 90.886-177.565 148.359-57.507 57.472-110.166 119.797-148.449 177.457-19.141 28.831-34.691 56.497-45.456 81.811-10.764 25.312-16.749 48.283-16.749 67.717s5.985 42.404 16.749 67.715c10.765 25.313 26.314 52.98 45.455 81.809 38.282 57.659 90.94 119.984 148.447 177.454 57.507 57.472 119.871 110.104 177.565 148.362 19.394 12.855 38.261 24.094 56.241 33.353a439 439 0 0 1-5.366 2.699c-19.768-9.785-40.689-22.082-62.268-36.392-57.668-38.241-120.01-90.849-177.503-148.304-57.493-57.46-110.132-119.763-148.396-177.396-19.132-28.815-34.668-56.46-45.42-81.744-10.754-25.285-16.718-48.199-16.718-67.556 0-19.358 5.964-42.272 16.718-67.558 10.752-25.285 26.289-52.93 45.421-81.746C-421.6 114.067-368.96 51.762-311.466-5.697s119.835-110.066 177.502-148.307Zm68.074-33.915a438 438 0 0 0-5.353-2.702 415 415 0 0 1 5.353-2.594 415 415 0 0 1 5.353 2.594q-2.662 1.321-5.353 2.702Zm-56.457 33.915c19.477-12.915 38.417-24.191 56.457-33.461q2.676 1.375 5.378 2.809c-16.222 8.639-33.121 18.83-50.44 30.315-57.696 38.259-120.058 90.886-177.566 148.359-57.508 57.472-110.166 119.797-148.449 177.457-19.141 28.831-34.691 56.497-45.456 81.811-10.764 25.312-16.749 48.283-16.749 67.717s5.985 42.404 16.749 67.715c10.765 25.313 26.314 52.98 45.456 81.809 38.282 57.659 90.939 119.984 148.446 177.454 57.508 57.472 119.871 110.104 177.565 148.362 17.32 11.481 34.222 21.678 50.445 30.315a585 585 0 0 1-5.378 2.812c-18.041-9.276-36.984-20.547-56.46-33.467-57.668-38.241-120.01-90.849-177.503-148.304-57.493-57.46-110.132-119.763-148.396-177.396-19.132-28.815-34.668-56.46-45.42-81.744-10.754-25.285-16.717-48.199-16.717-67.556 0-19.358 5.963-42.272 16.717-67.558 10.752-25.285 26.289-52.93 45.421-81.746 38.264-57.632 90.904-119.937 148.398-177.396s119.835-110.066 177.502-148.307Zm62.266-30.881a451 451 0 0 0-5.367-2.807 440 440 0 0 1 5.367-2.704q2.67 1.322 5.367 2.704-2.671 1.374-5.367 2.807Zm-50.648 30.881c17.396-11.536 34.366-21.764 50.648-30.424q2.682 1.427 5.388 2.91c-14.437 7.936-29.377 17.054-44.642 27.177-57.696 38.259-120.058 90.886-177.566 148.359-57.508 57.472-110.166 119.797-148.449 177.457-19.141 28.831-34.691 56.497-45.456 81.811-10.764 25.312-16.749 48.283-16.749 67.717s5.985 42.404 16.749 67.715c10.765 25.313 26.315 52.98 45.456 81.809 38.282 57.659 90.939 119.984 148.447 177.454 57.507 57.472 119.87 110.104 177.565 148.362 15.266 10.124 30.207 19.238 44.646 27.18q-2.706 1.48-5.388 2.909c-16.284-8.662-33.254-18.891-50.652-30.429-57.668-38.241-120.01-90.849-177.503-148.304-57.493-57.46-110.132-119.763-148.396-177.396-19.132-28.815-34.668-56.46-45.42-81.744-10.754-25.285-16.717-48.199-16.717-67.556 0-19.358 5.963-42.272 16.717-67.558 10.752-25.285 26.289-52.93 45.421-81.746 38.265-57.632 90.904-119.937 148.398-177.396s119.835-110.066 177.503-148.307Zm56.456-27.745a492 492 0 0 0-5.377-2.907 460 460 0 0 1 5.377-2.809q2.676 1.375 5.378 2.809-2.676 1.425-5.378 2.907Zm-44.84 27.745c15.339-10.171 30.345-19.325 44.84-27.284q2.688 1.476 5.399 3.005c-12.627 7.149-25.613 15.168-38.845 23.942-57.695 38.259-120.057 90.886-177.565 148.359-57.508 57.472-110.165 119.797-148.448 177.457-19.141 28.831-34.692 56.497-45.457 81.811-10.763 25.312-16.749 48.283-16.749 67.717s5.985 42.404 16.749 67.715c10.765 25.313 26.315 52.98 45.456 81.809 38.282 57.659 90.94 119.984 148.447 177.454 57.507 57.472 119.87 110.104 177.565 148.362 13.232 8.774 26.22 16.79 38.847 23.94a620 620 0 0 1-5.398 3.006c-14.497-7.959-29.504-17.113-44.843-27.286-57.668-38.241-120.01-90.849-177.502-148.304-57.494-57.46-110.133-119.763-148.397-177.396-19.132-28.815-34.668-56.46-45.42-81.744-10.753-25.285-16.717-48.199-16.717-67.556 0-19.358 5.964-42.272 16.717-67.558 10.753-25.285 26.288-52.93 45.421-81.746 38.265-57.632 90.904-119.937 148.398-177.396s119.836-110.066 177.503-148.307Zm50.649-24.511q-2.706-1.529-5.388-3.003 2.706-1.483 5.388-2.91 2.682 1.427 5.388 2.91a520 520 0 0 0-5.388 3.003Zm-39.031 24.511c13.299-8.819 26.347-16.873 39.031-24.047 12.684 7.174 25.733 15.229 39.033 24.048 57.667 38.241 120.01 90.85 177.501 148.308 57.496 57.46 110.136 119.764 148.402 177.396 19.132 28.816 34.67 56.461 45.424 81.745 10.754 25.287 16.717 48.2 16.717 67.557s-5.963 42.271-16.717 67.556-26.292 52.929-45.424 81.744c-38.258 57.633-90.898 119.936-148.394 177.396C110.582 705.154 48.239 757.762-9.429 796.003c-13.3 8.824-26.35 16.879-39.034 24.046-12.685-7.167-25.735-15.222-39.035-24.046-57.667-38.241-120.01-90.849-177.503-148.304-57.493-57.46-110.132-119.763-148.396-177.396-19.131-28.815-34.668-56.46-45.42-81.744-10.753-25.285-16.717-48.199-16.717-67.556 0-19.358 5.964-42.272 16.717-67.558 10.753-25.285 26.289-52.93 45.422-81.746 38.264-57.632 90.903-119.937 148.396-177.396 57.495-57.459 119.837-110.066 177.504-148.307Zm39.442 974.287c12.627-7.15 25.615-15.166 38.847-23.94 57.696-38.258 120.059-90.89 177.567-148.362 57.512-57.47 110.168-119.795 148.45-177.454 19.141-28.829 34.694-56.496 45.457-81.809 10.762-25.311 16.749-48.282 16.749-67.715s-5.987-42.403-16.749-67.715c-10.763-25.313-26.316-52.98-45.457-81.81-38.282-57.659-90.946-119.985-148.45-177.458C110.85-63.453 48.487-116.08-9.209-154.34c-13.23-8.774-26.217-16.794-38.844-23.943a541 541 0 0 1 5.398-3.005c14.496 7.959 29.502 17.113 44.84 27.285 57.668 38.241 120.008 90.85 177.504 148.308 57.495 57.46 110.135 119.764 148.401 177.396 19.133 28.816 34.671 56.461 45.425 81.745 10.754 25.287 16.717 48.2 16.717 67.557s-5.963 42.271-16.717 67.556-26.292 52.929-45.425 81.744c-38.266 57.633-90.906 119.936-148.393 177.396-57.496 57.455-119.84 110.063-177.509 148.304-15.34 10.173-30.347 19.327-44.843 27.286a620 620 0 0 1-5.398-3.006Zm-5.8 3.24a619 619 0 0 0 5.39-3.005q2.705 1.526 5.388 3.005a586 586 0 0 1-5.389 2.909 595 595 0 0 1-5.388-2.909Zm5.82 3.135a573 573 0 0 0 5.378-2.909q2.7 1.48 5.378 2.909a585 585 0 0 1-5.378 2.812 573 573 0 0 1-5.378-2.812Zm5.82 3.038a572 572 0 0 0 5.366-2.812q2.697 1.43 5.367 2.812a433 433 0 0 1-5.367 2.699 440 440 0 0 1-5.366-2.699Zm11.175-.226a575 575 0 0 1-5.378-2.812c16.223-8.637 33.125-18.834 50.444-30.315 57.697-38.258 120.058-90.89 177.57-148.362 57.504-57.47 110.16-119.795 148.45-177.454 19.141-28.829 34.687-56.496 45.449-81.809 10.771-25.311 16.758-48.282 16.758-67.715s-5.987-42.403-16.758-67.715c-10.762-25.313-26.308-52.98-45.457-81.81C301.758 113.819 249.102 51.493 191.59-5.98 134.086-63.453 71.721-116.08 14.026-154.34c-17.32-11.485-34.22-21.677-50.443-30.316a466 466 0 0 1 5.379-2.809c18.04 9.27 36.98 20.546 56.457 33.462C83.087-115.762 145.43-63.153 202.926-5.695c57.496 57.46 110.136 119.764 148.402 177.396 19.133 28.816 34.662 56.461 45.416 81.745 10.755 25.287 16.717 48.2 16.717 67.557s-5.962 42.271-16.717 67.556-26.283 52.929-45.416 81.744c-38.266 57.633-90.906 119.936-148.402 177.396C145.43 705.154 83.091 757.762 25.423 796.003c-19.478 12.92-38.42 24.191-56.461 33.467Zm-5.353 3.151c1.775-.881 3.56-1.777 5.353-2.699 1.793.922 3.577 1.818 5.353 2.699a337 337 0 0 1-5.353 2.594 340 340 0 0 1-5.353-2.594Zm11.161-.226a439 439 0 0 1-5.366-2.699c17.98-9.259 36.848-20.498 56.242-33.353 57.695-38.258 120.059-90.89 177.563-148.362 57.512-57.47 110.168-119.795 148.45-177.454 19.141-28.829 34.695-56.496 45.457-81.809 10.77-25.311 16.749-48.282 16.749-67.715s-5.979-42.403-16.749-67.715c-10.762-25.313-26.316-52.98-45.457-81.81-38.282-57.659-90.938-119.985-148.45-177.458-57.504-57.473-119.87-110.1-177.566-148.36-19.393-12.86-38.26-24.098-56.24-33.352a434 434 0 0 1 5.367-2.704c19.767 9.787 40.689 22.083 62.266 36.393C94.704-115.762 157.05-63.153 214.545-5.695c57.488 57.46 110.136 119.764 148.393 177.396 19.133 28.816 34.671 56.461 45.425 81.745 10.754 25.287 16.717 48.2 16.717 67.557s-5.963 42.271-16.717 67.556-26.292 52.929-45.416 81.744c-38.266 57.633-90.906 119.936-148.402 177.396C157.049 705.154 94.708 757.762 37.04 796.003c-21.58 14.31-42.502 26.607-62.27 36.392Zm-5.337 3.046c1.77-.849 3.548-1.705 5.337-2.594 1.79.889 3.568 1.745 5.339 2.594a422 422 0 0 1-5.339 2.48 421 421 0 0 1-5.337-2.48Zm11.146-.226a340 340 0 0 1-5.353-2.594c19.705-9.768 40.549-22.034 62.037-36.278 57.695-38.258 120.061-90.89 177.565-148.362 57.512-57.47 110.168-119.795 148.45-177.454 19.141-28.829 34.694-56.496 45.457-81.809 10.762-25.311 16.749-48.282 16.749-67.715s-5.987-42.403-16.749-67.715c-10.763-25.313-26.316-52.98-45.457-81.81C324.996 113.819 272.34 51.493 214.828-5.98S94.956-116.08 37.26-154.34c-21.488-14.249-42.33-26.507-62.035-36.281a415 415 0 0 1 5.354-2.594c21.458 10.202 44.37 23.493 68.075 39.212 57.668 38.241 120.014 90.85 177.501 148.308 57.496 57.46 110.136 119.764 148.402 177.396 19.133 28.816 34.671 56.461 45.425 81.745 10.754 25.287 16.717 48.2 16.717 67.557s-5.963 42.271-16.717 67.556-26.292 52.929-45.425 81.744c-38.266 57.633-90.906 119.936-148.393 177.396-57.496 57.455-119.839 110.063-177.507 148.304-23.705 15.724-46.618 29.015-68.078 39.212Zm-5.32 2.925a560 560 0 0 0 5.32-2.473q2.676 1.26 5.32 2.473a412 412 0 0 1-5.32 2.359 407 407 0 0 1-5.32-2.359Zm11.128-.219a421 421 0 0 1-5.337-2.48c21.395-10.197 44.223-23.448 67.83-39.098 57.695-38.258 120.062-90.89 177.566-148.362 57.512-57.47 110.168-119.795 148.451-177.454 19.141-28.829 34.694-56.496 45.456-81.809 10.763-25.311 16.75-48.282 16.75-67.715s-5.987-42.403-16.75-67.715c-10.77-25.313-26.315-52.98-45.456-81.81C336.614 113.819 283.95 51.493 226.446-5.98c-57.512-57.473-119.874-110.1-177.569-148.36-23.606-15.654-46.433-28.905-67.828-39.098q2.685-1.272 5.338-2.479C9.5-185.406 34.415-171.15 60.271-154.003c57.672 38.241 120.007 90.85 177.503 148.308C295.27 51.765 347.91 114.07 386.176 171.701c19.133 28.816 34.67 56.461 45.425 81.745 10.754 25.287 16.717 48.2 16.717 67.557s-5.963 42.271-16.717 67.556c-10.755 25.284-26.292 52.929-45.425 81.744-38.266 57.633-90.906 119.936-148.394 177.396-57.496 57.455-119.839 110.063-177.508 148.304-25.858 17.146-50.772 31.407-73.887 41.918Zm-5.3 2.796a312 312 0 0 0 5.3-2.359c1.778.808 3.544 1.6 5.3 2.359q-.798.339-1.593.679a516 516 0 0 1-3.707 1.551 536 536 0 0 1-3.707-1.551zm11.109-.218a413 413 0 0 1-5.32-2.359c23.049-10.504 47.871-24.725 73.62-41.797 57.697-38.258 120.057-90.89 177.569-148.362 57.504-57.47 110.168-119.795 148.45-177.454 19.141-28.829 34.687-56.496 45.457-81.809 10.763-25.311 16.75-48.282 16.75-67.715s-5.987-42.403-16.75-67.715c-10.77-25.313-26.316-52.98-45.457-81.81-38.29-57.659-90.946-119.985-148.45-177.458-57.512-57.473-119.872-110.1-177.57-148.36-25.75-17.075-50.572-31.291-73.62-41.798a346 346 0 0 1 5.32-2.357c24.728 10.705 51.656 25.899 79.693 44.492 57.665 38.241 120.009 90.85 177.505 148.308 57.496 57.46 110.136 119.764 148.402 177.396 19.133 28.816 34.67 56.461 45.416 81.745 10.754 25.287 16.717 48.2 16.717 67.557s-5.963 42.271-16.717 67.556c-10.746 25.284-26.283 52.929-45.416 81.744-38.266 57.633-90.906 119.936-148.402 177.396-57.488 57.455-119.832 110.063-177.502 148.304-28.038 18.592-54.968 33.79-79.695 44.496Zm-1.944 1.268a213 213 0 0 0 1.944-.832q.975.423 1.944.832c1.115.477 2.225.938 3.331 1.398q-2.656 1.077-5.275 2.093a380 380 0 0 1-5.275-2.093c1.106-.46 2.216-.921 3.331-1.398Zm7.753 1.18a534 534 0 0 1-3.707-1.551q-.795-.34-1.593-.679c24.66-10.714 51.49-25.863 79.41-44.374 57.697-38.258 120.057-90.89 177.569-148.362 57.504-57.47 110.16-119.795 148.45-177.454 19.141-28.829 34.687-56.496 45.449-81.809 10.77-25.311 16.749-48.282 16.749-67.715s-5.979-42.403-16.749-67.715c-10.762-25.313-26.308-52.98-45.457-81.81-38.282-57.659-90.938-119.985-148.45-177.458-57.504-57.473-119.872-110.1-177.565-148.36-27.918-18.514-54.747-33.666-79.407-44.375q.8-.344 1.595-.683a319 319 0 0 1 3.706-1.546 325 325 0 0 1 3.705 1.547c25.3 10.746 52.961 26.273 81.795 45.394 57.667 38.241 120.011 90.85 177.507 148.308 57.496 57.46 110.135 119.764 148.401 177.396 19.133 28.816 34.663 56.461 45.417 81.745 10.754 25.287 16.717 48.2 16.717 67.557s-5.963 42.271-16.717 67.556-26.284 52.929-45.417 81.744c-38.266 57.633-90.905 119.936-148.401 177.396-57.496 57.455-119.84 110.063-177.504 148.304-28.834 19.125-56.496 34.647-81.796 45.393a534 534 0 0 1-3.707 1.551Zm-5.247 2.521a298 298 0 0 0 5.247-2.085q2.641 1.079 5.246 2.085c-1.762.679-3.51 1.325-5.246 1.955a283 283 0 0 1-5.247-1.955Zm11.055-.21a380 380 0 0 1-5.275-2.093c1.105-.46 2.216-.921 3.331-1.398 25.33-10.754 53.014-26.299 81.862-45.424 57.7-38.258 120.06-90.89 177.564-148.362 57.512-57.47 110.168-119.795 148.45-177.454 19.141-28.829 34.694-56.496 45.457-81.809 10.762-25.311 16.749-48.282 16.749-67.715s-5.987-42.403-16.749-67.715c-10.763-25.313-26.316-52.98-45.457-81.81-38.282-57.659-90.938-119.985-148.45-177.458-57.504-57.473-119.872-110.1-177.567-148.36-28.847-19.13-56.531-34.67-81.86-45.429a315 315 0 0 0-3.331-1.393q2.657-1.083 5.276-2.092a304 304 0 0 1 9.513 3.857c25.3 10.746 52.962 26.273 81.796 45.394 57.669 38.241 120.013 90.85 177.509 148.308 57.487 57.46 110.127 119.764 148.393 177.396 19.133 28.816 34.671 56.461 45.425 81.745 10.754 25.287 16.717 48.2 16.717 67.557s-5.963 42.271-16.717 67.556-26.292 52.929-45.425 81.744c-38.258 57.633-90.898 119.936-148.393 177.396-57.496 57.455-119.84 110.063-177.506 148.304-28.834 19.125-56.496 34.647-81.796 45.393a314 314 0 0 1-9.516 3.862Zm-5.21 2.375c1.724-.622 3.46-1.268 5.21-1.947 1.75.679 3.487 1.325 5.21 1.947q-2.625.934-5.21 1.794a273 273 0 0 1-5.21-1.794Zm11.019-.21a283 283 0 0 1-5.247-1.955c3.001-1.155 6.04-2.392 9.111-3.701 25.33-10.754 53.014-26.299 81.862-45.424 57.693-38.258 120.061-90.89 177.565-148.362 57.512-57.47 110.168-119.795 148.45-177.454 19.142-28.829 34.695-56.496 45.457-81.809 10.763-25.311 16.75-48.282 16.75-67.715s-5.987-42.403-16.75-67.715-26.315-52.98-45.457-81.81C383.081 113.819 330.425 51.493 272.913-5.98S153.041-116.08 95.345-154.34c-28.847-19.13-56.531-34.67-81.86-45.429a305 305 0 0 0-9.11-3.701 271 271 0 0 1 5.247-1.949c5 1.797 10.11 3.808 15.321 6.022 25.3 10.746 52.962 26.273 81.796 45.394 57.671 38.241 120.014 90.85 177.502 148.308 57.496 57.46 110.136 119.764 148.402 177.396 19.133 28.816 34.67 56.461 45.425 81.745 10.754 25.287 16.717 48.2 16.717 67.557s-5.963 42.271-16.717 67.556c-10.755 25.284-26.292 52.929-45.425 81.744-38.266 57.633-90.906 119.936-148.394 177.396-57.496 57.455-119.839 110.063-177.507 148.304-28.834 19.125-56.496 34.647-81.796 45.393a295 295 0 0 1-15.324 6.027Zm-5.167 2.214c1.709-.565 3.431-1.163 5.167-1.785 1.735.622 3.457 1.22 5.166 1.785a216 216 0 0 1-5.166 1.632 215 215 0 0 1-5.167-1.632Zm10.975-.21a269 269 0 0 1-5.21-1.794 294 294 0 0 0 14.883-5.866c25.33-10.754 53.014-26.299 81.863-45.424 57.694-38.258 120.062-90.89 177.566-148.362 57.512-57.47 110.168-119.795 148.45-177.454 19.141-28.829 34.687-56.496 45.457-81.809 10.762-25.311 16.75-48.282 16.75-67.715s-5.988-42.403-16.75-67.715c-10.77-25.313-26.316-52.98-45.457-81.81C394.7 113.819 342.036 51.493 284.532-5.98c-57.512-57.473-119.872-110.1-177.57-148.36-28.847-19.13-56.53-34.67-81.86-45.429a293 293 0 0 0-14.883-5.864 252 252 0 0 1 5.211-1.794c6.83 2.265 13.883 4.951 21.13 8.03 25.3 10.746 52.962 26.273 81.795 45.394C176.02-115.762 238.364-63.153 295.86-5.695c57.496 57.46 110.136 119.764 148.402 177.396 19.133 28.816 34.67 56.461 45.424 81.745 10.755 25.287 16.717 48.2 16.717 67.557s-5.962 42.271-16.717 67.556-26.291 52.929-45.424 81.744c-38.266 57.633-90.906 119.936-148.402 177.396-57.488 57.455-119.832 110.063-177.497 148.304-28.838 19.125-56.5 34.647-81.8 45.393-7.248 3.078-14.302 5.769-21.133 8.031Zm-5.109 2.052a251 251 0 0 0 5.11-1.624 251 251 0 0 0 5.108 1.624c-1.719.509-3.422.994-5.109 1.447-1.687-.453-3.39-.938-5.109-1.447Zm10.918-.21a215 215 0 0 1-5.166-1.632c6.682-2.23 13.574-4.864 20.648-7.87 25.329-10.754 53.014-26.299 81.86-45.424 57.698-38.258 120.058-90.89 177.57-148.362 57.504-57.47 110.168-119.795 148.45-177.454 19.141-28.829 34.687-56.496 45.457-81.809 10.762-25.311 16.749-48.282 16.749-67.715s-5.987-42.403-16.749-67.715c-10.77-25.313-26.316-52.98-45.457-81.81-38.29-57.659-90.946-119.985-148.45-177.458-57.512-57.473-119.872-110.1-177.57-148.36-28.849-19.13-56.534-34.67-81.862-45.429-7.074-3.005-13.964-5.637-20.647-7.87q2.606-.856 5.167-1.629c8.618 2.601 17.617 5.911 26.939 9.871 25.3 10.746 52.961 26.273 81.796 45.394 57.665 38.241 120.009 90.85 177.505 148.308 57.496 57.46 110.135 119.764 148.401 177.396 19.133 28.816 34.671 56.461 45.417 81.745 10.754 25.287 16.717 48.2 16.717 67.557s-5.963 42.271-16.717 67.556c-10.746 25.284-26.284 52.929-45.417 81.744-38.266 57.633-90.905 119.936-148.401 177.396-57.488 57.455-119.832 110.063-177.505 148.304-28.832 19.125-56.494 34.647-81.794 45.393-9.322 3.959-18.322 7.272-26.941 9.873Zm-5.032 1.867q2.494-.681 5.032-1.447 2.539.766 5.032 1.447-2.541.678-5.032 1.26a166 166 0 0 1-5.032-1.26Zm10.84-.21a207 207 0 0 1-5.108-1.447c8.458-2.577 17.277-5.833 26.399-9.712 25.329-10.754 53.014-26.299 81.862-45.424 57.698-38.258 120.058-90.89 177.57-148.362 57.504-57.47 110.16-119.795 148.45-177.454 19.141-28.829 34.686-56.496 45.449-81.809 10.77-25.311 16.749-48.282 16.749-67.715s-5.979-42.403-16.749-67.715c-10.763-25.313-26.316-52.98-45.457-81.81C417.93 113.819 365.273 51.493 307.761-5.98 250.258-63.453 187.89-116.08 130.2-154.34c-28.851-19.13-56.535-34.67-81.864-45.429-9.122-3.875-17.94-7.13-26.397-9.709q2.576-.768 5.108-1.451c10.358 2.794 21.31 6.674 32.748 11.532 25.3 10.746 52.96 26.273 81.797 45.394 57.666 38.241 120.01 90.85 177.505 148.308 57.496 57.46 110.136 119.764 148.402 177.396 19.125 28.816 34.663 56.461 45.417 81.745 10.754 25.287 16.717 48.2 16.717 67.557s-5.963 42.271-16.717 67.556-26.284 52.929-45.417 81.744c-38.266 57.633-90.906 119.936-148.402 177.396-57.495 57.455-119.839 110.063-177.505 148.304-28.837 19.125-56.495 34.647-81.796 45.393-11.437 4.864-22.39 8.742-32.749 11.53Zm-4.923 1.672q2.438-.584 4.923-1.252c1.657.444 3.298.864 4.924 1.252-1.658.38-3.3.735-4.924 1.05-1.625-.315-3.265-.67-4.923-1.05Zm10.732-.202a165 165 0 0 1-5.032-1.26c10.183-2.788 20.927-6.61 32.13-11.369 25.33-10.754 53.012-26.299 81.865-45.424 57.689-38.258 120.057-90.89 177.561-148.362 57.512-57.47 110.168-119.795 148.45-177.454 19.141-28.829 34.695-56.496 45.457-81.809 10.763-25.311 16.75-48.282 16.75-67.715s-5.987-42.403-16.75-67.715-26.316-52.98-45.457-81.81C429.548 113.819 376.892 51.493 319.38-5.98c-57.504-57.473-119.872-110.1-177.57-148.36-28.844-19.13-56.528-34.67-81.857-45.429-11.202-4.759-21.947-8.582-32.13-11.368q2.541-.674 5.033-1.259c12.043 2.829 24.957 7.222 38.556 12.999 25.3 10.746 52.962 26.273 81.799 45.394 57.666 38.241 120.009 90.85 177.505 148.308 57.488 57.46 110.128 119.764 148.394 177.396 19.133 28.816 34.67 56.461 45.424 81.745 10.755 25.287 16.718 48.2 16.718 67.557s-5.963 42.271-16.718 67.556-26.291 52.929-45.424 81.744c-38.258 57.633-90.898 119.936-148.394 177.396-57.496 57.455-119.839 110.063-177.505 148.304-28.837 19.125-56.497 34.647-81.797 45.393-13.6 5.777-26.514 10.172-38.558 13Zm-4.762 1.454q2.358-.472 4.762-1.042a139 139 0 0 0 4.76 1.042q-2.405.46-4.76.825-2.356-.365-4.762-.825Zm10.57-.202c-1.624-.315-3.265-.67-4.923-1.05 11.846-2.836 24.515-7.175 37.831-12.831 25.33-10.754 53.012-26.299 81.865-45.424 57.69-38.258 120.058-90.89 177.562-148.362 57.512-57.47 110.168-119.795 148.45-177.454 19.141-28.829 34.695-56.496 45.457-81.809 10.762-25.311 16.75-48.282 16.75-67.715s-5.988-42.403-16.75-67.715-26.316-52.98-45.457-81.81C441.167 113.819 388.503 51.493 330.999-5.98c-57.512-57.473-119.872-110.1-177.57-148.36-28.845-19.13-56.53-34.67-81.859-45.429-13.315-5.656-25.983-9.992-37.83-12.832q2.488-.57 4.924-1.05c13.668 2.691 28.553 7.538 44.365 14.254 25.3 10.746 52.964 26.273 81.793 45.394 57.673 38.241 120.017 90.85 177.505 148.308 57.496 57.46 110.136 119.764 148.402 177.396 19.132 28.816 34.67 56.461 45.424 81.745 10.754 25.287 16.717 48.2 16.717 67.557s-5.963 42.271-16.717 67.556-26.292 52.929-45.424 81.744c-38.266 57.633-90.906 119.936-148.394 177.396-57.496 57.455-119.84 110.063-177.505 148.304-28.837 19.125-56.499 34.647-81.8 45.393-15.811 6.714-30.697 11.562-44.366 14.252Zm-4.489 1.229a143 143 0 0 0 4.49-.816c1.51.298 3.007.573 4.489.816q-2.27.325-4.49.565a130 130 0 0 1-4.489-.565Zm10.298-.202q-2.355-.365-4.761-.825c13.439-2.731 28.021-7.514 43.477-14.083 25.329-10.754 53.014-26.299 81.859-45.424 57.698-38.258 120.058-90.89 177.57-148.362 57.512-57.47 110.168-119.795 148.45-177.454 19.141-28.829 34.687-56.496 45.457-81.809 10.762-25.311 16.749-48.282 16.749-67.715s-5.987-42.403-16.749-67.715c-10.77-25.313-26.316-52.98-45.457-81.81-38.282-57.659-90.946-119.985-148.45-177.458-57.512-57.473-119.872-110.1-177.57-148.36-28.845-19.13-56.532-34.67-81.861-45.429-15.455-6.565-30.037-11.351-43.475-14.085a146 146 0 0 1 4.76-.822c15.224 2.363 32.093 7.599 50.174 15.279 25.301 10.746 52.966 26.273 81.794 45.394 57.666 38.241 120.01 90.85 177.506 148.308 57.496 57.46 110.135 119.764 148.401 177.396 19.133 28.816 34.671 56.461 45.425 81.745 10.746 25.287 16.717 48.2 16.717 67.557s-5.963 42.271-16.717 67.556-26.292 52.929-45.425 81.744c-38.266 57.633-90.905 119.936-148.401 177.396-57.488 57.455-119.832 110.063-177.506 148.304-28.828 19.125-56.493 34.647-81.792 45.393-18.081 7.684-34.95 12.919-50.175 15.279Zm-3.942.961c1.302-.161 2.615-.347 3.942-.549 1.326.202 2.64.388 3.941.549q-1.993.18-3.94.299-1.95-.12-3.943-.299Zm9.75-.194a130 130 0 0 1-4.489-.565c14.938-2.465 31.41-7.628 49.014-15.11 25.326-10.754 53.016-26.299 81.861-45.424 57.698-38.258 120.057-90.89 177.57-148.362 57.503-57.47 110.168-119.795 148.45-177.454 19.141-28.829 34.686-56.496 45.457-81.809 10.762-25.311 16.749-48.282 16.749-67.715s-5.987-42.403-16.749-67.715c-10.771-25.313-26.316-52.98-45.457-81.81C464.396 113.819 411.74 51.493 354.237-5.98c-57.513-57.473-119.881-110.1-177.57-148.36-28.853-19.13-56.535-34.67-81.863-45.429-17.603-7.477-34.074-12.647-49.012-15.105q2.27-.329 4.489-.572c16.7 1.823 35.569 7.378 55.982 16.049 25.302 10.746 52.959 26.273 81.796 45.394 57.666 38.241 120.01 90.85 177.505 148.308C423.06 51.765 475.7 114.07 513.966 171.701c19.133 28.816 34.671 56.461 45.417 81.745 10.754 25.287 16.717 48.2 16.717 67.557s-5.963 42.271-16.717 67.556c-10.746 25.284-26.284 52.929-45.417 81.744-38.266 57.633-90.906 119.936-148.402 177.396-57.495 57.455-119.831 110.063-177.505 148.304-28.829 19.125-56.494 34.647-81.794 45.393-20.414 8.669-39.282 14.228-55.984 16.046Zm-2.275.638q1.13-.106 2.275-.226 1.145.12 2.276.226a102 102 0 0 1-4.551 0Zm8.084-.145a138 138 0 0 1-3.942-.299c16.3-2.02 34.58-7.498 54.275-15.869 25.328-10.754 53.018-26.299 81.862-45.424 57.698-38.258 120.058-90.89 177.57-148.362 57.504-57.47 110.16-119.795 148.442-177.454 19.149-28.829 34.695-56.496 45.457-81.809 10.771-25.311 16.75-48.282 16.75-67.715s-5.979-42.403-16.75-67.715c-10.762-25.313-26.316-52.98-45.457-81.81-38.282-57.659-90.938-119.985-148.45-177.458-57.504-57.473-119.872-110.1-177.562-148.36-28.852-19.13-56.534-34.67-81.864-45.429-19.695-8.366-37.974-13.843-54.274-15.866q1.993-.186 3.942-.298c18.088 1.045 38.974 6.844 61.789 16.536 25.306 10.746 52.963 26.273 81.8 45.394 57.666 38.241 120.009 90.85 177.505 148.308 57.496 57.46 110.136 119.764 148.394 177.396 19.133 28.816 34.67 56.461 45.424 81.745 10.755 25.287 16.717 48.2 16.717 67.557s-5.962 42.271-16.717 67.556-26.283 52.929-45.416 81.744c-38.266 57.633-90.906 119.936-148.402 177.396-57.496 57.455-119.839 110.063-177.505 148.304-28.837 19.125-56.494 34.647-81.792 45.393-22.821 9.695-43.708 15.489-61.796 16.539Zm5.808.17q-1.13 0-2.275-.025c17.323-1.551 37.035-7.231 58.417-16.313 25.33-10.754 53.011-26.299 81.864-45.424 57.69-38.258 120.058-90.89 177.562-148.362 57.512-57.47 110.168-119.795 148.45-177.454 19.141-28.829 34.695-56.496 45.457-81.809 10.762-25.311 16.749-48.282 16.749-67.715s-5.987-42.403-16.749-67.715-26.316-52.98-45.457-81.81C487.634 113.819 434.978 51.493 377.466-5.98c-57.504-57.473-119.872-110.1-177.57-148.36-28.845-19.13-56.526-34.67-81.856-45.429-21.383-9.082-41.095-14.76-58.417-16.309a97 97 0 0 1 2.275-.027c19.37 0 42.297 5.961 67.599 16.708 25.298 10.746 52.963 26.273 81.8 45.394 57.665 38.241 120.009 90.85 177.505 148.308C446.29 51.765 498.93 114.07 537.195 171.701c19.133 28.816 34.671 56.461 45.425 81.745 10.754 25.287 16.717 48.2 16.717 67.557s-5.963 42.271-16.717 67.556-26.292 52.929-45.425 81.744c-38.257 57.633-90.897 119.936-148.393 177.396-57.496 57.455-119.84 110.063-177.505 148.304-28.837 19.125-56.494 34.647-81.8 45.393-25.3 10.746-48.229 16.709-67.599 16.709ZM50.282-216.105q1.13 0 2.275.027-1.131.102-2.276.226-1.145-.124-2.275-.226a97 97 0 0 1 2.276-.027Zm-5.809.172q1.95.112 3.941.298-1.95.243-3.942.551a132 132 0 0 0-3.941-.551q1.992-.186 3.942-.298Zm-5.809.487q2.22.243 4.49.572-2.223.366-4.49.811-2.267-.445-4.49-.811 2.27-.329 4.49-.572Zm-5.808.77q2.355.366 4.76.822-2.357.48-4.76 1.043a169 169 0 0 0-4.762-1.043q2.407-.456 4.762-.822Zm-5.809 1.025q2.436.48 4.924 1.05-2.439.585-4.924 1.254a184 184 0 0 0-4.924-1.254q2.488-.57 4.924-1.05Zm-5.808 1.255q2.49.585 5.031 1.259-2.494.683-5.031 1.447-2.54-.764-5.032-1.447 2.54-.674 5.032-1.259Zm-5.809 1.467q2.53.683 5.11 1.451-2.535.773-5.11 1.625-2.576-.852-5.109-1.625 2.577-.768 5.11-1.451Zm-5.808 1.661q2.56.774 5.166 1.629-2.563.856-5.166 1.791a248 248 0 0 0-5.167-1.791q2.606-.855 5.167-1.629Zm-5.809 1.841q2.585.858 5.21 1.794a271 271 0 0 0-5.21 1.946 273 273 0 0 0-5.211-1.946q2.626-.936 5.211-1.794Zm-5.808 2.008q2.603.936 5.246 1.949a291 291 0 0 0-5.246 2.09 291 291 0 0 0-5.247-2.09 271 271 0 0 1 5.247-1.949Zm-5.81 2.165q2.62 1.01 5.276 2.092a308 308 0 0 0-5.275 2.227 307.967 307.967 0 0 0-5.276-2.227q2.657-1.083 5.276-2.092Zm-2.102 3.857q.796.337 1.594.682a335 335 0 0 0-5.3 2.355 338 338 0 0 0-5.3-2.355q.8-.344 1.596-.683 1.861-.79 3.704-1.546 1.845.756 3.706 1.547Zm-9.514.902q2.643 1.145 5.32 2.357a377 377 0 0 0-5.32 2.476 381 381 0 0 0-5.32-2.476 353 353 0 0 1 5.32-2.357Zm-5.809 2.578q2.653 1.207 5.338 2.479-2.655 1.264-5.338 2.592a396 396 0 0 0-5.338-2.592q2.686-1.272 5.338-2.479Zm-5.808 2.702q2.661 1.266 5.353 2.594-2.664 1.321-5.353 2.702a438 438 0 0 0-5.353-2.702 415 415 0 0 1 5.353-2.594Zm-5.809 2.819q2.67 1.322 5.367 2.704-2.672 1.374-5.367 2.807a464 464 0 0 0-5.367-2.807 435 435 0 0 1 5.367-2.704Zm-5.808 2.931q2.676 1.375 5.377 2.809-2.676 1.425-5.377 2.907a491 491 0 0 0-5.378-2.907 459 459 0 0 1 5.378-2.809ZM2.409-154.34c-15.266-10.124-30.206-19.242-44.645-27.178a493 493 0 0 1 5.39-2.91c16.282 8.66 33.252 18.888 50.648 30.425C71.47-115.762 133.811-63.153 191.307-5.695c57.496 57.46 110.136 119.764 148.402 177.396 19.133 28.816 34.67 56.461 45.417 81.745 10.754 25.287 16.725 48.2 16.725 67.557s-5.971 42.271-16.725 67.556c-10.747 25.284-26.284 52.929-45.417 81.744-38.266 57.633-90.906 119.936-148.402 177.396C133.82 705.154 71.473 757.762 13.805 796.003c-17.398 11.538-34.369 21.767-50.652 30.429a586 586 0 0 1-5.388-2.909c14.438-7.942 29.38-17.056 44.646-27.18 57.697-38.258 120.056-90.89 177.568-148.362 57.504-57.47 110.168-119.795 148.451-177.454 19.141-28.829 34.686-56.496 45.457-81.809 10.762-25.311 16.749-48.282 16.749-67.715s-5.987-42.403-16.749-67.715c-10.771-25.313-26.316-52.98-45.457-81.81C290.147 113.819 237.483 51.493 179.979-5.98 122.467-63.453 60.104-116.08 2.409-154.34Zm-45.506-33.352q-2.672 1.374-5.367 2.807a465 465 0 0 0-5.367-2.807 434 434 0 0 1 5.367-2.704q2.67 1.322 5.367 2.704Zm-5.823-2.929q-2.663 1.321-5.353 2.702a439 439 0 0 0-5.352-2.702 415 415 0 0 1 5.352-2.594q2.663 1.266 5.353 2.594Zm-5.824-2.817q-2.654 1.264-5.337 2.592a400 400 0 0 0-5.338-2.592 379 379 0 0 1 5.338-2.479q2.654 1.207 5.337 2.479Zm-5.825-2.7a377 377 0 0 0-5.32 2.476 372 372 0 0 0-5.321-2.476 353 353 0 0 1 5.32-2.357q2.644 1.145 5.32 2.357Zm-5.83-2.577a338 338 0 0 0-5.3 2.355 338 338 0 0 0-5.299-2.355 329 329 0 0 1 5.3-2.229 325 325 0 0 1 5.3 2.229Zm-9.162-1.054q-.97.411-1.946.834a327 327 0 0 0-5.275-2.227q2.656-1.083 5.275-2.092a296 296 0 0 1 5.276 2.092q-1.658.682-3.33 1.393Zm-2.507-3.701a291 291 0 0 0-5.247 2.09 291 291 0 0 0-5.247-2.09q2.643-1.013 5.247-1.949a271 271 0 0 1 5.247 1.949Zm-5.845-2.163q-2.585.935-5.211 1.946a271 271 0 0 0-5.21-1.946q2.625-.936 5.21-1.794 2.585.858 5.21 1.794Zm-5.853-2.006q-2.563.856-5.166 1.791a246 246 0 0 0-5.167-1.791q2.606-.856 5.166-1.629 2.562.773 5.167 1.629Zm-5.866-1.839a228 228 0 0 0-5.109 1.625q-2.576-.852-5.109-1.625 2.578-.768 5.109-1.451 2.532.683 5.109 1.451Zm-5.886-1.659q-2.494.683-5.032 1.447a208 208 0 0 0-5.032-1.447q2.541-.674 5.032-1.259 2.493.585 5.032 1.259Zm-5.916-1.464q-2.439.585-4.924 1.254a185 185 0 0 0-4.924-1.254q2.487-.57 4.924-1.05 2.437.48 4.924 1.05Zm-5.971-1.253q-2.358.48-4.762 1.043a168 168 0 0 0-4.76-1.043 146 146 0 0 1 4.76-.822q2.355.366 4.762.822Zm-6.08-1.02q-2.223.366-4.49.811a148 148 0 0 0-4.49-.811q2.27-.329 4.49-.572 2.22.243 4.49.572Zm-6.356-.761q-1.953.243-3.942.551a132 132 0 0 0-3.943-.551 112 112 0 0 1 3.943-.298q1.95.112 3.942.298Zm-7.475-.443q-1.131.102-2.276.226-1.145-.124-2.276-.226a97 97 0 0 1 4.552 0Zm9.341.226q-1.145-.124-2.276-.226a97 97 0 0 1 4.552 0q-1.131.102-2.276.226Zm1.867.217q1.992-.186 3.942-.298 1.95.112 3.941.298-1.952.243-3.941.551a132 132 0 0 0-3.942-.551Zm5.261.761q2.27-.329 4.489-.572 2.22.243 4.49.572-2.223.366-4.49.811a148 148 0 0 0-4.489-.811Zm10.297-.21q-1.989-.309-3.942-.551 1.993-.186 3.942-.298 1.95.112 3.942.298-1.95.243-3.942.551Zm-4.76 1.23q2.406-.456 4.76-.822 2.356.366 4.762.822-2.358.48-4.762 1.043a168 168 0 0 0-4.76-1.043Zm10.569-.209a148 148 0 0 0-4.489-.811q2.27-.329 4.489-.572 2.22.243 4.49.572-2.222.366-4.49.811Zm-4.924 1.462q2.487-.57 4.924-1.05 2.437.48 4.924 1.05-2.439.585-4.924 1.254a184 184 0 0 0-4.924-1.254Zm10.733-.21q-2.404-.563-4.762-1.043a146 146 0 0 1 4.761-.822q2.355.366 4.762.822-2.357.48-4.761 1.043Zm-5.032 1.674q2.541-.674 5.031-1.259 2.492.585 5.033 1.259-2.494.683-5.032 1.447-2.538-.764-5.032-1.447Zm10.84-.21a184 184 0 0 0-4.924-1.254q2.487-.57 4.924-1.05 2.437.48 4.924 1.05-2.44.585-4.924 1.254Zm-5.109 1.869q2.578-.768 5.109-1.451 2.531.683 5.109 1.451a229 229 0 0 0-5.109 1.625q-2.576-.852-5.109-1.625Zm10.918-.212q-2.538-.764-5.032-1.447 2.54-.674 5.032-1.259 2.49.585 5.032 1.259-2.494.683-5.032 1.447Zm-5.167 2.051q2.606-.855 5.167-1.629 2.561.774 5.166 1.629-2.562.856-5.166 1.791a247 247 0 0 0-5.167-1.791Zm10.975-.214q-2.576-.852-5.109-1.625 2.578-.768 5.11-1.451 2.53.683 5.108 1.451a228 228 0 0 0-5.109 1.625Zm-5.21 2.22q2.626-.936 5.21-1.794 2.586.858 5.21 1.794-2.585.935-5.21 1.946a271 271 0 0 0-5.21-1.946Zm11.019-.215a247 247 0 0 0-5.167-1.791q2.606-.856 5.167-1.629 2.561.773 5.166 1.629-2.562.856-5.166 1.791Zm-5.247 2.378q2.643-1.013 5.247-1.949 2.603.936 5.246 1.949a291 291 0 0 0-5.246 2.09q-2.64-1.082-5.247-2.09Zm11.055-.217a271 271 0 0 0-5.21-1.946q2.626-.936 5.21-1.794 2.586.858 5.21 1.794a271 271 0 0 0-5.21 1.946Zm-5.275 2.525q2.656-1.083 5.275-2.092 2.62 1.01 5.276 2.092a315 315 0 0 0-5.276 2.227 327 327 0 0 0-5.275-2.227Zm11.084-.218q-2.641-1.082-5.246-2.09 2.642-1.013 5.246-1.949 2.604.936 5.246 1.949a291 291 0 0 0-5.246 2.09Zm-3.705 1.982q1.86-.79 3.705-1.546a324 324 0 0 1 5.3 2.229 338 338 0 0 0-5.3 2.355 337 337 0 0 0-5.3-2.355q.799-.344 1.595-.683Zm9.513.463a327 327 0 0 0-5.275-2.227q2.656-1.083 5.275-2.092 2.62 1.01 5.276 2.092a315 315 0 0 0-5.276 2.227Zm-5.32 2.797a353 353 0 0 1 5.32-2.357 353 353 0 0 1 5.321 2.357 373 373 0 0 0-5.32 2.476 377 377 0 0 0-5.321-2.476Zm11.129-.222a338 338 0 0 0-5.3-2.355 329 329 0 0 1 5.3-2.229 325 325 0 0 1 5.3 2.229 338 338 0 0 0-5.3 2.355Zm-5.337 2.922a379 379 0 0 1 5.337-2.479q2.653 1.207 5.337 2.479-2.654 1.264-5.337 2.592a401 401 0 0 0-5.337-2.592Zm11.146-.224a382 382 0 0 0-5.321-2.476 353 353 0 0 1 5.32-2.357q2.644 1.145 5.321 2.357a373 373 0 0 0-5.32 2.476Zm-5.353 3.041q2.69-1.328 5.353-2.594a415 415 0 0 1 5.352 2.594q-2.663 1.321-5.352 2.702a439 439 0 0 0-5.353-2.702Zm11.161-.225a395 395 0 0 0-5.338-2.592q2.685-1.272 5.338-2.479 2.653 1.207 5.338 2.479a401 401 0 0 0-5.338 2.592Zm11.13-5.292a372 372 0 0 0-5.321 2.476 381 381 0 0 0-5.32-2.476 353 353 0 0 1 5.32-2.357q2.643 1.145 5.32 2.357Zm-5.83-2.577a338 338 0 0 0-5.3 2.355 338 338 0 0 0-5.3-2.355 329 329 0 0 1 5.3-2.229 324 324 0 0 1 5.3 2.229Zm-9.163-1.054q-.97.411-1.945.834a354 354 0 0 0-5.276-2.227q2.656-1.083 5.276-2.092 2.62 1.01 5.275 2.092-1.657.682-3.33 1.393Zm-2.508-3.701a291 291 0 0 0-5.246 2.09 291 291 0 0 0-5.246-2.09q2.642-1.013 5.246-1.949 2.604.936 5.246 1.949Zm-5.844-2.163a271 271 0 0 0-5.21 1.946 271 271 0 0 0-5.211-1.946q2.626-.936 5.21-1.794 2.585.858 5.211 1.794Zm-5.853-2.006q-2.563.856-5.166 1.791a247 247 0 0 0-5.166-1.791q2.606-.855 5.166-1.629 2.561.774 5.166 1.629Zm-5.866-1.839a229 229 0 0 0-5.109 1.625q-2.576-.852-5.109-1.625 2.578-.768 5.11-1.451 2.53.683 5.108 1.451Zm-5.885-1.659q-2.494.683-5.032 1.447-2.538-.764-5.032-1.447 2.54-.674 5.032-1.259 2.49.585 5.032 1.259Zm-5.917-1.464q-2.439.585-4.924 1.254a184 184 0 0 0-4.924-1.254q2.487-.57 4.924-1.05 2.436.48 4.924 1.05Zm-5.971-1.253q-2.357.48-4.761 1.043-2.404-.563-4.762-1.043 2.407-.456 4.762-.822 2.355.366 4.761.822Zm-6.08-1.02q-2.222.366-4.49.811-2.265-.445-4.49-.811 2.27-.329 4.49-.572 2.22.243 4.49.572Zm-6.356-.761q-1.952.243-3.943.551-1.988-.309-3.942-.551 1.993-.186 3.942-.298 1.95.112 3.943.298Zm-7.475-.443q-1.131.102-2.276.226a125 125 0 0 0-2.275-.226 97 97 0 0 1 4.551 0Zm-11.617 0q-1.131.102-2.276.226-1.145-.124-2.276-.226a97 97 0 0 1 4.552 0Zm20.958.226q-1.144-.124-2.275-.226a97 97 0 0 1 4.551 0q-1.131.102-2.276.226Zm1.866.217q1.993-.186 3.943-.298 1.95.112 3.942.298-1.953.243-3.942.551-1.989-.309-3.943-.551Zm5.262.761q2.27-.329 4.49-.572 2.22.243 4.488.572-2.22.366-4.489.811a148 148 0 0 0-4.489-.811Zm10.298-.21q-1.99-.309-3.942-.551 1.992-.186 3.942-.298 1.95.112 3.942.298a132 132 0 0 0-3.942.551Zm-4.762 1.23q2.407-.456 4.762-.822 2.355.366 4.761.822-2.356.48-4.761 1.043-2.404-.563-4.762-1.043Zm10.57-.209q-2.266-.445-4.489-.811 2.27-.329 4.49-.572 2.22.243 4.488.572-2.22.366-4.489.811Zm-4.924 1.462q2.488-.57 4.924-1.05 2.437.48 4.924 1.05-2.439.585-4.924 1.254a184 184 0 0 0-4.924-1.254Zm10.733-.21q-2.404-.563-4.762-1.043a146 146 0 0 1 4.762-.822q2.355.366 4.761.822-2.357.48-4.761 1.043Zm-5.032 1.674q2.54-.674 5.032-1.259 2.491.585 5.032 1.259-2.494.683-5.032 1.447-2.538-.764-5.032-1.447Zm10.84-.21a184 184 0 0 0-4.923-1.254q2.488-.57 4.923-1.05 2.437.48 4.924 1.05-2.438.585-4.924 1.254Zm-5.108 1.869a203 203 0 0 1 5.108-1.451q2.531.683 5.11 1.451a229 229 0 0 0-5.11 1.625q-2.575-.852-5.108-1.625Zm10.917-.212q-2.538-.764-5.032-1.447 2.54-.674 5.032-1.259 2.492.585 5.032 1.259-2.494.683-5.032 1.447Zm-5.166 2.051q2.605-.856 5.166-1.629 2.561.773 5.166 1.629-2.563.856-5.166 1.791a249 249 0 0 0-5.166-1.791Zm10.975-.214q-2.575-.852-5.11-1.625 2.579-.768 5.11-1.451 2.53.683 5.108 1.451a228 228 0 0 0-5.108 1.625Zm-5.211 2.22a253 253 0 0 1 5.21-1.794q2.585.858 5.211 1.794a271 271 0 0 0-5.21 1.946 273 273 0 0 0-5.211-1.946Zm11.02-.215a248 248 0 0 0-5.167-1.791 229 229 0 0 1 5.166-1.629q2.561.774 5.166 1.629-2.562.856-5.166 1.791Zm-5.248 2.378a271 271 0 0 1 5.247-1.949q2.604.936 5.246 1.949a291 291 0 0 0-5.246 2.09 288 288 0 0 0-5.247-2.09Zm11.056-.217a275 275 0 0 0-5.211-1.946q2.625-.936 5.21-1.794 2.585.858 5.211 1.794a271 271 0 0 0-5.21 1.946Zm-5.276 2.525a296 296 0 0 1 5.276-2.092q2.62 1.01 5.275 2.092a315 315 0 0 0-5.275 2.227 351 351 0 0 0-5.276-2.227Zm11.084-.218q-2.64-1.082-5.247-2.09a271 271 0 0 1 5.247-1.949q2.603.936 5.247 1.949a291 291 0 0 0-5.247 2.09Zm-3.704 1.982a318 318 0 0 1 3.704-1.546 325 325 0 0 1 5.3 2.229 337 337 0 0 0-5.3 2.355 338 338 0 0 0-5.3-2.355q.8-.344 1.596-.683Zm9.513.463a351 351 0 0 0-5.276-2.227 296 296 0 0 1 5.276-2.092 296 296 0 0 1 5.275 2.092 315 315 0 0 0-5.275 2.227Zm11.055-4.535a291 291 0 0 0-5.247 2.09 291 291 0 0 0-5.247-2.09 271 271 0 0 1 5.247-1.949q2.604.936 5.247 1.949Zm-5.844-2.163a271 271 0 0 0-5.211 1.946 273 273 0 0 0-5.212-1.946q2.626-.936 5.212-1.794 2.584.858 5.21 1.794Zm-5.853-2.006q-2.564.856-5.167 1.791a248 248 0 0 0-5.166-1.791q2.605-.856 5.166-1.629 2.561.773 5.166 1.629Zm-5.867-1.839a229 229 0 0 0-5.108 1.625q-2.575-.852-5.11-1.625 2.58-.768 5.11-1.451 2.53.683 5.108 1.451Zm-5.885-1.659q-2.494.683-5.032 1.447-2.538-.764-5.032-1.447 2.54-.674 5.032-1.259 2.492.585 5.032 1.259Zm-5.917-1.464q-2.438.585-4.923 1.254a184 184 0 0 0-4.924-1.254q2.487-.57 4.924-1.05 2.436.48 4.923 1.05Zm-5.97-1.253q-2.359.48-4.762 1.043a168 168 0 0 0-4.761-1.043q2.406-.456 4.761-.822 2.355.366 4.761.822Zm-6.081-1.02a148 148 0 0 0-4.49.811q-2.266-.445-4.489-.811 2.27-.329 4.49-.572 2.219.243 4.489.572Zm-6.356-.761a132 132 0 0 0-3.942.551q-1.99-.309-3.942-.551 1.993-.186 3.942-.298 1.95.112 3.942.298Zm-7.475-.443q-1.13.102-2.276.226-1.143-.124-2.276-.226a97 97 0 0 1 4.552 0Zm-11.617 0q-1.13.102-2.276.226-1.144-.124-2.276-.226a97 97 0 0 1 4.552 0Zm20.958.226q-1.143-.124-2.276-.226a97 97 0 0 1 4.553 0q-1.131.102-2.277.226Zm1.867.217a112 112 0 0 1 3.942-.298q1.95.112 3.942.298-1.952.243-3.942.551-1.99-.309-3.942-.551Zm5.261.761q2.27-.329 4.49-.572 2.218.243 4.489.572-2.223.366-4.49.811a148 148 0 0 0-4.489-.811Zm10.298-.21q-1.99-.309-3.942-.551 1.992-.186 3.942-.298 1.95.112 3.942.298-1.952.243-3.942.551Zm-4.761 1.23a146 146 0 0 1 4.761-.822q2.355.366 4.762.822-2.359.48-4.762 1.043-2.404-.563-4.761-1.043Zm10.57-.209q-2.267-.445-4.49-.811 2.27-.329 4.49-.572 2.22.243 4.489.572-2.222.366-4.49.811Zm-4.924 1.462q2.488-.57 4.924-1.05 2.436.48 4.924 1.05-2.44.585-4.924 1.254a184 184 0 0 0-4.924-1.254Zm10.732-.21q-2.404-.563-4.761-1.043 2.406-.456 4.761-.822 2.355.366 4.762.822-2.358.48-4.762 1.043Zm-5.032 1.674q2.54-.674 5.032-1.259 2.493.585 5.032 1.259-2.493.683-5.032 1.447-2.538-.764-5.032-1.447Zm10.84-.21a184 184 0 0 0-4.923-1.254q2.488-.57 4.924-1.05 2.436.48 4.924 1.05-2.44.585-4.924 1.254Zm-5.108 1.869q2.577-.768 5.109-1.451 2.53.683 5.109 1.451a229 229 0 0 0-5.11 1.625q-2.575-.852-5.108-1.625Zm10.917-.212q-2.538-.764-5.032-1.447 2.54-.674 5.032-1.259 2.491.585 5.032 1.259-2.494.683-5.032 1.447Zm-5.166 2.051a229 229 0 0 1 5.166-1.629q2.562.774 5.167 1.629-2.564.856-5.167 1.791a248 248 0 0 0-5.166-1.791Zm10.975-.214q-2.576-.852-5.109-1.625 2.578-.768 5.109-1.451 2.53.683 5.109 1.451a229 229 0 0 0-5.109 1.625Zm-5.211 2.22q2.626-.936 5.211-1.794 2.585.858 5.21 1.794a271 271 0 0 0-5.21 1.946 273 273 0 0 0-5.211-1.946Zm11.02-.215a248 248 0 0 0-5.167-1.791q2.606-.856 5.167-1.629 2.56.773 5.166 1.629-2.563.856-5.166 1.791Zm10.917-3.63a229 229 0 0 0-5.109 1.625q-2.575-.852-5.109-1.625 2.577-.768 5.11-1.451 2.53.683 5.108 1.451Zm-5.886-1.659q-2.494.683-5.031 1.447-2.538-.764-5.033-1.447 2.54-.674 5.033-1.259 2.49.585 5.03 1.259Zm-5.916-1.464q-2.44.585-4.924 1.254a184 184 0 0 0-4.924-1.254q2.487-.57 4.924-1.05 2.437.48 4.924 1.05Zm-5.971-1.253q-2.358.48-4.762 1.043-2.404-.563-4.761-1.043 2.406-.456 4.761-.822 2.355.366 4.762.822Zm-6.081-1.02q-2.223.366-4.49.811-2.266-.445-4.488-.811 2.27-.329 4.489-.572 2.22.243 4.489.572Zm-6.356-.761q-1.951.243-3.942.551a132 132 0 0 0-3.942-.551q1.992-.186 3.942-.298 1.95.112 3.942.298Zm-7.474-.443q-1.132.102-2.276.226-1.145-.124-2.276-.226a97 97 0 0 1 4.552 0Zm-11.617 0q-1.132.102-2.276.226-1.145-.124-2.276-.226a97 97 0 0 1 4.552 0Zm20.958.226q-1.145-.124-2.276-.226a97 97 0 0 1 4.552 0q-1.132.102-2.276.226Zm1.866.217q1.993-.186 3.942-.298 1.95.112 3.943.298-1.953.243-3.943.551-1.989-.309-3.942-.551Zm5.262.761q2.27-.329 4.489-.572 2.22.243 4.49.572-2.225.366-4.49.811a149 149 0 0 0-4.49-.811Zm10.298-.21q-1.99-.309-3.943-.551 1.992-.186 3.943-.298 1.949.112 3.942.298a131 131 0 0 0-3.942.551Zm-4.762 1.23q2.406-.456 4.762-.822 2.354.366 4.761.822-2.359.48-4.761 1.043-2.404-.563-4.762-1.043Zm10.57-.209a149 149 0 0 0-4.489-.811q2.27-.329 4.49-.572 2.218.243 4.488.572-2.223.366-4.489.811Zm-4.924 1.462q2.488-.57 4.924-1.05 2.436.48 4.924 1.05-2.44.585-4.924 1.254a185 185 0 0 0-4.924-1.254Zm10.733-.21q-2.404-.563-4.762-1.043 2.407-.456 4.762-.822 2.354.366 4.761.822-2.359.48-4.761 1.043Zm-5.032 1.674q2.54-.674 5.032-1.259 2.49.585 5.032 1.259-2.494.683-5.032 1.447-2.539-.764-5.032-1.447Zm10.84-.21a184 184 0 0 0-4.924-1.254q2.487-.57 4.924-1.05 2.437.48 4.924 1.05-2.439.585-4.924 1.254ZM26-213.854q-2.358.48-4.761 1.043-2.404-.563-4.762-1.043 2.406-.456 4.762-.822 2.354.366 4.761.822Zm-6.08-1.02a148 148 0 0 0-4.49.811 149 149 0 0 0-4.489-.811q2.27-.329 4.49-.572 2.219.243 4.488.572Zm-6.356-.761q-1.953.243-3.942.551a132 132 0 0 0-3.942-.551q1.992-.186 3.942-.298 1.95.112 3.942.298Zm-7.475-.443q-1.131.102-2.276.226a125 125 0 0 0-2.276-.226 97 97 0 0 1 4.552 0Zm-11.617 0q-1.132.102-2.276.226-1.145-.124-2.276-.226a97 97 0 0 1 4.552 0Zm20.958.226q-1.145-.124-2.276-.226a97 97 0 0 1 4.552 0q-1.131.102-2.276.226Zm1.867.217q1.992-.186 3.942-.298 1.95.112 3.942.298-1.953.243-3.942.551a132 132 0 0 0-3.942-.551Zm5.26.761q2.27-.329 4.49-.572 2.22.243 4.49.572-2.223.366-4.49.811a148 148 0 0 0-4.49-.811Zm10.299-.21a132 132 0 0 0-3.942-.551 111 111 0 0 1 3.942-.298q1.95.112 3.942.298-1.953.243-3.942.551Zm8.084-.994q-1.131.102-2.276.226-1.145-.124-2.276-.226a97 97 0 0 1 4.552 0Zm-11.617 0q-1.131.102-2.276.226-1.145-.124-2.276-.226a97 97 0 0 1 4.552 0Zm9.341 1073.932q1.145.12 2.276.226a102 102 0 0 1-4.552 0q1.131-.106 2.276-.226Zm-1.866-.218a138 138 0 0 1-3.942.299q-1.95-.12-3.942-.299c1.301-.161 2.615-.347 3.942-.549 1.326.202 2.64.388 3.942.549Zm-5.262-.759q-2.27.325-4.489.565-2.219-.24-4.489-.565c1.481-.243 2.978-.518 4.49-.816 1.51.298 3.007.573 4.489.816Zm-10.297.21c1.326.202 2.64.388 3.942.549q-1.993.18-3.942.299a138 138 0 0 1-3.942-.299c1.301-.161 2.615-.347 3.942-.549ZM26 855.85q-2.406.46-4.761.825-2.355-.365-4.762-.825 2.358-.472 4.762-1.042 2.403.57 4.761 1.042Zm-10.57.211c1.511.298 3.008.573 4.49.816q-2.27.325-4.49.565-2.22-.24-4.489-.565c1.481-.243 2.977-.518 4.49-.816Zm4.924-1.463c-1.658.38-3.3.735-4.924 1.05-1.625-.315-3.266-.67-4.924-1.05q2.44-.584 4.924-1.252c1.657.444 3.298.864 4.924 1.252Zm-10.732.21q2.404.57 4.761 1.042-2.406.46-4.761.825-2.355-.365-4.762-.825a139 139 0 0 0 4.762-1.042Zm5.032-1.672q-2.541.678-5.032 1.26a165 165 0 0 1-5.032-1.26 200 200 0 0 0 5.032-1.447q2.538.766 5.032 1.447Zm-10.84.21c1.655.444 3.297.864 4.923 1.252-1.658.38-3.3.735-4.924 1.05a150 150 0 0 1-4.924-1.05 184 184 0 0 0 4.924-1.252Zm5.108-1.867c-1.719.509-3.422.994-5.109 1.447-1.687-.453-3.39-.938-5.109-1.447a251 251 0 0 0 5.11-1.624q2.575.849 5.108 1.624Zm-10.917.21q2.537.766 5.032 1.447-2.54.678-5.032 1.26a165 165 0 0 1-5.033-1.26 200 200 0 0 0 5.033-1.447Zm5.166-2.052a215 215 0 0 1-5.166 1.632 215 215 0 0 1-5.167-1.632c1.708-.565 3.431-1.163 5.167-1.785 1.735.622 3.457 1.22 5.166 1.785Zm-10.975.218q2.576.849 5.109 1.624c-1.719.509-3.422.994-5.109 1.447a208 208 0 0 1-5.109-1.447 251 251 0 0 0 5.109-1.624Zm5.21-2.222a273 273 0 0 1-5.21 1.794 273 273 0 0 1-5.21-1.794 231 231 0 0 0 5.21-1.947 231 231 0 0 0 5.21 1.947Zm-11.019.219c1.736.622 3.458 1.22 5.167 1.785a215 215 0 0 1-5.167 1.632 215 215 0 0 1-5.166-1.632c1.71-.565 3.43-1.163 5.166-1.785Zm5.247-2.384c-1.762.679-3.511 1.325-5.247 1.955a283 283 0 0 1-5.246-1.955 298 298 0 0 0 5.246-2.085q2.642 1.079 5.247 2.085Zm-11.055.218c1.75.679 3.486 1.325 5.21 1.947q-2.625.934-5.21 1.794a273 273 0 0 1-5.21-1.794 231 231 0 0 0 5.21-1.947Zm5.275-2.521a380 380 0 0 1-5.275 2.093 381 381 0 0 1-5.276-2.093c1.107-.46 2.217-.921 3.332-1.398q.969-.41 1.944-.832.974.423 1.944.832c1.115.477 2.226.938 3.331 1.398Zm-11.084.218q2.64 1.079 5.247 2.085c-1.762.679-3.511 1.325-5.247 1.955a283 283 0 0 1-5.246-1.955 298 298 0 0 0 5.246-2.085Zm3.707-1.987a520 520 0 0 1-3.707 1.551 531 531 0 0 1-3.707-1.551l-1.592-.679a312 312 0 0 0 5.3-2.359c1.777.808 3.544 1.6 5.3 2.359q-.8.339-1.594.679Zm-9.515-.461q.974.423 1.944.832c1.115.477 2.226.938 3.332 1.398a385 385 0 0 1-5.276 2.093 384 384 0 0 1-5.276-2.093c1.106-.46 2.217-.921 3.332-1.398q.969-.41 1.944-.832Zm5.32-2.795a413 413 0 0 1-5.32 2.359 407 407 0 0 1-5.32-2.359 560 560 0 0 0 5.32-2.473 568 568 0 0 0 5.32 2.473Zm-11.129.218c1.778.808 3.545 1.6 5.3 2.359q-.798.339-1.593.679a516 516 0 0 1-3.707 1.551 536 536 0 0 1-3.707-1.551l-1.592-.679a310 310 0 0 0 5.3-2.359Zm5.339-2.917a416 416 0 0 1-5.339 2.48 422 422 0 0 1-5.337-2.48c1.77-.849 3.548-1.705 5.337-2.594 1.789.889 3.569 1.745 5.339 2.594Zm-11.147.226q2.676 1.26 5.32 2.473a403 403 0 0 1-5.32 2.359 408 408 0 0 1-5.32-2.359 561 561 0 0 0 5.32-2.473Zm5.353-3.046a340 340 0 0 1-5.353 2.594 343 343 0 0 1-5.353-2.594 419 419 0 0 0 5.353-2.699c1.793.922 3.577 1.818 5.353 2.699Zm-11.162.226c1.789.889 3.569 1.745 5.338 2.594a416 416 0 0 1-5.338 2.48 421 421 0 0 1-5.337-2.48c1.769-.849 3.548-1.705 5.337-2.594Zm5.367-3.151a434 434 0 0 1-5.367 2.699 439 439 0 0 1-5.366-2.699q2.67-1.381 5.366-2.812 2.697 1.43 5.367 2.812Zm-11.176.226c1.794.922 3.578 1.818 5.354 2.699a339 339 0 0 1-5.354 2.594 343 343 0 0 1-5.352-2.594c1.775-.881 3.56-1.777 5.352-2.699Zm5.38-3.264a585 585 0 0 1-5.38 2.812 585 585 0 0 1-5.377-2.812 585 585 0 0 0 5.378-2.909q2.7 1.48 5.378 2.909Zm-11.187.226a572 572 0 0 0 5.365 2.812 434 434 0 0 1-5.366 2.699 439 439 0 0 1-5.366-2.699q2.67-1.381 5.367-2.812Zm-11.163 5.737c1.776-.881 3.56-1.777 5.354-2.699 1.793.922 3.578 1.818 5.353 2.699a340 340 0 0 1-5.354 2.594 343 343 0 0 1-5.353-2.594Zm5.824 2.82c1.77-.849 3.549-1.705 5.338-2.594 1.789.889 3.569 1.745 5.338 2.594a416 416 0 0 1-5.338 2.48 421 421 0 0 1-5.338-2.48Zm5.827 2.699a560 560 0 0 0 5.32-2.473q2.675 1.26 5.32 2.473a403 403 0 0 1-5.32 2.359 407 407 0 0 1-5.32-2.359Zm5.828 2.577a310 310 0 0 0 5.3-2.359c1.777.808 3.545 1.6 5.3 2.359q-.798.339-1.593.679a520 520 0 0 1-3.707 1.551 534 534 0 0 1-3.707-1.551q-.794-.34-1.593-.679Zm9.165 1.05q.97-.41 1.944-.832.974.423 1.944.832c1.115.477 2.226.938 3.332 1.398a385 385 0 0 1-5.276 2.093 384 384 0 0 1-5.276-2.093c1.106-.46 2.217-.921 3.332-1.398Zm2.506 3.701a298 298 0 0 0 5.246-2.085q2.642 1.079 5.247 2.085a285 285 0 0 1-5.247 1.955 283 283 0 0 1-5.246-1.955Zm5.844 2.165a231 231 0 0 0 5.21-1.947 234 234 0 0 0 5.211 1.947q-2.625.934-5.21 1.794a273 273 0 0 1-5.211-1.794Zm5.853 2.004c1.709-.565 3.43-1.163 5.166-1.785 1.736.622 3.458 1.22 5.166 1.785a215 215 0 0 1-5.166 1.632 215 215 0 0 1-5.166-1.632Zm5.866 1.842a251 251 0 0 0 5.109-1.624q2.575.849 5.109 1.624c-1.719.509-3.422.994-5.11 1.447-1.686-.453-3.39-.938-5.108-1.447Zm5.885 1.657q2.494-.681 5.032-1.447 2.539.766 5.032 1.447-2.54.678-5.032 1.26a165 165 0 0 1-5.032-1.26Zm5.917 1.462a184 184 0 0 0 4.924-1.252c1.656.444 3.298.864 4.924 1.252-1.658.38-3.3.735-4.924 1.05-1.624-.315-3.266-.67-4.924-1.05Zm5.971 1.252a139 139 0 0 0 4.762-1.042q2.404.57 4.761 1.042-2.407.46-4.761.825-2.355-.365-4.762-.825Zm6.081 1.027c1.481-.243 2.977-.518 4.49-.816 1.51.298 3.006.573 4.488.816q-2.27.325-4.489.565a130 130 0 0 1-4.489-.565Zm6.356.759c1.301-.161 2.615-.347 3.942-.549 1.326.202 2.64.388 3.942.549q-1.993.18-3.942.299-1.95-.12-3.942-.299Zm7.474.444q1.132-.106 2.276-.226 1.145.12 2.276.226a102 102 0 0 1-4.552 0Zm11.617 0q1.131-.106 2.276-.226 1.145.12 2.276.226a102 102 0 0 1-4.552 0Zm-20.958-.226q1.145.12 2.275.226a102 102 0 0 1-4.551 0q1.132-.106 2.276-.226Zm-1.866-.218q-1.993.18-3.942.299-1.95-.12-3.943-.299c1.302-.161 2.616-.347 3.943-.549 1.326.202 2.64.388 3.942.549Zm-5.262-.759q-2.27.325-4.49.565-2.218-.24-4.488-.565c1.48-.243 2.977-.518 4.489-.816 1.51.298 3.007.573 4.49.816Zm-10.298.21c1.327.202 2.64.388 3.943.549q-1.993.18-3.943.299a138 138 0 0 1-3.942-.299c1.302-.161 2.616-.347 3.942-.549Zm4.762-1.237q-2.407.46-4.762.825-2.354-.365-4.761-.825 2.359-.472 4.761-1.042 2.404.57 4.762 1.042Zm-10.57.211c1.51.298 3.008.573 4.489.816q-2.27.325-4.49.565-2.219-.24-4.488-.565c1.48-.243 2.978-.518 4.489-.816Zm4.924-1.463c-1.658.38-3.3.735-4.924 1.05-1.624-.315-3.266-.67-4.924-1.05q2.439-.584 4.924-1.252c1.656.444 3.298.864 4.924 1.252Zm-10.733.21q2.404.57 4.762 1.042-2.407.46-4.762.825-2.355-.365-4.761-.825 2.358-.472 4.761-1.042Zm5.032-1.672q-2.54.678-5.032 1.26a165 165 0 0 1-5.032-1.26q2.494-.681 5.032-1.447 2.538.766 5.032 1.447Zm-10.84.21c1.656.444 3.298.864 4.924 1.252-1.658.38-3.3.735-4.924 1.05-1.624-.315-3.266-.67-4.924-1.05q2.439-.584 4.924-1.252Zm5.108-1.867c-1.718.509-3.421.994-5.108 1.447-1.687-.453-3.39-.938-5.11-1.447a251 251 0 0 0 5.11-1.624 251 251 0 0 0 5.108 1.624Zm-10.917.21q2.538.766 5.032 1.447-2.54.678-5.032 1.26a166 166 0 0 1-5.032-1.26q2.494-.681 5.032-1.447Zm5.166-2.052a215 215 0 0 1-5.166 1.632 216 216 0 0 1-5.166-1.632c1.709-.565 3.43-1.163 5.166-1.785 1.736.622 3.458 1.22 5.166 1.785Zm-10.974.218a251 251 0 0 0 5.108 1.624c-1.718.509-3.421.994-5.108 1.447-1.687-.453-3.39-.938-5.11-1.447a251 251 0 0 0 5.11-1.624Zm5.211-2.222q-2.626.934-5.211 1.794a273 273 0 0 1-5.211-1.794 231 231 0 0 0 5.21-1.947c1.75.679 3.488 1.325 5.212 1.947Zm-11.02.219c1.736.622 3.458 1.22 5.166 1.785a215 215 0 0 1-5.166 1.632 216 216 0 0 1-5.166-1.632c1.709-.565 3.43-1.163 5.166-1.785Zm5.247-2.384a286 286 0 0 1-5.247 1.955 285 285 0 0 1-5.246-1.955 298 298 0 0 0 5.246-2.085q2.642 1.079 5.247 2.085Zm-11.056.218c1.75.679 3.488 1.325 5.212 1.947q-2.626.934-5.212 1.794a273 273 0 0 1-5.21-1.794 231 231 0 0 0 5.21-1.947Zm5.277-2.521q-2.657 1.077-5.277 2.093a385 385 0 0 1-5.275-2.093c1.106-.46 2.216-.921 3.332-1.398q.97-.41 1.943-.832.975.423 1.944.832c1.115.477 2.226.938 3.333 1.398Zm-11.085.218a298 298 0 0 0 5.247 2.085 285 285 0 0 1-5.247 1.955 286 286 0 0 1-5.246-1.955 298 298 0 0 0 5.246-2.085Zm3.707-1.987a518 518 0 0 1-3.707 1.551 518 518 0 0 1-5.3-2.23 309 309 0 0 0 5.3-2.359c1.777.808 3.544 1.6 5.3 2.359q-.798.339-1.593.679Zm-9.516-.461q.975.423 1.944.832c1.115.477 2.226.938 3.332 1.398a385 385 0 0 1-5.276 2.093 385 385 0 0 1-5.275-2.093c1.106-.46 2.217-.921 3.332-1.398q.97-.41 1.943-.832Zm5.32-2.795a403 403 0 0 1-5.32 2.359 407 407 0 0 1-5.32-2.359 560 560 0 0 0 5.32-2.473q2.677 1.26 5.32 2.473Zm-11.128.218c1.777.808 3.544 1.6 5.3 2.359q-.798.339-1.593.679a501 501 0 0 1-3.707 1.551 519 519 0 0 1-5.3-2.23 310 310 0 0 0 5.3-2.359Zm5.338-2.917a415 415 0 0 1-5.338 2.48 421 421 0 0 1-5.338-2.48c1.77-.849 3.55-1.705 5.338-2.594 1.789.889 3.569 1.745 5.338 2.594Zm-11.146.226q2.675 1.26 5.32 2.473a403 403 0 0 1-5.32 2.359 407 407 0 0 1-5.32-2.359 570 570 0 0 0 5.32-2.473Zm-11.109 5.05a313 313 0 0 0 5.3-2.359c1.777.808 3.544 1.6 5.3 2.359q-.798.339-1.593.679a505 505 0 0 1-3.707 1.551 518 518 0 0 1-5.3-2.23Zm9.165 1.05q.97-.41 1.943-.832.975.423 1.944.832c1.115.477 2.226.938 3.332 1.398a385 385 0 0 1-5.276 2.093 384 384 0 0 1-5.275-2.093c1.106-.46 2.217-.921 3.332-1.398Zm2.505 3.701a295 295 0 0 0 5.247-2.085q2.641 1.079 5.247 2.085a285 285 0 0 1-5.247 1.955 286 286 0 0 1-5.247-1.955Zm5.845 2.165a231 231 0 0 0 5.21-1.947c1.75.679 3.488 1.325 5.212 1.947q-2.626.934-5.212 1.794a273 273 0 0 1-5.21-1.794Zm5.853 2.004c1.709-.565 3.43-1.163 5.166-1.785 1.735.622 3.458 1.22 5.166 1.785a215 215 0 0 1-5.166 1.632 216 216 0 0 1-5.166-1.632Zm5.866 1.842a251 251 0 0 0 5.108-1.624q2.575.849 5.11 1.624a207 207 0 0 1-5.11 1.447c-1.687-.453-3.39-.938-5.108-1.447Zm5.885 1.657q2.494-.681 5.032-1.447 2.538.766 5.032 1.447-2.54.678-5.032 1.26a165 165 0 0 1-5.032-1.26Zm5.917 1.462q2.438-.584 4.924-1.252c1.656.444 3.298.864 4.923 1.252-1.658.38-3.3.735-4.923 1.05-1.624-.315-3.266-.67-4.924-1.05Zm5.97 1.252q2.358-.472 4.762-1.042 2.404.57 4.762 1.042-2.407.46-4.762.825-2.355-.365-4.761-.825Zm6.082 1.027c1.481-.243 2.978-.518 4.489-.816 1.51.298 3.008.573 4.489.816q-2.27.325-4.49.565-2.218-.24-4.488-.565Zm6.355.759c1.302-.161 2.616-.347 3.942-.549 1.327.202 2.64.388 3.942.549a138 138 0 0 1-3.942.299q-1.95-.12-3.942-.299Zm7.476.444q1.13-.106 2.275-.226 1.144.12 2.275.226a102 102 0 0 1-4.55 0Zm11.617 0q1.13-.106 2.275-.226 1.144.12 2.275.226a102 102 0 0 1-4.55 0Zm-20.96-.226q1.145.12 2.276.226a102 102 0 0 1-4.55 0q1.13-.106 2.275-.226Zm-1.866-.218q-1.992.18-3.942.299a138 138 0 0 1-3.942-.299c1.302-.161 2.615-.347 3.942-.549 1.327.202 2.64.388 3.942.549Zm-5.261-.759q-2.27.325-4.49.565-2.218-.24-4.489-.565c1.482-.243 2.979-.518 4.49-.816 1.51.298 3.008.573 4.489.816Zm-10.298.21c1.327.202 2.64.388 3.942.549a138 138 0 0 1-3.942.299q-1.95-.12-3.942-.299c1.301-.161 2.615-.347 3.942-.549Zm4.761-1.237q-2.405.46-4.761.825-2.355-.365-4.761-.825 2.357-.472 4.761-1.042 2.404.57 4.761 1.042Zm-10.57.211c1.511.298 3.009.573 4.49.816q-2.27.325-4.49.565-2.218-.24-4.489-.565c1.482-.243 2.979-.518 4.49-.816Zm4.924-1.463c-1.658.38-3.3.735-4.924 1.05-1.624-.315-3.265-.67-4.923-1.05q2.439-.584 4.923-1.252c1.657.444 3.299.864 4.924 1.252Zm-10.732.21q2.404.57 4.761 1.042-2.406.46-4.761.825-2.355-.365-4.762-.825 2.358-.472 4.762-1.042Zm5.032-1.672q-2.54.678-5.032 1.26-2.491-.582-5.032-1.26 2.494-.681 5.032-1.447 2.539.766 5.032 1.447Zm-10.84.21c1.656.444 3.297.864 4.923 1.252-1.658.38-3.299.735-4.924 1.05-1.624-.315-3.266-.67-4.924-1.05a184 184 0 0 0 4.924-1.252Zm5.108-1.867a207 207 0 0 1-5.109 1.447c-1.687-.453-3.39-.938-5.109-1.447a251 251 0 0 0 5.11-1.624q2.575.849 5.108 1.624Zm-10.917.21q2.539.766 5.032 1.447-2.54.678-5.032 1.26-2.49-.582-5.032-1.26 2.494-.681 5.032-1.447Zm5.167-2.052a216 216 0 0 1-5.167 1.632 216 216 0 0 1-5.167-1.632c1.71-.565 3.431-1.163 5.167-1.785 1.735.622 3.458 1.22 5.167 1.785Zm-10.976.218a251 251 0 0 0 5.109 1.624c-1.718.509-3.421.994-5.109 1.447-1.687-.453-3.39-.938-5.109-1.447a251 251 0 0 0 5.11-1.624Zm5.212-2.222q-2.626.934-5.212 1.794a273 273 0 0 1-5.21-1.794 233 233 0 0 0 5.211-1.947c1.75.679 3.486 1.325 5.21 1.947Zm-11.02.219c1.735.622 3.458 1.22 5.167 1.785-1.737.574-3.46 1.115-5.167 1.632a216 216 0 0 1-5.167-1.632 219 219 0 0 0 5.167-1.785Zm5.247-2.384a286 286 0 0 1-5.247 1.955 285 285 0 0 1-5.247-1.955 296 296 0 0 0 5.247-2.085q2.641 1.079 5.247 2.085Zm-11.056.218c1.75.679 3.487 1.325 5.212 1.947q-2.627.934-5.211 1.794a271 271 0 0 1-5.212-1.794 231 231 0 0 0 5.211-1.947Zm5.276-2.521a385 385 0 0 1-5.276 2.093 389 389 0 0 1-5.275-2.093c1.106-.46 2.217-.921 3.332-1.398q.969-.41 1.944-.832.974.423 1.943.832c1.115.477 2.226.938 3.332 1.398Zm-11.084.218q2.641 1.079 5.246 2.085c-1.762.679-3.51 1.325-5.246 1.955a286 286 0 0 1-5.247-1.955 297 297 0 0 0 5.247-2.085Zm-11.02 4.25a233 233 0 0 0 5.212-1.947c1.749.679 3.486 1.325 5.21 1.947q-2.626.934-5.21 1.794a270 270 0 0 1-5.212-1.794Zm5.853 2.004c1.71-.565 3.432-1.163 5.166-1.785 1.736.622 3.459 1.22 5.168 1.785a215 215 0 0 1-5.168 1.632 216 216 0 0 1-5.166-1.632Zm5.866 1.842q2.534-.775 5.11-1.624a251 251 0 0 0 5.108 1.624c-1.718.509-3.421.994-5.109 1.447-1.687-.453-3.39-.938-5.109-1.447Zm5.886 1.657q2.494-.681 5.032-1.447 2.539.766 5.032 1.447-2.54.678-5.032 1.26-2.49-.582-5.032-1.26Zm5.916 1.462q2.44-.584 4.924-1.252c1.657.444 3.298.864 4.925 1.252-1.659.38-3.3.735-4.925 1.05-1.624-.315-3.266-.67-4.924-1.05Zm5.971 1.252q2.358-.472 4.762-1.042 2.404.57 4.761 1.042-2.406.46-4.761.825-2.355-.365-4.762-.825Zm6.081 1.027a142 142 0 0 0 4.49-.816c1.511.298 3.007.573 4.488.816q-2.27.325-4.489.565-2.219-.24-4.489-.565Zm6.356.759c1.301-.161 2.616-.347 3.942-.549 1.327.202 2.64.388 3.942.549q-1.992.18-3.942.299-1.95-.12-3.942-.299Zm7.475.444q1.131-.106 2.275-.226 1.145.12 2.277.226a102 102 0 0 1-4.552 0Zm11.617 0q1.131-.106 2.276-.226 1.143.12 2.276.226a102 102 0 0 1-4.552 0Zm-20.959-.226q1.145.12 2.276.226a102 102 0 0 1-4.551 0q1.132-.106 2.275-.226Zm-1.866-.218q-1.993.18-3.942.299a138 138 0 0 1-3.942-.299c1.301-.161 2.616-.347 3.942-.549 1.326.202 2.64.388 3.942.549Zm-5.262-.759q-2.27.325-4.489.565-2.22-.24-4.489-.565c1.482-.243 2.978-.518 4.49-.816 1.51.298 3.007.573 4.488.816Zm-10.297.21c1.326.202 2.64.388 3.942.549a138 138 0 0 1-3.942.299 138 138 0 0 1-3.943-.299c1.302-.161 2.617-.347 3.943-.549Zm4.761-1.237q-2.407.46-4.761.825-2.355-.365-4.761-.825 2.358-.472 4.76-1.042 2.405.57 4.762 1.042Zm-10.57.211c1.512.298 3.008.573 4.49.816q-2.27.325-4.49.565-2.22-.24-4.49-.565c1.483-.243 2.98-.518 4.49-.816Zm4.925-1.463c-1.66.38-3.3.735-4.925 1.05a150 150 0 0 1-4.924-1.05 184 184 0 0 0 4.924-1.252c1.657.444 3.298.864 4.925 1.252Zm-10.734.21q2.405.57 4.762 1.042-2.407.46-4.761.825a137 137 0 0 1-4.762-.825q2.359-.472 4.761-1.042Zm5.033-1.672q-2.54.678-5.032 1.26-2.49-.582-5.032-1.26 2.494-.681 5.031-1.447 2.539.766 5.033 1.447Zm-10.84.21c1.656.444 3.297.864 4.923 1.252-1.658.38-3.3.735-4.924 1.05-1.624-.315-3.265-.67-4.924-1.05q2.44-.584 4.925-1.252Zm5.108-1.867c-1.718.509-3.421.994-5.108 1.447a206 206 0 0 1-5.109-1.447 251 251 0 0 0 5.108-1.624q2.576.849 5.109 1.624Zm-10.917.21q2.538.766 5.031 1.447a165 165 0 0 1-5.031 1.26 166 166 0 0 1-5.032-1.26q2.493-.681 5.032-1.447Zm5.166-2.052a216 216 0 0 1-5.166 1.632 216 216 0 0 1-5.167-1.632 220 220 0 0 0 5.167-1.785c1.735.622 3.457 1.22 5.166 1.785Zm-10.974.218q2.575.849 5.108 1.624c-1.718.509-3.421.994-5.108 1.447a204 204 0 0 1-5.109-1.447 253 253 0 0 0 5.109-1.624Zm-10.841 3.281q2.494-.681 5.032-1.447 2.538.766 5.031 1.447-2.54.678-5.031 1.26a165 165 0 0 1-5.032-1.26Zm5.916 1.462q2.438-.584 4.925-1.252c1.656.444 3.297.864 4.923 1.252-1.658.38-3.299.735-4.923 1.05-1.625-.315-3.266-.67-4.925-1.05Zm5.972 1.252q2.357-.472 4.761-1.042 2.403.57 4.761 1.042-2.407.46-4.761.825-2.355-.365-4.761-.825Zm6.08 1.027c1.482-.243 2.978-.518 4.489-.816 1.512.298 3.008.573 4.49.816q-2.27.325-4.49.565-2.22-.24-4.489-.565Zm6.356.759c1.301-.161 2.616-.347 3.941-.549 1.327.202 2.64.388 3.943.549q-1.993.18-3.943.299-1.949-.12-3.94-.299Zm7.475.444q1.13-.106 2.275-.226 1.145.12 2.276.226a102 102 0 0 1-4.551 0Zm11.617 0q1.13-.106 2.275-.226 1.145.12 2.276.226a102 102 0 0 1-4.551 0Zm-20.959-.226q1.145.12 2.276.226a102 102 0 0 1-4.551 0 219 219 0 0 0 2.275-.226Zm-1.867-.218q-1.992.18-3.941.299a138 138 0 0 1-3.942-.299c1.301-.161 2.615-.347 3.942-.549 1.326.202 2.641.388 3.941.549Zm-5.26-.759q-2.27.325-4.49.565-2.22-.24-4.489-.565c1.481-.243 2.978-.518 4.49-.816 1.51.298 3.007.573 4.489.816Zm-10.298.21c1.326.202 2.64.388 3.941.549q-1.992.18-3.941.299a138 138 0 0 1-3.942-.299c1.301-.161 2.615-.347 3.942-.549Zm4.761-1.237q-2.407.46-4.761.825-2.356-.365-4.761-.825 2.356-.472 4.761-1.042 2.403.57 4.761 1.042Zm-10.57.211c1.511.298 3.008.573 4.49.816q-2.27.325-4.49.565-2.22-.24-4.489-.565c1.481-.243 2.978-.518 4.489-.816Zm4.924-1.463c-1.658.38-3.3.735-4.924 1.05-1.624-.315-3.265-.67-4.924-1.05q2.44-.584 4.924-1.252c1.657.444 3.298.864 4.924 1.252Zm-10.732.21q2.403.57 4.76 1.042a136 136 0 0 1-4.76.825q-2.355-.365-4.762-.825a139 139 0 0 0 4.762-1.042Zm-10.298 2.069c1.481-.243 2.978-.518 4.489-.816 1.511.298 3.008.573 4.489.816q-2.27.325-4.489.565a131 131 0 0 1-4.489-.565Zm6.356.759c1.301-.161 2.615-.347 3.942-.549 1.326.202 2.64.388 3.942.549q-1.993.18-3.942.299a138 138 0 0 1-3.942-.299Zm7.474.444q1.131-.106 2.276-.226 1.145.12 2.276.226a102 102 0 0 1-4.552 0Zm11.617 0q1.131-.106 2.276-.226 1.145.12 2.276.226a102 102 0 0 1-4.552 0Zm-20.958-.226q1.145.12 2.276.226a102 102 0 0 1-4.552 0q1.131-.106 2.276-.226Zm-1.866-.218q-1.993.18-3.942.299a138 138 0 0 1-3.942-.299c1.301-.161 2.615-.347 3.942-.549 1.326.202 2.64.388 3.942.549Zm-12.027.444q1.132-.106 2.276-.226 1.145.12 2.275.226a102 102 0 0 1-4.551 0Z" opacity=".33"/></g><defs><linearGradient id="b" x1="-48.461" x2="-48.461" y1="858.307" y2="-216.307" gradientUnits="userSpaceOnUse"><stop offset=".505" stop-color="#8670FF"/><stop offset=".795" stop-color="#320080" stop-opacity=".33"/></linearGradient><clipPath id="a"><path fill="#fff" d="M-696.461-216.307h1296v1074.61h-1296z"/></clipPath></defs></svg>