<svg
      width="79"
      height="80"
      viewBox="0 0 79 80"
      fill="none"
      xmlns="http://www.w3.org/2000/svg"
    >
      <rect
        x="8.79741"
        y="9.29741"
        width="61.4052"
        height="61.4052"
        rx="30.7026"
        fill="#826DF9"
        fill-opacity="0.1"
      />
      <rect
        x="8.79741"
        y="9.29741"
        width="61.4052"
        height="61.4052"
        rx="30.7026"
        stroke="url(#paint0_linear_53_380)"
        stroke-width="0.594819"
      />
      <g filter="url(#filter0_di_53_380)">
        <path
          d="M14.4482 40.0001C14.4482 26.1643 25.6643 14.9482 39.5001 14.9482C53.3358 14.9482 64.5519 26.1643 64.5519 40.0001C64.5519 53.8358 53.3358 65.0519 39.5001 65.0519C25.6643 65.0519 14.4482 53.8358 14.4482 40.0001Z"
          fill="#826DF9"
          shape-rendering="crispEdges"
        />
        <path
          d="M48.4286 44.4581L44.7205 46.3122C44.2076 46.562 43.7211 47.2326 43.6159 47.7981L43.0636 51.1512C42.7086 53.2946 41.1569 53.7943 39.6053 52.2558L36.9885 49.639C36.5546 49.2051 35.6998 48.9552 35.0818 49.0999L31.847 49.8494C29.296 50.4411 28.2966 49.0736 29.6379 46.825L31.5051 43.6822C31.847 43.1168 31.847 42.17 31.5051 41.6046L29.6379 38.4619C28.3098 36.2133 29.296 34.8457 31.847 35.4375L35.0818 36.187C35.713 36.3053 36.5677 36.0555 37.0017 35.6216L39.6184 33.0048C41.1569 31.4663 42.7086 31.966 43.0768 34.1093L43.629 37.4625C43.7211 38.0279 44.2208 38.6986 44.7336 38.9484L48.4418 40.8025C50.4405 41.815 50.4405 43.4456 48.4286 44.4581Z"
          fill="url(#paint1_linear_53_380)"
        />
        <path
          d="M47.7187 34.7396L47.7187 26.8499C47.7187 26.3107 48.1658 25.8636 48.7049 25.8636C49.2441 25.8636 49.6912 26.3107 49.6912 26.8499L49.6912 34.7396C49.6912 35.2788 49.2441 35.7258 48.7049 35.7258C48.1658 35.7258 47.7187 35.2788 47.7187 34.7396Z"
          fill="url(#paint2_linear_53_380)"
        />
        <path
          d="M29.3093 30.7947L29.3093 26.8499C29.3093 26.3107 29.7564 25.8636 30.2955 25.8636C30.8347 25.8636 31.2817 26.3107 31.2817 26.8499L31.2817 30.7947C31.2817 31.3339 30.8347 31.781 30.2955 31.781C29.7564 31.781 29.3093 31.3339 29.3093 30.7947Z"
          fill="url(#paint3_linear_53_380)"
        />
        <path
          d="M38.5139 28.1648L38.5139 26.8499C38.5139 26.3107 38.961 25.8636 39.5001 25.8636C40.0392 25.8636 40.4863 26.3107 40.4863 26.8499L40.4863 28.1648C40.4863 28.704 40.0392 29.151 39.5001 29.151C38.961 29.151 38.5139 28.704 38.5139 28.1648Z"
          fill="url(#paint4_linear_53_380)"
        />
      </g>
      <defs>
        <filter
          id="filter0_di_53_380"
          x="0.172582"
          y="0.672582"
          width="78.6548"
          height="78.655"
          filterUnits="userSpaceOnUse"
          color-interpolation-filters="sRGB"
        >
          <feFlood flood-opacity="0" result="BackgroundImageFix" />
          <feColorMatrix
            in="SourceAlpha"
            type="matrix"
            values="0 0 0 0 0 0 0 0 0 0 0 0 0 0 0 0 0 0 127 0"
            result="hardAlpha"
          />
          <feOffset />
          <feGaussianBlur stdDeviation="7.13783" />
          <feComposite in2="hardAlpha" operator="out" />
          <feColorMatrix
            type="matrix"
            values="0 0 0 0 0.431373 0 0 0 0 0.329412 0 0 0 0 1 0 0 0 1 0"
          />
          <feBlend
            mode="normal"
            in2="BackgroundImageFix"
            result="effect1_dropShadow_53_380"
          />
          <feBlend
            mode="normal"
            in="SourceGraphic"
            in2="effect1_dropShadow_53_380"
            result="shape"
          />
          <feColorMatrix
            in="SourceAlpha"
            type="matrix"
            values="0 0 0 0 0 0 0 0 0 0 0 0 0 0 0 0 0 0 127 0"
            result="hardAlpha"
          />
          <feOffset dy="2.37928" />
          <feGaussianBlur stdDeviation="2.37928" />
          <feComposite in2="hardAlpha" operator="arithmetic" k2="-1" k3="1" />
          <feColorMatrix
            type="matrix"
            values="0 0 0 0 0.509804 0 0 0 0 0.427451 0 0 0 0 0.976471 0 0 0 1 0"
          />
          <feBlend
            mode="normal"
            in2="shape"
            result="effect2_innerShadow_53_380"
          />
        </filter>
        <linearGradient
          id="paint0_linear_53_380"
          x1="13.6132"
          y1="18.595"
          x2="39.5"
          y2="71"
          gradientUnits="userSpaceOnUse"
        >
          <stop stop-color="#CBC1FF" />
          <stop offset="1" stop-color="#826DF9" stop-opacity="0" />
        </linearGradient>
        <linearGradient
          id="paint1_linear_53_380"
          x1="39.4903"
          y1="32.1113"
          x2="39.4903"
          y2="53.1492"
          gradientUnits="userSpaceOnUse"
        >
          <stop stop-color="white" />
          <stop offset="1" stop-color="#BEB2FF" />
        </linearGradient>
        <linearGradient
          id="paint2_linear_53_380"
          x1="48.7049"
          y1="25.8636"
          x2="48.7049"
          y2="35.7258"
          gradientUnits="userSpaceOnUse"
        >
          <stop stop-color="white" />
          <stop offset="1" stop-color="#BEB2FF" />
        </linearGradient>
        <linearGradient
          id="paint3_linear_53_380"
          x1="30.2955"
          y1="25.8636"
          x2="30.2955"
          y2="31.781"
          gradientUnits="userSpaceOnUse"
        >
          <stop stop-color="white" />
          <stop offset="1" stop-color="#BEB2FF" />
        </linearGradient>
        <linearGradient
          id="paint4_linear_53_380"
          x1="39.5001"
          y1="25.8636"
          x2="39.5001"
          y2="29.151"
          gradientUnits="userSpaceOnUse"
        >
          <stop stop-color="white" />
          <stop offset="1" stop-color="#BEB2FF" />
        </linearGradient>
      </defs>
    </svg>