<svg width="32" height="33" viewBox="0 0 32 33" fill="none" xmlns="http://www.w3.org/2000/svg">
<path d="M0 16.7358C0 7.89928 7.16344 0.73584 16 0.73584C24.8366 0.73584 32 7.89928 32 16.7358C32 25.5724 24.8366 32.7358 16 32.7358C7.16344 32.7358 0 25.5724 0 16.7358Z" fill="white" fill-opacity="0.1"/>
<path d="M0.4 16.7358C0.4 8.1202 7.38436 1.13584 16 1.13584C24.6156 1.13584 31.6 8.1202 31.6 16.7358C31.6 25.3515 24.6156 32.3358 16 32.3358C7.38436 32.3358 0.4 25.3515 0.4 16.7358Z" stroke="white" stroke-opacity="0.1" stroke-width="0.8"/>
<g filter="url(#filter0_d_53_2287)">
<path d="M16 8.73584L22.9282 20.7358H9.0718L16 8.73584Z" fill="white"/>
</g>
<defs>
<filter id="filter0_d_53_2287" x="1.07178" y="0.73584" width="29.8564" height="28" filterUnits="userSpaceOnUse" color-interpolation-filters="sRGB">
<feFlood flood-opacity="0" result="BackgroundImageFix"/>
<feColorMatrix in="SourceAlpha" type="matrix" values="0 0 0 0 0 0 0 0 0 0 0 0 0 0 0 0 0 0 127 0" result="hardAlpha"/>
<feOffset/>
<feGaussianBlur stdDeviation="4"/>
<feComposite in2="hardAlpha" operator="out"/>
<feColorMatrix type="matrix" values="0 0 0 0 1 0 0 0 0 1 0 0 0 0 1 0 0 0 1 0"/>
<feBlend mode="normal" in2="BackgroundImageFix" result="effect1_dropShadow_53_2287"/>
<feBlend mode="normal" in="SourceGraphic" in2="effect1_dropShadow_53_2287" result="shape"/>
</filter>
</defs>
</svg>
